<svg width="72" height="73" viewBox="0 0 72 73" fill="none" xmlns="http://www.w3.org/2000/svg">
<g clip-path="url(#clip0)">
<path d="M24.5 72.3999C32.232 72.3999 38.5 66.1319 38.5 58.3999C38.5 50.6679 32.232 44.3999 24.5 44.3999C16.768 44.3999 10.5 50.6679 10.5 58.3999C10.5 66.1319 16.768 72.3999 24.5 72.3999Z" fill="#F2DDF1"/>
<path d="M12 26.6001C18.6274 26.6001 24 21.2275 24 14.6001C24 7.97268 18.6274 2.6001 12 2.6001C5.37258 2.6001 0 7.97268 0 14.6001C0 21.2275 5.37258 26.6001 12 26.6001Z" fill="#F2DDF1"/>
<path d="M51.1001 41.8999C62.1458 41.8999 71.1001 32.9456 71.1001 21.8999C71.1001 10.8542 62.1458 1.8999 51.1001 1.8999C40.0544 1.8999 31.1001 10.8542 31.1001 21.8999C31.1001 32.9456 40.0544 41.8999 51.1001 41.8999Z" fill="#F2DDF1"/>
<path d="M32.7998 53.7998C44.3978 53.7998 53.7998 44.3978 53.7998 32.7998C53.7998 21.2018 44.3978 11.7998 32.7998 11.7998C21.2018 11.7998 11.7998 21.2018 11.7998 32.7998C11.7998 44.3978 21.2018 53.7998 32.7998 53.7998Z" fill="white"/>
<path d="M45.8999 16.2998C48.7999 19.8998 50.4999 24.3998 50.4999 29.3998C50.4999 40.9998 41.0999 50.3998 29.4999 50.3998C24.4999 50.3998 19.9999 48.6998 16.3999 45.7998C20.1999 50.5998 26.1999 53.6998 32.7999 53.6998C44.3999 53.6998 53.7999 44.2998 53.7999 32.6998C53.7999 26.0998 50.6999 20.1998 45.8999 16.2998Z" fill="#D7B4ED"/>
<path d="M32.8 54.4999C20.8 54.4999 11 44.6999 11 32.6999C11 20.6999 20.8 10.8999 32.8 10.8999C44.8 10.8999 54.6 20.6999 54.6 32.6999C54.6 44.6999 44.8 54.4999 32.8 54.4999ZM32.8 12.4999C21.6 12.4999 12.5 21.5999 12.5 32.7999C12.5 43.9999 21.6 52.9999 32.8 52.9999C44 52.9999 53.1 43.8999 53.1 32.6999C53.1 21.4999 44 12.4999 32.8 12.4999Z" fill="#4F358E"/>
<path d="M45.7998 28.3998C45.7998 24.6998 42.6998 21.7998 38.7998 21.7998C36.1998 21.7998 33.9998 23.0998 32.7998 25.0998C31.5998 23.0998 29.2998 21.7998 26.7998 21.7998C22.8998 21.7998 19.7998 24.7998 19.7998 28.3998C19.7998 36.1998 32.7998 43.7998 32.7998 43.7998C32.7998 43.7998 45.7998 36.1998 45.7998 28.3998Z" fill="white"/>
<path d="M38.7999 21.7998C37.5999 21.7998 36.4999 22.0998 35.5999 22.5998C37.8999 24.0998 39.2999 26.4998 39.2999 29.2998C39.2999 34.1998 34.9999 39.0998 30.8999 42.5998C31.9999 43.3998 32.7999 43.7998 32.7999 43.7998C32.7999 43.7998 45.7999 36.2998 45.7999 28.3998C45.7999 24.6998 42.6999 21.7998 38.7999 21.7998Z" fill="#D7B4ED"/>
<path d="M32.8 44.5C32.7 44.5 32.5 44.5 32.4 44.4C31.9 44.1 19 36.5 19 28.4C19 24.3 22.5 21 26.7 21C29 21 31.3 22 32.7 23.8C34.2 22.1 36.4 21 38.7 21C43 21 46.4 24.3 46.4 28.4C46.4 36.6 33.6 44.1 33 44.4C33.1 44.5 32.9 44.5 32.8 44.5ZM26.8 22.5C23.4 22.5 20.6 25.1 20.6 28.4C20.6 35 30.8 41.6 32.9 42.9C35 41.6 45.1 35 45.1 28.4C45.1 25.2 42.3 22.5 38.9 22.5C36.7 22.5 34.6 23.6 33.5 25.4C33.2 25.8 32.5 25.8 32.2 25.4C31 23.6 29 22.5 26.8 22.5Z" fill="#4F358E"/>
<path d="M61.2002 49.7998C60.9002 51.3998 59.8002 52.7998 58.3002 53.3998L45.8002 58.1998C43.3002 59.1998 40.5002 57.7998 39.7002 55.1998C39.2002 53.2998 40.2002 51.2998 42.1002 50.6998L44.6002 49.8998C51.6002 48.3998 55.7002 45.7998 58.3002 45.7998C60.7002 45.6998 61.7002 47.7998 61.2002 49.7998Z" fill="white"/>
<path d="M59.2 45.7998C58.9 47.3998 57.8 48.7998 56.3 49.2998L43.8 54.0998C42.4 54.6998 40.8 54.3998 39.6 53.5998C39.5 54.0998 39.6 54.5998 39.7 54.9998C40.4 57.5998 43.2 58.9998 45.8 57.9998L58.3 53.1998C59.9 52.5998 61 51.1998 61.2 49.5998C61.6 48.0998 60.9 46.2998 59.2 45.7998Z" fill="#D7B4ED"/>
<path d="M44.1001 59.2C43.3001 59.2 42.5001 59 41.7001 58.6C40.4001 57.9 39.4001 56.7 39.0001 55.3C38.4001 53 39.6001 50.6 41.9001 49.9L44.4001 49.1C48.1001 48.3 50.9001 47.2 53.2001 46.4C55.3001 45.6 57.0001 45 58.4001 45C59.6001 45 60.7001 45.4 61.3001 46.3C62.0001 47.2 62.3001 48.6 62.0001 49.9C61.7001 51.8 60.4001 53.4 58.6001 54.1L46.0001 58.9C45.4001 59.1 44.7001 59.2 44.1001 59.2ZM58.3001 46.5C57.2001 46.5 55.6001 47.1 53.6001 47.9C51.3001 48.8 48.4001 49.9 44.7001 50.7L42.3001 51.5C40.8001 52 39.9001 53.5 40.4001 55.1C40.7001 56.2 41.4001 57 42.4001 57.5C43.4001 58 44.5001 58 45.5001 57.7L58.0001 52.7C59.3001 52.2 60.2001 51 60.4001 49.7C60.4001 49.7 60.4001 49.7 60.4001 49.6C60.6001 48.7 60.5001 47.8 60.0001 47.2C59.7001 46.7 59.1001 46.5 58.3001 46.5Z" fill="#4F358E"/>
<path d="M63.8998 49.7002C61.9998 48.1002 56.5998 53.0002 42.6998 55.6002C44.4998 54.9002 45.1998 53.9002 45.2998 52.9002C45.5998 48.3002 41.5998 48.5002 41.5998 48.5002C21.0998 48.7002 36.6998 43.9002 8.7998 43.7002V61.7002C8.7998 61.7002 39.4998 72.1002 62.7998 54.2002C62.7998 54.3002 66.3998 51.8002 63.8998 49.7002Z" fill="white"/>
<path d="M63.8998 49.6998C63.5998 49.3998 63.0998 49.2998 62.4998 49.3998C61.8998 50.4998 60.7998 51.1998 60.7998 51.1998C41.0998 66.3998 15.9998 61.1998 8.7998 59.1998V61.5998C8.7998 61.5998 39.4998 71.9998 62.7998 54.0998C62.7998 54.2998 66.3998 51.7998 63.8998 49.6998Z" fill="#D7B4ED"/>
<path d="M29.5 65.5C17.6 65.5 8.7 62.5 8.5 62.5C8.2 62.4 8 62.1 8 61.8V43.8C8 43.6 8.1 43.4 8.2 43.3C8.4 43.1 8.6 43 8.8 43C23.9 43.1 26.5 44.6 28.8 45.9C30.7 47 32.3 47.9 41.6 47.8C41.6 47.8 43.5 47.7 44.8 49.1C45.7 50 46.1 51.4 46 53C46 53.4 45.9 53.8 45.6 54.3C51.3 53 55.3 51.3 58.1 50.2C61.3 48.9 63.1 48.1 64.4 49.2C65.4 50 65.6 50.9 65.6 51.5C65.5 53.3 63.5 54.8 63.2 54.9C52.4 63.2 39.9 65.5 29.5 65.5ZM9.6 61.2C13.7 62.4 41.3 69.9 62.4 53.7C62.9 53.4 64.1 52.3 64.1 51.4C64.1 51.3 64.1 50.8 63.5 50.3C62.9 49.8 61.2 50.6 58.8 51.6C55.5 53 50.4 55 43 56.5C42.6 56.6 42.2 56.3 42.1 56C42 55.6 42.2 55.2 42.6 55.1C43.9 54.6 44.6 53.9 44.7 53C44.8 51.7 44.5 50.8 43.9 50.2C43.1 49.4 41.8 49.4 41.8 49.4C32 49.5 30.2 48.5 28.2 47.3C26.1 46.1 23.8 44.7 9.7 44.6V61.2H9.6Z" fill="#4F358E"/>
<path d="M35.7002 57.2C33.2002 57.2 30.3002 57 27.0002 56.5C26.6002 56.4 26.3002 56.1 26.4002 55.7C26.5002 55.3 26.8002 55 27.2002 55.1C35.8002 56.2 40.2002 55.6 42.5002 54.9C42.9002 54.8 43.3002 55 43.4002 55.4C43.5002 55.8 43.3002 56.2 42.9002 56.3C41.1002 56.9 38.7002 57.2 35.7002 57.2Z" fill="#4F358E"/>
<path d="M8.7998 43.7002H0.799805V61.7002H8.7998V43.7002Z" fill="#D7B4ED"/>
<path d="M4.7998 59.7002H0.799805V43.7002H6.7998V57.7002C6.7998 58.9002 5.8998 59.7002 4.7998 59.7002Z" fill="white"/>
<path d="M8.8 62.4999H0.8C0.4 62.4999 0 62.1999 0 61.6999V43.6999C0 43.2999 0.3 42.8999 0.8 42.8999H8.8C9.2 42.8999 9.6 43.1999 9.6 43.6999V61.6999C9.6 62.1999 9.2 62.4999 8.8 62.4999ZM1.6 60.9999H8.1V44.4999H1.6V60.9999Z" fill="#4F358E"/>
<path d="M4.7998 58.7002C5.35209 58.7002 5.7998 58.2525 5.7998 57.7002C5.7998 57.1479 5.35209 56.7002 4.7998 56.7002C4.24752 56.7002 3.7998 57.1479 3.7998 57.7002C3.7998 58.2525 4.24752 58.7002 4.7998 58.7002Z" fill="#4F358E"/>
<path d="M62.9 44.4999C62.8 44.4999 62.7 44.4999 62.6 44.4999C62.2 44.3999 62 43.8999 62.2 43.4999C63.5 40.0999 64.1 36.4999 64.1 32.7999C64.1 32.0999 64.1 31.3999 64 30.6999C64 30.2999 64.3 29.8999 64.7 29.8999C65.1 29.8999 65.5 30.1999 65.5 30.5999C65.5 31.2999 65.6 32.0999 65.6 32.7999C65.6 36.6999 64.9 40.4999 63.6 44.0999C63.5 44.2999 63.2 44.4999 62.9 44.4999Z" fill="#4F358E"/>
<path d="M60.9 18.2C60.6 18.2 60.4 18.1 60.2 17.8C54.8 7.8 44.3 1.5 32.8 1.5C32.4 1.5 32 1.2 32 0.7C32 0.2 32.4 0 32.8 0C44.8 0 55.9 6.6 61.6 17.1C61.8 17.5 61.7 17.9 61.3 18.1C61.2 18.2 61.1 18.2 60.9 18.2Z" fill="#4F358E"/>
<path d="M0.8 33.5C0.4 33.5 0 33.2 0 32.7C0 21.2 6.1 10.5 16 4.6C16.4 4.4 16.8 4.5 17 4.9C17.2 5.3 17.1 5.7 16.7 5.9C7.4 11.5 1.6 21.8 1.6 32.8C1.6 33.2 1.2 33.5 0.8 33.5Z" fill="#4F358E"/>
<path d="M58.7002 39.1002C58.6002 39.1002 58.6002 39.1002 58.5002 39.1002C58.1002 39.0002 57.8002 38.6002 57.9002 38.2002C58.3002 36.4002 58.5002 34.6002 58.5002 32.7002C58.5002 26.5002 56.3002 20.5002 52.2002 15.8002C51.9002 15.5002 52.0002 15.0002 52.3002 14.7002C52.6002 14.4002 53.1002 14.5002 53.4002 14.8002C57.7002 19.7002 60.1002 26.1002 60.1002 32.6002C60.1002 34.6002 59.9002 36.5002 59.5002 38.4002C59.4002 38.9002 59.0002 39.1002 58.7002 39.1002Z" fill="#4F358E"/>
<path d="M11.8998 17.1999C11.6998 17.1999 11.5998 17.0999 11.3998 16.9999C11.0998 16.6999 10.9998 16.2999 11.2998 15.8999C16.4998 9.1999 24.2998 5.3999 32.7998 5.3999C35.0998 5.3999 37.4998 5.6999 39.6998 6.2999C40.0998 6.3999 40.2998 6.7999 40.1998 7.1999C40.0998 7.5999 39.6998 7.7999 39.2998 7.6999C37.1998 7.2999 34.9998 6.9999 32.7998 6.9999C24.7998 6.9999 17.3998 10.5999 12.4998 16.8999C12.3998 17.0999 12.0998 17.1999 11.8998 17.1999Z" fill="#4F358E"/>
<path d="M7.3001 40.7002C7.0001 40.7002 6.7001 40.5002 6.6001 40.2002C5.9001 37.8002 5.6001 35.3002 5.6001 32.8002C5.6001 31.0002 5.8001 29.2002 6.1001 27.5002C6.2001 27.1002 6.6001 26.8002 7.0001 26.9002C7.4001 27.0002 7.7001 27.4002 7.6001 27.8002C7.3001 29.4002 7.1001 31.1002 7.1001 32.8002C7.1001 35.2002 7.4001 37.6002 8.1001 39.8002C8.2001 40.2002 8.0001 40.6002 7.6001 40.7002C7.4001 40.7002 7.4001 40.7002 7.3001 40.7002Z" fill="#4F358E"/>
<path d="M64.8 24.3998H60.8C60.4 24.3998 60 24.0998 60 23.5998C60 23.1998 60.3 22.7998 60.8 22.7998H64.8C65.2 22.7998 65.6 23.0998 65.6 23.5998C65.6 24.0998 65.2 24.3998 64.8 24.3998Z" fill="#4F358E"/>
<path d="M62.8 26.3998C62.4 26.3998 62 26.0998 62 25.5998V21.5998C62 21.1998 62.3 20.7998 62.8 20.7998C63.3 20.7998 63.6 21.0998 63.6 21.5998V25.5998C63.6 26.0998 63.2 26.3998 62.8 26.3998Z" fill="#4F358E"/>
<path d="M48.8 10.3998H44.8C44.4 10.3998 44 10.0998 44 9.5998C44 9.1998 44.3 8.7998 44.8 8.7998H48.8C49.2 8.7998 49.6 9.0998 49.6 9.5998C49.5 10.0998 49.2 10.3998 48.8 10.3998Z" fill="#4F358E"/>
<path d="M46.8 12.3998C46.4 12.3998 46 12.0998 46 11.5998V7.5998C46 7.1998 46.3 6.7998 46.8 6.7998C47.2 6.7998 47.6 7.0998 47.6 7.5998V11.5998C47.5 12.0998 47.2 12.3998 46.8 12.3998Z" fill="#4F358E"/>
<path d="M25.6999 3.5H21.6999C21.2999 3.5 20.8999 3.2 20.8999 2.7C20.8999 2.2 21.2999 2 21.6999 2H25.6999C26.0999 2 26.4999 2.3 26.4999 2.8C26.4999 3.3 26.0999 3.5 25.6999 3.5Z" fill="#4F358E"/>
<path d="M23.6999 5.5C23.2999 5.5 22.8999 5.2 22.8999 4.7V0.7C22.9999 0.3 23.2999 0 23.6999 0C24.0999 0 24.4999 0.3 24.4999 0.8V4.8C24.4999 5.2 24.0999 5.5 23.6999 5.5Z" fill="#4F358E"/>
<path d="M10.6999 22.5H6.6999C6.2999 22.5 5.8999 22.2 5.8999 21.7C5.9999 21.3 6.2999 21 6.6999 21H10.6999C11.0999 21 11.4999 21.3 11.4999 21.8C11.4999 22.2 11.0999 22.5 10.6999 22.5Z" fill="#4F358E"/>
<path d="M8.7 24.5C8.3 24.5 8 24.2 8 23.7V19.7C8 19.3 8.3 19 8.7 19C9.1 19 9.5 19.3 9.5 19.8V23.8C9.5 24.2 9.1 24.5 8.7 24.5Z" fill="#4F358E"/>
</g>
<defs>
<clipPath id="clip0">
<rect width="71.1" height="72.4" fill="white"/>
</clipPath>
</defs>
</svg>
