<svg id="Режим_изоляции" data-name="Режим изоляции" xmlns="http://www.w3.org/2000/svg" viewBox="0 0 39.42 59"><defs><style>.cls-1{fill:#b75c90;}</style></defs><title>климакс</title><path class="cls-1" d="M83.63,45.5H49.71a2.51,2.51,0,0,1-2.5-2.5V38.67a.6.6,0,0,1,.6-.6H85.54a.6.6,0,0,1,.6.6V43A2.51,2.51,0,0,1,83.63,45.5ZM48.41,39.27V43a1.3,1.3,0,0,0,1.3,1.3H83.63a1.3,1.3,0,0,0,1.3-1.3V39.27Z" transform="translate(-46.96 -37.82)"/><path class="cls-1" d="M83.63,45.75H49.71A2.76,2.76,0,0,1,47,43V38.67a.85.85,0,0,1,.85-.85H85.54a.85.85,0,0,1,.85.85V43A2.76,2.76,0,0,1,83.63,45.75ZM47.81,38.32a.35.35,0,0,0-.35.35V43a2.26,2.26,0,0,0,2.25,2.25H83.63A2.26,2.26,0,0,0,85.89,43V38.67a.35.35,0,0,0-.35-.35Zm35.82,6.23H49.71A1.56,1.56,0,0,1,48.16,43V39h37v4A1.56,1.56,0,0,1,83.63,44.55Zm-35-5V43a1.05,1.05,0,0,0,1.05,1.05H83.63A1.05,1.05,0,0,0,84.69,43V39.52Z" transform="translate(-46.96 -37.82)"/><path class="cls-1" d="M85.54,96.57H47.81a.6.6,0,0,1-.6-.6V91.65a2.51,2.51,0,0,1,2.5-2.5H83.63a2.51,2.51,0,0,1,2.5,2.5V96A.6.6,0,0,1,85.54,96.57Zm-37.12-1.2H84.94V91.65a1.3,1.3,0,0,0-1.3-1.3H49.71a1.3,1.3,0,0,0-1.3,1.3Z" transform="translate(-46.96 -37.82)"/><path class="cls-1" d="M85.54,96.82H47.81A.85.85,0,0,1,47,96V91.65a2.76,2.76,0,0,1,2.75-2.75H83.63a2.76,2.76,0,0,1,2.75,2.75V96A.85.85,0,0,1,85.54,96.82ZM49.71,89.39a2.26,2.26,0,0,0-2.25,2.25V96a.35.35,0,0,0,.35.35H85.54a.35.35,0,0,0,.35-.35V91.65a2.26,2.26,0,0,0-2.25-2.25Zm35.47,6.23h-37v-4a1.55,1.55,0,0,1,1.55-1.55H83.63a1.55,1.55,0,0,1,1.55,1.55Zm-36.52-.5h36V91.65a1.05,1.05,0,0,0-1.05-1.05H49.71a1.05,1.05,0,0,0-1.05,1.05Z" transform="translate(-46.96 -37.82)"/><path class="cls-1" d="M82.57,90.34H50.78a.6.6,0,0,1-.6-.6v-3A22,22,0,0,1,61.83,67.32,22,22,0,0,1,50.18,47.94v-3a.6.6,0,0,1,.6-.6H82.57a.6.6,0,0,1,.6.6v3A22,22,0,0,1,71.52,67.32,22,22,0,0,1,83.17,86.7v3A.6.6,0,0,1,82.57,90.34Zm-31.19-1.2H82V86.7a20.81,20.81,0,0,0-12-18.84.6.6,0,0,1,0-1.09A20.81,20.81,0,0,0,82,47.94V45.5H51.38v2.44a20.81,20.81,0,0,0,12,18.84.6.6,0,0,1,0,1.09,20.81,20.81,0,0,0-12,18.84Z" transform="translate(-46.96 -37.82)"/><path class="cls-1" d="M82.57,90.59H50.78a.85.85,0,0,1-.85-.85v-3A22.16,22.16,0,0,1,61.3,67.32,22.16,22.16,0,0,1,49.93,47.94v-3a.85.85,0,0,1,.85-.85H82.57a.85.85,0,0,1,.85.85v3A22.16,22.16,0,0,1,72,67.32,22.16,22.16,0,0,1,83.42,86.7v3A.85.85,0,0,1,82.57,90.59Zm-31.79-46a.35.35,0,0,0-.35.35v3A21.66,21.66,0,0,0,61.94,67.1l.42.22-.42.22A21.66,21.66,0,0,0,50.43,86.7v3a.35.35,0,0,0,.35.35H82.57a.35.35,0,0,0,.35-.35v-3A21.66,21.66,0,0,0,71.4,67.54L71,67.32l.42-.22A21.66,21.66,0,0,0,82.92,47.94v-3a.35.35,0,0,0-.35-.35ZM82.22,89.39H51.13V86.7A21.06,21.06,0,0,1,63.32,67.64a.35.35,0,0,0,0-.64A21.06,21.06,0,0,1,51.13,47.94V45.25H82.22v2.69A21.06,21.06,0,0,1,70,67a.35.35,0,0,0,0,.64A21.06,21.06,0,0,1,82.22,86.7Zm-30.59-.5H81.72V86.7A20.56,20.56,0,0,0,69.81,68.1a.85.85,0,0,1,0-1.54,20.56,20.56,0,0,0,11.9-18.61V45.75H51.63v2.19a20.56,20.56,0,0,0,11.9,18.61.85.85,0,0,1,0,1.54A20.56,20.56,0,0,0,51.63,86.7Z" transform="translate(-46.96 -37.82)"/><path class="cls-1" d="M77.81,88.22a.6.6,0,0,1-.6-.6V85.71a11.75,11.75,0,0,0-1.79-6.19,14.29,14.29,0,0,0-8.72-6h-.05a14.28,14.28,0,0,0-8.72,6,11.75,11.75,0,0,0-1.79,6.19v1.91a.6.6,0,0,1-1.2,0V85.71a13,13,0,0,1,2-6.82,15.49,15.49,0,0,1,9.44-6.5l.17,0a.61.61,0,0,1,.29,0l.17,0a15.49,15.49,0,0,1,9.44,6.5,13,13,0,0,1,2,6.82v1.91A.6.6,0,0,1,77.81,88.22Z" transform="translate(-46.96 -37.82)"/><path class="cls-1" d="M77.81,88.47a.85.85,0,0,1-.85-.85V85.71a11.51,11.51,0,0,0-1.75-6.05,14,14,0,0,0-8.53-5.85,14,14,0,0,0-8.53,5.85,11.5,11.5,0,0,0-1.75,6.05v1.91a.85.85,0,1,1-1.7,0V85.71a13.2,13.2,0,0,1,2-6.95,15.74,15.74,0,0,1,9.59-6.61l.17,0a.84.84,0,0,1,.42,0l.17,0a15.74,15.74,0,0,1,9.59,6.61,13.21,13.21,0,0,1,2,6.95v1.91A.85.85,0,0,1,77.81,88.47ZM66.65,73.29h.09a14.56,14.56,0,0,1,8.89,6.09,12,12,0,0,1,1.83,6.32v1.91a.35.35,0,1,0,.7,0V85.71A12.71,12.71,0,0,0,76.23,79a15.24,15.24,0,0,0-9.29-6.39l-.17,0a.38.38,0,0,0-.17,0l-.17,0A15.24,15.24,0,0,0,57.12,79a12.7,12.7,0,0,0-1.93,6.69v1.91a.35.35,0,1,0,.7,0V85.71a12,12,0,0,1,1.83-6.32,14.53,14.53,0,0,1,8.87-6.08Z" transform="translate(-46.96 -37.82)"/><path class="cls-1" d="M66.67,63.93l-.15,0-.17,0a15.5,15.5,0,0,1-9.44-6.5.6.6,0,1,1,1-.63,14.29,14.29,0,0,0,8.72,6h.05a14.29,14.29,0,0,0,8.72-6,.6.6,0,1,1,1,.63A15.49,15.49,0,0,1,67,63.87l-.17,0Z" transform="translate(-46.96 -37.82)"/><path class="cls-1" d="M66.67,64.18l-.21,0-.18,0a15.75,15.75,0,0,1-9.59-6.61.85.85,0,0,1,1.44-.9,14,14,0,0,0,8.53,5.85,14,14,0,0,0,8.53-5.85.85.85,0,0,1,1.45.9,15.74,15.74,0,0,1-9.59,6.61l-.17,0ZM57.42,56.7a.35.35,0,0,0-.18.05.35.35,0,0,0-.11.48,15.25,15.25,0,0,0,9.29,6.39l.17,0a.38.38,0,0,0,.17,0l.17,0a15.24,15.24,0,0,0,9.29-6.39.35.35,0,0,0-.6-.37,14.54,14.54,0,0,1-8.87,6.08l-.06,0h-.09a14.56,14.56,0,0,1-8.9-6.09A.35.35,0,0,0,57.42,56.7Z" transform="translate(-46.96 -37.82)"/></svg>