<svg width="38" height="38" viewBox="0 0 38 38" fill="none" xmlns="http://www.w3.org/2000/svg">
<path d="M25.4939 13.04C25.4939 6.16001 19.9623 0.640015 13.0678 0.640015C6.17325 0.640015 0.641602 6.16001 0.641602 13.04C0.641602 19.36 5.37156 24.56 11.4644 25.36V29.84H7.0551V33.04H11.4644V37.44H14.6711V33.04H19.0804V29.84H14.6711V25.36C20.764 24.48 25.4939 19.28 25.4939 13.04ZM13.0678 22.08C8.01713 22.08 3.92852 18 3.92852 12.96C3.92852 7.92001 8.01713 3.92001 13.0678 3.92001C18.1184 3.92001 22.207 8.00001 22.207 13.04C22.207 18.08 18.0382 22.08 13.0678 22.08Z" fill="white"/>
<path d="M14.6709 38H11.4641C11.1435 38 10.8228 37.76 10.8228 37.36V33.6H7.05485C6.65401 33.6 6.4135 33.36 6.4135 33.04V29.84C6.4135 29.52 6.65401 29.2 7.05485 29.2H10.903V25.84C4.64979 24.72 0 19.36 0 13.04C0 5.84 5.85232 0 13.0675 0C20.2827 0 26.135 5.84 26.135 13.04C26.135 19.36 21.4852 24.8 15.3122 25.84V29.2H19.1603C19.481 29.2 19.8017 29.44 19.8017 29.84V33.04C19.8017 33.36 19.5612 33.68 19.1603 33.68H15.2321V37.52C15.2321 37.76 14.9916 38 14.6709 38ZM12.0253 36.8H14.0295V32.96C14.0295 32.64 14.27 32.32 14.6709 32.32H18.4388V30.4H14.5907C14.27 30.4 13.9494 30.16 13.9494 29.76V25.28C13.9494 24.96 14.1899 24.72 14.5105 24.72C20.443 23.92 24.8523 18.88 24.8523 13.04C24.8523 6.56 19.5612 1.2 12.9873 1.2C6.4135 1.2 1.20253 6.48 1.20253 13.04C1.20253 18.96 5.61181 24 11.4641 24.72C11.7848 24.72 12.0253 25.04 12.0253 25.28V29.76C12.0253 30.08 11.7848 30.4 11.384 30.4H7.61603V32.4H11.4641C11.7848 32.4 12.1055 32.64 12.1055 33.04V36.8H12.0253ZM13.0675 22.72C7.6962 22.72 3.36709 18.4 3.36709 13.04C3.36709 7.68 7.6962 3.36 13.0675 3.36C18.4388 3.36 22.7679 7.68 22.7679 13.04C22.7679 18.32 18.3586 22.72 13.0675 22.72ZM13.0675 4.48C8.33755 4.48 4.56962 8.32 4.56962 12.96C4.56962 17.6 8.41772 21.44 13.0675 21.44C17.7975 21.44 21.5654 17.6 21.5654 12.96C21.5654 8.32 17.7173 4.48 13.0675 4.48Z" fill="#7F5C93"/>
<path d="M37.3591 31.68V28.48H35.916C35.6755 27.84 35.5954 27.76 35.3549 27.12L36.3169 26.16L34.0722 23.92L33.1101 24.88C32.4688 24.64 32.3886 24.56 31.7473 24.32V22.88H28.5405V24.32C27.8992 24.56 27.819 24.64 27.1777 24.88L26.2156 23.92L23.9709 26.16L24.9329 27.12C24.6924 27.76 24.6123 27.84 24.3717 28.48H22.9287V31.68H24.3717C24.6123 32.32 24.6924 32.4 24.9329 33.04L23.9709 34L26.2156 36.24L27.1777 35.28C27.819 35.52 27.8992 35.6 28.5405 35.84V37.28H31.7473V35.84C32.3886 35.6 32.4688 35.52 33.1101 35.28L34.0722 36.24L36.3169 34L35.3549 33.04C35.5954 32.4 35.6755 32.32 35.916 31.68H37.3591ZM30.1439 32.48C28.781 32.48 27.7388 31.44 27.7388 30.08C27.7388 28.72 28.781 27.68 30.1439 27.68C31.5068 27.68 32.549 28.72 32.549 30.08C32.549 31.44 31.5068 32.48 30.1439 32.48Z" fill="white"/>
</svg>
