<svg width="36" height="37" viewBox="0 0 36 37" fill="none" xmlns="http://www.w3.org/2000/svg">
<g clip-path="url(#clip0)">
<path d="M11.9133 33.544L3.76208 26.7357C2.0809 25.3315 1.85429 22.807 3.25851 21.1259L17.7262 3.80462C19.1304 2.12344 21.6548 1.89683 23.336 3.30104L31.4872 10.1094C33.1683 11.5136 33.395 14.038 31.9907 15.7192L17.5231 33.0404C16.1189 34.7216 13.5944 34.9482 11.9133 33.544Z" fill="white"/>
<path d="M11.6152 33.9007L3.46397 27.0923C1.57901 25.5179 1.27628 22.6705 2.89326 20.7346L17.3609 3.41331C18.9354 1.52835 21.7403 1.27656 23.6762 2.89353L31.8273 9.70185C33.7123 11.2763 34.015 14.1237 32.3981 16.0596L17.9304 33.3809C16.305 35.2233 13.5001 35.4751 11.6152 33.9007ZM23.0379 3.65771C21.5605 2.4237 19.3166 2.62513 18.0826 4.10253L3.61488 21.4238C2.38087 22.9012 2.5823 25.1451 4.0597 26.3791L12.2109 33.1874C13.6883 34.4214 15.9322 34.22 17.1662 32.7426L31.6339 15.4214C32.8679 13.944 32.6665 11.7 31.1891 10.466L23.0379 3.65771Z" fill="#AC5DAC"/>
<path d="M12.9436 24.0266C12.3832 23.5585 12.3077 22.717 12.7757 22.1566L20.4351 12.9865C20.9032 12.4262 21.7446 12.3506 22.305 12.8187C22.8654 13.2868 22.941 14.1282 22.4729 14.6886L14.8135 23.8587C14.3455 24.4191 13.504 24.4946 12.9436 24.0266Z" fill="white"/>
<path d="M12.6459 24.3831C11.8817 23.7449 11.7301 22.5804 12.4109 21.7652L20.0703 12.5952C20.7085 11.831 21.8731 11.6793 22.6882 12.3602C23.4523 12.9984 23.604 14.163 22.9232 14.9781L15.2638 24.1481C14.532 24.9207 13.4101 25.0214 12.6459 24.3831ZM22.0073 13.1753C21.6507 12.8774 21.0897 12.9278 20.7919 13.2844L13.1325 22.4545C12.8347 22.8111 12.885 23.3721 13.2416 23.6699C13.5982 23.9678 14.1592 23.9174 14.4571 23.5608L22.1165 14.3907C22.3634 13.9916 22.313 13.4306 22.0073 13.1753Z" fill="#AC5DAC"/>
<path d="M5.46428 24.6979C6.027 25.1679 6.8642 25.0928 7.33422 24.5301C7.80423 23.9673 7.72908 23.1301 7.16636 22.6601C6.60364 22.1901 5.76644 22.2653 5.29642 22.828C4.82641 23.3907 4.90156 24.2279 5.46428 24.6979Z" fill="white"/>
<path d="M5.16618 25.0546C4.402 24.4163 4.25034 23.2518 4.93117 22.4367C5.61201 21.6216 6.69142 21.5718 7.50653 22.2526C8.27071 22.8909 8.42237 24.0554 7.74153 24.8705C7.0607 25.6856 5.93035 25.6929 5.16618 25.0546ZM6.86825 23.0168C6.51164 22.7189 5.95066 22.7693 5.6528 23.1259C5.35493 23.4825 5.40529 24.0435 5.7619 24.3414C6.11012 24.5457 6.67111 24.4954 6.92642 24.1897C7.22428 23.8331 7.17392 23.2721 6.86825 23.0168Z" fill="#AC5DAC"/>
<path d="M8.8676 20.6224C9.43032 21.0924 10.2675 21.0172 10.7375 20.4545C11.2076 19.8918 11.1324 19.0546 10.5697 18.5846C10.007 18.1145 9.16976 18.1897 8.69974 18.7524C8.22973 19.3151 8.30488 20.1523 8.8676 20.6224Z" fill="white"/>
<path d="M8.57047 20.9789C7.8063 20.3406 7.65464 19.1761 8.33547 18.361C8.97375 17.5968 10.0957 17.4961 10.9108 18.1769C11.675 18.8152 11.8267 19.9797 11.1458 20.7948C10.4566 21.5165 9.33465 21.6172 8.57047 20.9789ZM10.2726 18.9411C9.91594 18.6432 9.35496 18.6936 9.05709 19.0502C8.75923 19.4068 8.80959 19.9678 9.1662 20.2657C9.51442 20.47 10.0754 20.4197 10.3307 20.114C10.6286 19.7574 10.5782 19.1964 10.2726 18.9411Z" fill="#AC5DAC"/>
<path d="M12.6977 16.0373C13.2604 16.5073 14.0976 16.4321 14.5676 15.8694C15.0376 15.3067 14.9625 14.4695 14.3998 13.9995C13.837 13.5295 12.9998 13.6046 12.5298 14.1673C12.0598 14.7301 12.135 15.5673 12.6977 16.0373Z" fill="white"/>
<path d="M12.3996 16.3939C11.6354 15.7557 11.4837 14.5911 12.1646 13.776C12.8454 12.9609 13.9248 12.9111 14.7399 13.592C15.5041 14.2302 15.6558 15.3948 14.9749 16.2099C14.2941 17.025 13.1637 17.0322 12.3996 16.3939ZM14.1017 14.3561C13.745 14.0583 13.1841 14.1086 12.8862 14.4652C12.5883 14.8219 12.6387 15.3828 12.9953 15.6807C13.3435 15.8851 13.9045 15.8347 14.1598 15.529C14.4577 15.1724 14.4073 14.6115 14.1017 14.3561Z" fill="#AC5DAC"/>
<path d="M16.5278 11.4523C17.0905 11.9223 17.9277 11.8472 18.3977 11.2845C18.8677 10.7217 18.7926 9.88453 18.2298 9.41452C17.6671 8.9445 16.8299 9.01965 16.3599 9.58237C15.8899 10.1451 15.965 10.9823 16.5278 11.4523Z" fill="white"/>
<path d="M16.2297 11.8089C15.4655 11.1706 15.3138 10.0061 15.9947 9.19094C16.6755 8.37582 17.7549 8.32605 18.57 9.00688C19.3342 9.64516 19.4858 10.8097 18.805 11.6248C18.1242 12.4399 16.9938 12.4471 16.2297 11.8089ZM17.9317 9.77106C17.5751 9.47319 17.0141 9.52355 16.7163 9.88017C16.4184 10.2368 16.4688 10.7978 16.8254 11.0956C17.1736 11.3 17.7346 11.2496 17.9899 10.944C18.2878 10.5874 18.2374 10.0264 17.9317 9.77106Z" fill="#AC5DAC"/>
<path d="M19.9321 7.37663C20.4948 7.84664 21.332 7.77149 21.802 7.20877C22.272 6.64605 22.1969 5.80885 21.6341 5.33883C21.0714 4.86882 20.2342 4.94397 19.7642 5.50669C19.2942 6.06941 19.3693 6.90661 19.9321 7.37663Z" fill="white"/>
<path d="M19.6339 7.73329C18.8188 7.05246 18.7181 5.9305 19.3564 5.16632C19.9947 4.40215 21.1592 4.25049 21.9743 4.93132C22.7385 5.5696 22.8901 6.73412 22.2093 7.54924C21.5285 8.36435 20.3981 8.37157 19.6339 7.73329ZM21.336 5.6955C20.9794 5.39763 20.4184 5.44799 20.1206 5.8046C19.8653 6.11027 19.9156 6.67125 20.2722 6.96912C20.5779 7.22443 21.1389 7.17407 21.3942 6.8684C21.6921 6.51179 21.6417 5.95081 21.336 5.6955Z" fill="#AC5DAC"/>
<path d="M24.0072 10.7808C24.57 11.2508 25.4072 11.1757 25.8772 10.6129C26.3472 10.0502 26.272 9.21302 25.7093 8.74301C25.1466 8.27299 24.3094 8.34814 23.8394 8.91087C23.3694 9.47359 23.4445 10.3108 24.0072 10.7808Z" fill="white"/>
<path d="M23.7091 11.1375C22.945 10.4992 22.7933 9.33467 23.4741 8.51955C24.155 7.70444 25.2344 7.65467 26.0495 8.3355C26.8137 8.97378 26.9653 10.1383 26.2845 10.9534C25.6037 11.7685 24.4733 11.7757 23.7091 11.1375ZM25.4112 9.09967C25.0546 8.80181 24.4936 8.85216 24.1958 9.20878C23.8979 9.56539 23.9483 10.1264 24.3049 10.4242C24.6531 10.6286 25.2141 10.5782 25.4694 10.2726C25.7672 9.91596 25.7169 9.35498 25.4112 9.09967Z" fill="#AC5DAC"/>
<path d="M28.0824 14.185C28.6452 14.655 29.4824 14.5798 29.9524 14.0171C30.4224 13.4544 30.3472 12.6172 29.7845 12.1472C29.2218 11.6772 28.3846 11.7523 27.9146 12.315C27.4446 12.8778 27.5197 13.715 28.0824 14.185Z" fill="white"/>
<path d="M27.7853 14.5416C27.0211 13.9034 26.8695 12.7388 27.5503 11.9237C28.2311 11.1086 29.3106 11.0588 30.1257 11.7397C30.8898 12.378 31.0415 13.5425 30.3607 14.3576C29.6798 15.1727 28.5495 15.1799 27.7853 14.5416ZM29.4874 12.5038C29.1308 12.206 28.5698 12.2563 28.2719 12.613C27.9741 12.9696 28.0244 13.5305 28.381 13.8284C28.7293 14.0328 29.2902 13.9824 29.5456 13.6768C29.8434 13.3201 29.7931 12.7592 29.4874 12.5038Z" fill="#AC5DAC"/>
<path d="M9.53947 28.1021C10.1022 28.5721 10.9394 28.497 11.4094 27.9342C11.8794 27.3715 11.8043 26.5343 11.2416 26.0643C10.6788 25.5943 9.84163 25.6694 9.37162 26.2322C8.9016 26.7949 8.97675 27.6321 9.53947 28.1021Z" fill="white"/>
<path d="M9.24179 28.4587C8.47762 27.8204 8.32596 26.6559 9.00679 25.8408C9.68762 25.0256 10.8096 24.9249 11.6247 25.6058C12.3889 26.244 12.5405 27.4086 11.8597 28.2237C11.1789 29.0388 10.006 29.097 9.24179 28.4587ZM10.9439 26.4209C10.5873 26.123 10.0263 26.1734 9.72841 26.53C9.43055 26.8866 9.4809 27.4476 9.83752 27.7454C10.1941 28.0433 10.7551 27.993 11.053 27.6363C11.2999 27.2372 11.2495 26.6762 10.9439 26.4209Z" fill="#AC5DAC"/>
<path d="M13.6147 31.5063C14.1774 31.9763 15.0146 31.9011 15.4846 31.3384C15.9546 30.7757 15.8795 29.9385 15.3167 29.4685C14.754 28.9985 13.9168 29.0736 13.4468 29.6363C12.9768 30.1991 13.0519 31.0363 13.6147 31.5063Z" fill="white"/>
<path d="M13.317 31.8628C12.5528 31.2246 12.4012 30.0601 13.082 29.2449C13.7628 28.4298 14.8848 28.3291 15.6999 29.0099C16.4641 29.6482 16.6157 30.8127 15.9349 31.6278C15.2541 32.443 14.0812 32.5011 13.317 31.8628ZM15.0191 29.8251C14.6624 29.5272 14.1015 29.5775 13.8036 29.9342C13.5057 30.2908 13.5561 30.8518 13.9127 31.1496C14.2693 31.4475 14.8303 31.3971 15.1282 31.0405C15.3751 30.6413 15.3247 30.0804 15.0191 29.8251Z" fill="#AC5DAC"/>
<path d="M17.019 27.4307C17.5817 27.9007 18.4189 27.8256 18.8889 27.2628C19.3589 26.7001 19.2838 25.8629 18.721 25.3929C18.1583 24.9229 17.3211 24.998 16.8511 25.5608C16.3811 26.1235 16.4562 26.9607 17.019 27.4307Z" fill="white"/>
<path d="M16.7213 27.7873C15.9571 27.149 15.8054 25.9845 16.4863 25.1694C17.1246 24.4052 18.2891 24.2535 19.1042 24.9344C19.8684 25.5727 20.02 26.7372 19.3392 27.5523C18.6074 28.3249 17.4855 28.4256 16.7213 27.7873ZM18.4234 25.7495C18.0667 25.4516 17.5058 25.502 17.2079 25.8586C16.91 26.2152 16.9604 26.7762 17.317 27.0741C17.6736 27.3719 18.2346 27.3216 18.5325 26.965C18.7794 26.5658 18.729 26.0048 18.4234 25.7495Z" fill="#AC5DAC"/>
<path d="M20.849 22.8456C21.4118 23.3156 22.249 23.2405 22.719 22.6778C23.189 22.115 23.1138 21.2778 22.5511 20.8078C21.9884 20.3378 21.1512 20.413 20.6812 20.9757C20.2112 21.5384 20.2863 22.3756 20.849 22.8456Z" fill="white"/>
<path d="M20.5514 23.2022C19.7872 22.5639 19.6355 21.3994 20.3164 20.5843C20.9972 19.7692 22.1192 19.6685 22.9343 20.3493C23.6984 20.9876 23.8501 22.1521 23.1693 22.9672C22.4884 23.7823 21.3155 23.8405 20.5514 23.2022ZM22.2534 21.1644C21.8968 20.8665 21.3358 20.9169 21.038 21.2735C20.7401 21.6301 20.7905 22.1911 21.1471 22.489C21.5037 22.7868 22.0647 22.7365 22.3625 22.3799C22.6095 21.9807 22.5591 21.4197 22.2534 21.1644Z" fill="#AC5DAC"/>
<path d="M24.6781 18.2605C25.2409 18.7306 26.0781 18.6554 26.5481 18.0927C27.0181 17.53 26.9429 16.6928 26.3802 16.2227C25.8175 15.7527 24.9803 15.8279 24.5103 16.3906C24.0403 16.9533 24.1154 17.7905 24.6781 18.2605Z" fill="white"/>
<path d="M24.3805 18.6171C23.6163 17.9788 23.4646 16.8143 24.1455 15.9992C24.8263 15.1841 25.9483 15.0834 26.7634 15.7642C27.5275 16.4025 27.6792 17.567 26.9984 18.3821C26.3175 19.1972 25.1446 19.2554 24.3805 18.6171ZM26.0825 16.5793C25.7259 16.2815 25.1649 16.3318 24.8671 16.6884C24.5692 17.045 24.6196 17.606 24.9762 17.9039C25.3328 18.2018 25.8938 18.1514 26.1916 17.7948C26.4386 17.3956 26.3882 16.8346 26.0825 16.5793Z" fill="#AC5DAC"/>
</g>
<defs>
<clipPath id="clip0">
<rect width="19.5815" height="31.5296" fill="white" transform="translate(20.2119) rotate(39.8705)"/>
</clipPath>
</defs>
</svg>
