<svg width="39" height="42" viewBox="0 0 39 42" fill="none" xmlns="http://www.w3.org/2000/svg">
<path d="M19.4835 38.6213C10.453 38.6213 3.14258 30.7049 3.14258 20.9999C3.14258 11.2948 10.4861 3.37842 19.4835 3.37842C28.5141 3.37842 35.8245 11.2617 35.8245 20.9999C35.8576 30.7049 28.5141 38.6213 19.4835 38.6213ZM19.4835 4.76959C11.2138 4.76959 4.49881 12.0567 4.49881 20.9999C4.49881 29.9431 11.2138 37.2302 19.4835 37.2302C27.7533 37.2302 34.4683 29.9431 34.4683 20.9999C34.4683 12.0567 27.7533 4.76959 19.4835 4.76959Z" fill="#AC5DAC"/>
<path d="M34.6337 20.5032C33.5421 20.5032 32.6159 19.8739 31.7228 19.2776C30.8297 18.6814 30.0027 18.1183 29.0434 18.1183C27.0256 18.1183 25.6694 20.2051 25.6363 20.2382L24.4785 19.4764C24.5447 19.377 26.2648 16.7272 29.0434 16.7272C30.4327 16.7272 31.5243 17.4559 32.5167 18.1183C33.3767 18.7146 34.1375 19.2114 34.9314 19.0789L35.163 20.437C34.9314 20.5032 34.766 20.5032 34.6337 20.5032Z" fill="#AC5DAC"/>
<path d="M30.0361 24.511C29.6061 24.2791 29.0768 24.2129 28.5806 24.3454C28.2167 23.1861 27.7536 22.0599 27.2575 21.2318C26.1659 19.3438 25.0743 18.3501 23.9165 18.1845C25.4712 16.9921 26.1989 15.2697 26.0335 13.0504C25.802 9.37377 22.7918 6.49207 19.1862 6.49207C17.1353 6.49207 15.3491 7.15453 14.1582 8.38008C13.0335 9.53938 12.4712 11.1955 12.5704 13.1167C12.6366 14.6403 12.0081 15.2365 11.0157 16.164C10.1557 16.9921 9.06408 18.052 8.43558 20.0394C6.64932 25.7697 8.10479 29.4463 9.6595 31.5331C11.5781 34.1498 14.8198 35.7397 18.0946 35.7397C18.4254 35.7397 18.7562 35.7066 19.087 35.6735C21.3033 35.4416 23.5526 33.9179 24.7435 31.8312C25.1735 31.0694 25.5704 30.0757 25.6366 28.8832C26.0666 29.347 26.4966 29.7776 26.8605 29.9432L26.8936 29.9763C27.1582 30.1419 27.4559 30.2082 27.7867 30.2082C28.7791 30.2082 29.8045 29.4794 30.4661 28.3533C30.8631 27.6577 31.0615 26.8959 30.9954 26.2003C30.9954 25.4716 30.6315 24.8422 30.0361 24.511ZM29.3083 27.7239C28.8783 28.4858 28.2498 28.8832 27.8529 28.8832C27.7536 28.8832 27.6875 28.8501 27.5882 28.817L27.5552 28.7839C27.0259 28.552 25.8351 26.929 25.0081 25.5709L23.7842 26.2334C24.7765 28.4195 24.2473 30.1419 23.6188 31.2018C22.6595 32.858 20.774 34.1498 19.0208 34.3485C18.7562 34.3817 18.4585 34.3817 18.1608 34.3817C15.2829 34.3817 12.4712 32.9905 10.8173 30.705C9.46102 28.8832 8.20403 25.6041 9.79181 20.4369C10.288 18.7807 11.1811 17.9526 12.0081 17.1577C13.0005 16.1971 14.059 15.2034 13.9598 13.0504C13.8936 11.4605 14.2905 10.235 15.1837 9.30752C16.1099 8.34696 17.5323 7.81699 19.2193 7.81699C22.0972 7.81699 24.4788 10.1356 24.6773 13.0835C24.8096 15.4353 23.8173 16.9921 21.6341 17.8864L21.204 18.4826V18.6151C21.5679 18.317 21.9979 18.2507 22.5272 18.6813C22.7918 18.8801 22.8249 19.3107 22.7918 19.8738C23.0564 19.6419 23.3542 19.5094 23.6188 19.5094C24.3134 19.5094 25.2066 20.3375 26.0666 21.8612C26.5959 22.8548 27.1251 24.2129 27.4559 25.4716L28.5145 25.869C28.8452 25.6372 29.176 25.5709 29.3745 25.7034C29.6061 25.8359 29.6722 26.2003 29.6722 26.3328C29.6722 26.7634 29.5399 27.2602 29.3083 27.7239Z" fill="#AC5DAC"/>
<path d="M18.922 26.3659C16.7057 26.3659 13.3978 24.2791 12.3724 23.5173L13.1993 22.3911C14.4233 23.3186 17.4004 25.0078 18.9551 24.9747C19.3851 24.9747 20.2782 24.1135 21.1052 22.5899C22.0314 20.8675 22.2299 19.4763 22.0645 19.2113C21.9322 19.1119 21.8329 19.0788 21.7668 19.0788C21.5352 19.1119 21.1052 19.7744 20.8075 20.205C20.2782 21 19.6828 21.9274 18.7566 22.2918C17.3342 22.8217 16.1434 21.6624 15.0848 20.6025C14.4233 19.94 13.6955 19.2113 13.1663 19.2444C12.9678 19.2444 12.7693 19.4101 12.5378 19.7082L11.4131 18.8801C11.8762 18.2507 12.4385 17.9195 13.067 17.8533C14.1917 17.7539 15.151 18.7145 16.0441 19.6088C16.838 20.4037 17.665 21.2318 18.2604 21C18.7897 20.8012 19.2528 20.0725 19.6497 19.4432C20.179 18.6151 20.7083 17.8201 21.5683 17.6877C22.0314 17.6214 22.4945 17.7539 22.9576 18.1514C23.7846 18.8138 23.4869 20.3044 23.123 21.4306C22.4945 23.3186 20.7744 26.2996 18.9882 26.3328C18.9551 26.3659 18.922 26.3659 18.922 26.3659Z" fill="#AC5DAC"/>
<path d="M16.6387 28.784L15.3486 28.2871C15.7125 27.3266 16.7049 25.5379 16.771 25.4717L17.9949 26.1341C17.9619 26.1341 16.9695 27.9228 16.6387 28.784Z" fill="#AC5DAC"/>
<path d="M19.4835 42C8.73282 42 0 32.5931 0 21C0 9.40694 8.73282 0 19.4835 0C30.2341 0 38.9669 9.40694 38.9669 21C39 32.5931 30.2341 42 19.4835 42ZM19.4835 1.39117C9.49364 1.39117 1.38931 10.2019 1.38931 21C1.38931 31.8312 9.52672 40.6088 19.5165 40.6088C29.5064 40.6088 37.6438 31.7981 37.6438 21C37.6107 10.2019 29.4733 1.39117 19.4835 1.39117Z" fill="#AC5DAC"/>
</svg>
