<svg width="37" height="37" viewBox="0 0 37 37" fill="none" xmlns="http://www.w3.org/2000/svg">
<g clip-path="url(#clip0)">
<path d="M23.9915 25.5495C30.8747 25.5495 36.4546 19.9695 36.4546 13.0863C36.4546 6.20311 30.8747 0.623169 23.9915 0.623169C17.1083 0.623169 11.5283 6.20311 11.5283 13.0863C11.5283 19.9695 17.1083 25.5495 23.9915 25.5495Z" fill="white"/>
<path d="M23.9916 26.0947C16.7474 26.0947 10.9053 20.2526 10.9053 13.0863C10.9053 5.92 16.7474 0 23.9916 0C31.1579 0 37 5.8421 37 13.0863C37 20.3305 31.1579 26.0947 23.9916 26.0947ZM23.9916 1.16842C17.4484 1.16842 12.0737 6.46526 12.0737 13.0863C12.0737 19.7074 17.3705 24.9263 23.9916 24.9263C30.5347 24.9263 35.8316 19.6295 35.8316 13.0863C35.8316 6.54316 30.5347 1.16842 23.9916 1.16842Z" fill="#AC5DAC"/>
<path d="M23.991 20.0969C27.8628 20.0969 31.0015 16.9581 31.0015 13.0863C31.0015 9.21452 27.8628 6.07581 23.991 6.07581C20.1192 6.07581 16.9805 9.21452 16.9805 13.0863C16.9805 16.9581 20.1192 20.0969 23.991 20.0969Z" fill="white"/>
<path d="M23.9911 20.6421C19.7848 20.6421 16.3574 17.2147 16.3574 13.0084C16.3574 8.80211 19.7848 5.45264 23.9911 5.45264C28.1974 5.45264 31.6248 8.88 31.6248 13.0863C31.6248 17.2926 28.1195 20.6421 23.9911 20.6421ZM23.9911 6.62106C20.4858 6.62106 17.5258 9.50316 17.5258 13.0863C17.5258 16.6695 20.4079 19.5516 23.9911 19.5516C27.4964 19.5516 30.4564 16.6695 30.4564 13.0863C30.4564 9.50316 27.4964 6.62106 23.9911 6.62106Z" fill="#AC5DAC"/>
<path d="M17.9153 37C17.7595 37 17.6037 36.9221 17.5258 36.8443C17.2922 36.6106 17.2922 36.2211 17.5258 35.9874C17.6037 35.9095 17.7595 35.7537 17.8374 35.6758C18.0711 35.4421 18.3827 35.3643 18.6943 35.5979C18.928 35.8316 19.0058 36.1432 18.7722 36.4548C18.6943 36.6106 18.5385 36.7664 18.3827 36.8443C18.2269 36.9221 18.0711 37 17.9153 37ZM19.4732 34.5853C19.3953 34.5853 19.2395 34.5853 19.1616 34.5074C18.8501 34.3516 18.7722 33.9621 18.928 33.7285C19.2395 33.1832 19.5511 32.7937 19.9406 32.4043C20.6416 31.7032 21.2648 31.3916 21.888 31.08C22.4332 30.7685 22.9785 30.4569 23.5237 29.9895C24.6143 28.899 25.2374 27.2632 25.2374 27.2632C25.3153 26.9516 25.7048 26.7958 26.0164 26.9516C26.328 27.0295 26.4837 27.419 26.328 27.7306C26.328 27.8085 25.6269 29.6 24.3027 30.9243C23.6016 31.6253 22.9785 31.9369 22.3553 32.2485C21.8101 32.56 21.2648 32.8716 20.7195 33.339C20.408 33.6506 20.1743 33.9621 19.9406 34.4295C19.8627 34.5074 19.629 34.5853 19.4732 34.5853Z" fill="#AC5DAC"/>
<path d="M30.3009 26.4064C29.0546 27.6527 26.4841 28.8211 25.5493 27.8864C24.6146 26.9516 25.783 24.3032 27.0293 23.1348C28.2757 21.8885 29.9893 21.6548 30.8462 22.5895C31.7809 23.4464 31.4693 25.1601 30.3009 26.4064Z" fill="white"/>
<path d="M26.4837 28.7431C25.9384 28.7431 25.4711 28.5873 25.0816 28.2758C24.5363 27.7305 24.4584 26.64 24.8479 25.3937C25.2374 24.381 25.8605 23.3684 26.4837 22.6673C27.2627 21.8884 28.3532 21.421 29.2879 21.421C29.989 21.421 30.69 21.6547 31.1574 22.1221C31.7027 22.6673 32.0142 23.5242 31.8584 24.4589C31.7027 25.3158 31.3132 26.1726 30.6121 26.7958C29.7553 27.8084 27.8858 28.7431 26.4837 28.7431ZM29.3658 22.5894C28.6648 22.5894 27.9637 22.901 27.3405 23.5242C26.7953 24.0694 26.25 25.0042 25.9384 25.7831C25.6269 26.5621 25.6269 27.1852 25.8605 27.4189C26.0163 27.5747 26.25 27.5747 26.4058 27.5747C27.3405 27.5747 28.8984 26.7958 29.8332 25.9389C30.3005 25.4715 30.69 24.8484 30.7679 24.2252C30.8458 23.68 30.69 23.2126 30.3784 22.901C30.0669 22.6673 29.6774 22.5894 29.3658 22.5894Z" fill="#AC5DAC"/>
<path d="M0.622982 18.4611C0.389297 18.4611 0.155613 18.3053 0.0777185 18.0716C-0.078071 17.7601 0.0777185 17.4485 0.389297 17.2927C1.24614 16.9032 1.7914 16.9032 2.25877 16.8253C2.72614 16.7474 3.11561 16.7474 3.81667 16.4358C5.21877 15.8127 6.46509 14.5664 6.46509 14.5664C6.69877 14.3327 7.08825 14.3327 7.32193 14.5664C7.55561 14.8001 7.55561 15.1895 7.32193 15.4232C7.24403 15.5011 5.91982 16.9032 4.28403 17.6043C3.3493 17.9158 2.88193 17.9158 2.41456 17.9937C1.94719 18.0716 1.55772 18.0716 0.856666 18.3832C0.700877 18.4611 0.622982 18.4611 0.622982 18.4611Z" fill="#AC5DAC"/>
<path d="M11.4501 15.7348C9.89217 16.3579 7.01006 16.4358 6.4648 15.2674C5.99743 14.099 8.02269 12.0737 9.65848 11.4506C11.2164 10.8274 12.9301 11.2169 13.3974 12.3853C13.9427 13.5537 13.008 15.1116 11.4501 15.7348Z" fill="white"/>
<path d="M8.87958 16.8253C7.32168 16.8253 6.23116 16.358 5.91958 15.5011C5.608 14.7222 5.91958 13.7874 6.85431 12.7748C7.55537 11.9959 8.568 11.2948 9.42484 10.9053C9.9701 10.6716 10.5933 10.5938 11.1385 10.5938C12.4627 10.5938 13.5533 11.2169 13.9427 12.2295C14.5659 13.7095 13.5533 15.579 11.6059 16.358C10.9048 16.5916 9.81431 16.8253 8.87958 16.8253ZM11.1385 11.6843C10.7491 11.6843 10.2817 11.7622 9.89221 11.918C9.19116 12.2295 8.33431 12.8527 7.71116 13.4759C7.16589 14.099 6.85431 14.6443 7.0101 14.9559C7.16589 15.2674 7.78905 15.5011 8.87958 15.5011C9.65852 15.5011 10.5933 15.3453 11.2164 15.1116C12.4627 14.5664 13.2417 13.398 12.8522 12.5411C12.6185 12.0737 11.9954 11.6843 11.1385 11.6843Z" fill="#AC5DAC"/>
<path d="M0.623331 37C0.467541 37 0.311752 36.9221 0.233857 36.8442C0.000172701 36.6105 0.000172701 36.221 0.233857 35.9873C0.311752 35.9094 0.389646 35.7536 0.545436 35.6757C0.77912 35.4421 1.16859 35.4421 1.40228 35.5978C1.55807 35.8315 1.55807 36.221 1.32438 36.4547C1.24649 36.6105 1.0907 36.6884 1.0128 36.8442C0.857015 36.9221 0.701225 37 0.623331 37ZM2.33701 34.8189C2.18123 34.8189 2.10333 34.741 1.94754 34.6631C1.71386 34.4294 1.63596 34.1178 1.86965 33.8063L2.18123 33.4947C2.96017 32.4821 3.73912 31.5473 4.36228 30.8463C5.06333 30.1452 5.68649 29.8336 6.30965 29.5221C6.85491 29.2105 7.40017 28.8989 7.94544 28.4315C9.03596 27.341 9.65912 25.7052 9.65912 25.7052C9.73701 25.3936 10.1265 25.2378 10.4381 25.3936C10.7496 25.4715 10.9054 25.861 10.7496 26.1726C10.7496 26.2505 10.0486 28.0421 8.72438 29.3663C8.02333 30.0673 7.40017 30.3789 6.77701 30.6905C6.23175 30.9242 5.76438 31.1578 5.21912 31.7031C4.67386 32.2484 3.89491 33.261 3.19386 34.1957L2.88228 34.5852C2.72649 34.741 2.5707 34.8189 2.33701 34.8189Z" fill="#AC5DAC"/>
<path d="M14.7218 24.8484C13.4755 26.0947 10.905 27.2631 9.97024 26.3284C9.0355 25.3937 10.2039 22.7452 11.4502 21.5768C12.6966 20.3305 14.4102 20.0968 15.2671 21.0316C16.2018 21.8884 15.8902 23.6021 14.7218 24.8484Z" fill="white"/>
<path d="M10.9046 27.1853C10.3593 27.1853 9.89197 27.0295 9.5025 26.7179C8.95723 26.1726 8.87934 25.0821 9.26881 23.8358C9.65829 22.8232 10.2814 21.8105 10.9046 21.1095C11.6835 20.3305 12.7741 19.8632 13.7088 19.8632C14.4099 19.8632 15.1109 20.0968 15.5783 20.5642C16.1235 21.1095 16.4351 21.9663 16.2793 22.9011C16.1235 23.7579 15.7341 24.6147 15.033 25.2379C14.1762 26.2505 12.3067 27.1853 10.9046 27.1853ZM13.7867 21.0316C13.0857 21.0316 12.3846 21.3432 11.7614 21.9663C11.2162 22.5116 10.6709 23.4463 10.3593 24.2253C10.0478 25.0042 10.0478 25.6274 10.2814 25.8611C10.4372 26.0168 10.6709 26.0168 10.8267 26.0168C11.7614 26.0168 13.3193 25.2379 14.2541 24.3811C14.7214 23.9137 15.1109 23.2905 15.1888 22.6674C15.2667 22.1221 15.1109 21.6547 14.7993 21.3432C14.4878 21.1095 14.0983 21.0316 13.7867 21.0316Z" fill="#AC5DAC"/>
<path d="M27.8863 13.6315C27.5747 13.6315 27.2631 13.3979 27.2631 13.0084C27.2631 12.1515 26.9515 11.3726 26.4063 10.7494C26.1726 10.5157 26.1726 10.1263 26.4063 9.89259C26.64 9.65891 27.0294 9.65891 27.2631 9.89259C28.0421 10.7494 28.4315 11.7621 28.4315 12.9305C28.4315 13.3979 28.1978 13.6315 27.8863 13.6315ZM20.0968 13.6315C19.7852 13.6315 19.4736 13.3979 19.4736 13.0084C19.4736 11.4505 20.2526 10.0484 21.4989 9.26943C21.8105 9.11364 22.1221 9.19154 22.2778 9.42522C22.4336 9.65891 22.3557 10.0484 22.1221 10.2042C21.1873 10.8273 20.5642 11.84 20.5642 13.0084C20.6421 13.3979 20.4084 13.6315 20.0968 13.6315ZM24.8484 9.8147C24.7705 9.8147 24.7705 9.8147 24.6926 9.8147C24.4589 9.7368 24.2252 9.7368 24.0694 9.7368C23.7578 9.7368 23.5242 9.42522 23.5242 9.11364C23.5242 8.80206 23.8357 8.49049 24.1473 8.56838C24.4589 8.56838 24.7705 8.64628 25.0042 8.64628C25.3157 8.72417 25.5494 9.03575 25.4715 9.34733C25.3157 9.65891 25.0821 9.8147 24.8484 9.8147Z" fill="#AC5DAC"/>
</g>
<defs>
<clipPath id="clip0">
<rect width="37" height="37" fill="white"/>
</clipPath>
</defs>
</svg>
