<svg xmlns="http://www.w3.org/2000/svg" xmlns:xlink="http://www.w3.org/1999/xlink" viewBox="0 0 3000 2000"><defs><style>.cls-1{isolation:isolate;}.cls-2{fill:#9871d0;mix-blend-mode:multiply;}.cls-10,.cls-11,.cls-12,.cls-13,.cls-14,.cls-15,.cls-16,.cls-17,.cls-18,.cls-19,.cls-2,.cls-20,.cls-21,.cls-22,.cls-23,.cls-24,.cls-25,.cls-26,.cls-27,.cls-28,.cls-29,.cls-3,.cls-30,.cls-32,.cls-35,.cls-36,.cls-37,.cls-4,.cls-5,.cls-6,.cls-7,.cls-8,.cls-9{fill-rule:evenodd;}.cls-2,.cls-29{opacity:0.5;}.cls-3{fill:#131a30;}.cls-4{fill:#db9669;}.cls-5{fill:#d2eefc;}.cls-6{fill:#c3e6f7;}.cls-7{fill:#f1b287;}.cls-8{fill:#e8a476;}.cls-9{fill:#573e72;}.cls-10{fill:#001e30;}.cls-11{fill:#001624;}.cls-12{fill:#00263d;}.cls-13{fill:url(#Безымянный_градиент_18);}.cls-14{fill:url(#Безымянный_градиент_18-2);}.cls-15{fill:#e0f5ff;}.cls-16{fill:#403e3e;}.cls-17{fill:#e6e6e6;}.cls-18{fill:#f5f5f5;}.cls-19{fill:#4c0f25;}.cls-20{fill:#a9d3e8;}.cls-21{fill:#ebf9ff;}.cls-22{fill:#141414;}.cls-23{fill:#241304;}.cls-24{fill:url(#Безымянный_градиент_23);}.cls-25{fill:url(#Безымянный_градиент_23-2);}.cls-26{fill:url(#Безымянный_градиент_23-3);}.cls-27{fill:url(#Безымянный_градиент_23-4);}.cls-28{fill:url(#Безымянный_градиент_23-5);}.cls-29{fill:#e9f5f5;}.cls-30{fill:#292424;}.cls-31{fill:#736f6f;}.cls-32{fill:#b8b6b6;}.cls-33{fill:#4a4848;}.cls-34{fill:#454242;}.cls-35,.cls-38{fill:#401c28;}.cls-36{fill:#ec8780;}.cls-37{fill:#c18463;}</style><linearGradient id="Безымянный_градиент_18" x1="1329.96" y1="676.77" x2="1584.58" y2="676.77" gradientTransform="matrix(-1, 0, 0, 1, 2986.16, 0)" gradientUnits="userSpaceOnUse"><stop offset="0" stop-color="#ffa6f8"/><stop offset="1" stop-color="#7f295e"/></linearGradient><linearGradient id="Безымянный_градиент_18-2" x1="1377.72" y1="624.4" x2="1604.57" y2="624.4" xlink:href="#Безымянный_градиент_18"/><linearGradient id="Безымянный_градиент_23" x1="1447.62" y1="311.62" x2="1575.5" y2="311.62" gradientTransform="matrix(-1, 0, 0, 1, 2986.16, 0)" gradientUnits="userSpaceOnUse"><stop offset="0" stop-color="#632e5e"/><stop offset="1" stop-color="#822050"/></linearGradient><linearGradient id="Безымянный_градиент_23-2" x1="1406.46" y1="323.78" x2="1499.95" y2="323.78" xlink:href="#Безымянный_градиент_23"/><linearGradient id="Безымянный_градиент_23-3" x1="1440.55" y1="316.22" x2="1519.89" y2="316.22" xlink:href="#Безымянный_градиент_23"/><linearGradient id="Безымянный_градиент_23-4" x1="1426.86" y1="317.28" x2="1513.21" y2="317.28" xlink:href="#Безымянный_градиент_23"/><linearGradient id="Безымянный_градиент_23-5" x1="1391.89" y1="341.5" x2="1498.54" y2="341.5" xlink:href="#Безымянный_градиент_23"/></defs><title>Найти врача</title><g class="cls-1"><g id="Layer_1" data-name="Layer 1"><path class="cls-2" d="M1734.58,1729.41l-267.48-152.33c-29.16-13.32-70.89-23.93-100.6-8.46-27.07,14.09-71.66,42.92-91.38,54.16-15,8.54-67,39.69-34.58,57.3,95.25,51.79,189.52,110,286.24,162.66,18.29,10,45.05,13.55,73.15,11.22s56.66-10.47,79.22-23.59l47.43-27.61c21-12.22,32.11-26.66,33.21-40C1760.86,1749.67,1752.48,1737.58,1734.58,1729.41Z"/><path class="cls-3" d="M1319.52,802.84c14.38-6.26,32.93,37.23,19,41.81C1324.35,849.31,1305.69,808.86,1319.52,802.84Z"/><path class="cls-4" d="M1329.8,799c-6.47,4.32-15.24,5.18-18.73,9.18-19.93,22.9,23.77,41.24,25.49,40.13,5.65-3.66,11.33-16.12,21.46-26.88Z"/><path class="cls-5" d="M1479.16,753c-32.28,28-69.83,60.16-140.2,91.72,10.62-6.25-3-44.26-19.53-41.93,40.34-34.61,85.87-75.7,128.17-97.9,24.36-9.9,44.49-1.73,49.26,11.34C1500.29,725.66,1498.15,736.58,1479.16,753Z"/><path class="cls-6" d="M1479.16,753c-32.28,28-69.83,60.16-140.2,91.72,5.34-3.14,4.55-14.29.36-24.31,28.6-19.78,52.72-34.4,53.88-38.56,2.46-8.8-.31-25,.75-41.42,18-13.89,36.13-26.33,53.66-35.53,24.36-9.9,44.49-1.73,49.26,11.34C1500.3,725.66,1498.15,736.58,1479.16,753Z"/><path class="cls-7" d="M1506.15,917.94c11.19,35,.45,93-8.95,153.72-5.17,33.38-13.49,67.79-17.51,97.21-4.48,32.8-6.67,53.89-5.4,70.12,3,38.45,19.19,46.57,25.24,96.68,7.35,60.8-24.63,130.51-22.24,197.52a42,42,0,0,0,8,16.45c26.84,33-.82,28.65,1.75,72.25.23,3.84-14.6,70.35-14.6,70.35s-39.85,11.09-42.86,10.66-27.74-9-27.74-9c1.95-3.63,4.38-12.44,5.95-15.77,17.95-38.08,20.35-84.73,20.38-127.69,0-58.77-16.17-197.16-31.31-253.66-15.19-34.63-20.53-38-18.37-98,3.52-97.79-3.08-169.95,9-273.27Z"/><path class="cls-8" d="M1475,1207.79c-1.11,12.48-1.42,22.53-.75,31.2,3,38.45,19.19,46.57,25.24,96.68,7.35,60.8-24.63,130.51-22.24,197.52a42,42,0,0,0,8,16.45c26.84,33-.82,28.65,1.75,72.25.23,3.84-14.6,70.35-14.6,70.35s-24.3,6.76-36.38,9.52c15-19.26,25.36-41.39,27.93-71.58,2.47-29-7.33-73.36-7.49-90.29-.5-51.68,1.5-166.16-.65-186.46-3.53-33.4-15.18-60-28-107.37-3.59-13.32.82-21.67,32.51-25Z"/><path class="cls-9" d="M1413.08,1666c-4.29,7.86-8.91,19.15-12.85,27.65a172.77,172.77,0,0,0-10.06,26.78c-1.26,4.32-.89,8.35.91,10.77,9.63,12.91,57.84-10.64,74-24.92,10.44-9.22,10.64-20.12,13.09-33.44,3.69-20,4.31-22.24,9.1-42.77l5.43,55.75,4.59,2.78c1-22.71,3.38-52.74,6.89-72.16,1.4-7.74,3.78-16.55,4.12-20.84,2-25.25-10.5-37.67-22-44.77,4.22,15.35-6.91,40.32-12,71.76-5.29,32.9-23.52,68.87-37.84,71.91-6,1.29-19.37-6.24-26.63-10.38C1407.14,1682.52,1410.27,1673.09,1413.08,1666Z"/><path class="cls-9" d="M1404.68,1734.7c18.4-2,48.34-17.79,60.42-28.45,10.44-9.22,10.64-20.12,13.09-33.44,3.69-20,4.31-22.24,9.1-42.77l5.43,55.75,4.74,3.17,4.23-4.36c.82-21.49-.61-50.9,2.52-68.2,1.4-7.74,3.78-16.55,4.12-20.84,2-25.25-10.5-37.67-22-44.77,4.22,15.35-6.91,40.32-12,71.76-4.36,27.07-17.47,56.22-30,67.4C1434,1706.49,1420.14,1720.51,1404.68,1734.7Z"/><path class="cls-7" d="M1546.87,1309.6c10.56,16.64,22.65,33.52,27.92,47.2,20.09,52.17,11.84,144,17.39,223,.55,7.85,5.48,15,7.72,22.55,3.39,11.36,7.33,24.31,9.73,40.59a371,371,0,0,1,3.81,75.37c-.55,10.68-4.35,15.88-5,30.48l-58.78,20.5c1-12.64,2.27-32,2.49-53.21.19-19-.55-39.59-1.12-58.42-.65-21.62.62-41.35-1.19-53.22-11.51-75.19-31.6-101.23-54.62-177.63-9.51-31.57-9.78-45-23.9-73.77-6.18-14.71-9.7-40.06-6.26-66.29C1468.32,1262.13,1511.48,1284.89,1546.87,1309.6Z"/><path class="cls-7" d="M1609.23,1123.35c-28.43,90.88-50.75,124.14-54.68,163.23-1.28,12.74,1.74,29.25,5.1,45.73l-87.72,5.1c-2.51-10.22-4.84-23.79-7.23-42.62-2.7-21.22.26-43.52,3.45-56.25,7.48-29.88,20.24-73.55,40.82-131.82l100.78,7.77Z"/><path class="cls-8" d="M1524.65,1243.56a153.75,153.75,0,0,0,5.15,32.54c7,25,36.14,57.82,45.18,81.3,20.09,52.17,11.85,144,17.4,223,.55,7.85,5.48,15,7.72,22.55,3.39,11.36,7.33,24.31,9.73,40.59a370.82,370.82,0,0,1,3.81,75.37c-.55,10.67-4.35,15.88-5,30.48l-21.93,7.65c4.84-38.76-.35-90.09-6.35-138.3-10.27-82.55-28.52-176.45-51.72-239.78-7.92-21.63-15.39-37.5-32-48.34,20.31-3.57-4-22.13-17.45-52.31Z"/><path class="cls-9" d="M1598.29,1597.87c5.44,11.62,10.48,17.48,13.63,34s-.41,43.72,3.48,64.19l6.18,32.49c3.6,18.92.85,32.88-18.27,52-17.33,17.34-35.48,26.19-46.66,22.78-8.23-2.52-16.46-15-10.36-52.38,5.08-31.13,4-60.43,4.66-93.44,3,31.87,4.08,42.72,1.35,74.82-.76,9-.91,23.42,9.57,23.27,43.35-.64,43.69-12.37,45.12-26C1610.8,1693.2,1607.81,1630,1598.29,1597.87Z"/><path class="cls-9" d="M1598.29,1597.87c5.44,11.62,10.48,17.48,13.63,34s-.41,43.72,3.48,64.19l6.18,32.49c3.6,18.92.85,32.88-18.27,52-9.42,9.42-19.08,16.34-27.73,20.14-2.17,1,15.07-30.07,11.92-47.63,18-4.26,18.42-13.34,19.48-23.48C1610.8,1693.2,1607.81,1630,1598.29,1597.87Z"/><path class="cls-10" d="M1571,858.79c-.24.16,1.23,5.9,1.43,6.55,4.65,15,13,27,21.5,39.61,14.82,22,23.49,38,30.35,64.28,9.12,35,1.53,89.1-11.46,149.78-7.15,33.38-17.49,67.79-23.26,97.21-5.3,27.07-24.46,65.44-14.16,93.19-13.54,12.39-18,19.2-40.33,19.74-60.08,1.47-141.35-44.16-155.67-67.68-5.13-42.71-3.7-71.74-4.26-92.86-1.87-70.18,1.94-136.1,3-206.68,1.91-19.79,3.33-40.94,4.38-61.23.2-5,.58-9.65,1.1-14.13.55-5,1.36-9.85,2.34-14.73,5.11-25.43,16.25-44.88,20.25-64.91C1427.11,791.1,1530.72,831,1571,858.79Z"/><path class="cls-11" d="M1624.25,969.23c9.12,35,1.53,89.1-11.46,149.78-7.15,33.38-17.49,67.79-23.26,97.21-3.73,19.05-10.85,57-12.81,94.14-6.83,11.28-27.8,19.65-42,18.67-18-104.45,17-219.2,20.21-307.6,1.62-45.14-23.61-38.34-72-60.45-45.49-20.78-60.56-57.11-22.09-44.9,47.57,15.09,78.15,2.81,75.63-20.81-1.23-11.56-2.89-22.8-3.09-32.3l-1.36-2.07a122.53,122.53,0,0,0,38.74-3.51,50.25,50.25,0,0,0,1.67,8c4.65,15,13,27,21.5,39.61C1608.19,926.17,1617.59,943.71,1624.25,969.23Z"/><path class="cls-12" d="M1531.78,1056.45c-6.31,58.67-11,111.47-17.44,171.06-3.11,28.57-4.31,62,2.75,90.29-47-4.36-105.84-31.67-132.17-62.07-8.27-66.85-2.68-241.6-1.14-311.55,1-44.93,2.1-73,17.73-112.36,29.38,23,59.41,36.56,107.74,47.41-17.28,25.31-28.39,33-44.67,28.61-13.48-3.6-29.44-5.93-37.66-1.34-9.45,5.28-9.34,18.93,5.9,37.69,10,12.3,54.32,41.29,88,53.49C1543.26,1005.84,1534.24,1033.57,1531.78,1056.45Z"/><path class="cls-13" d="M1592.54,771.57c-15.9,31.55-24.38,66.59-21.57,87.22-16.67,21.54-127.73,7.17-164.8-51.84,6-30.24-7.36-60-4.06-95,.89-9.37,1.8-18.83,2.75-28.28,3.2-32,3.57-60.33,7.19-88.28,4.66-36,9-66.72,13.63-81.2a43.68,43.68,0,0,1,7-14.36c9.54-13.62,26.66-20.52,56.46-8,26.77,11.23,62.13,26.28,93.18,45.53,13.5,8.37,56.19,40.19,65.4,53.09,4.65,6.51,7.63,14.32,8.31,24.24C1659.25,661.68,1613,730.9,1592.54,771.57Z"/><path class="cls-14" d="M1446.88,700.42c14.2,7.22,28.1,28.4,50.52,40.68,14.89,8.15,46.54,13.28,69-13.49,4.1-12.09,7.22-23.71,7.75-35.62,2-45.65,8.37-70.17,34.28-106.9-16.22-8.87-32.75-18.31-41.74-28l-102.56-55.91-32.7,8.63c-10.69,30.81-15.88,46.9-36.22,76.61-11.71,17.1-16.64,36.7-11.75,57.64C1391,676.4,1421.06,687.29,1446.88,700.42Z"/><path class="cls-5" d="M1592.55,771.79c20.5-40.68,66.71-109.89,63.49-156.87-1.43-20.9-13.07-32.45-29-42.15-13.09-13.92-30-26.34-48.24-37.35,4,7.72,2.83,14.08.7,19.77a14.41,14.41,0,0,1-5.76,7.28c-8.57,15.43-22.6,34.86-29.73,44.9-25.79,30.82-63.83,56.73-90.05,109-39.56,78.88-33.54,395.74-15.61,498.84,15.72,15.71,79.12,43,93.08,45.52,24.5,4.33,46.59,1.21,63.43-7.66,9.17-61,32.15-143.27,37.63-210.65,2-24.92,2.26-52.21-5.23-76.29-9.83-33.23-29.23-60.54-42.25-79.47-10.43-15.15-14.7-20.37-14.54-37,.21-20.91,8.4-50.68,22.1-77.86Zm-220.42,400.72c-1.06-48.44-.59-95.28.15-142.63.69-44.05.28-106.35,8.21-148.49,7.14-38,17-51,21.77-75,6-30.24-6.58-55.69-3.28-90.66.89-9.37,1.8-18.83,2.75-28.28,3.2-32,6.71-63.86,10.33-91.8,4.66-36,8.71-68.55,13.37-83a43.59,43.59,0,0,1,7-14.36c9.54-13.62,28.22-20,58-7.5,8.78,3.68,17.7,7.52,27.36,13.6a127.1,127.1,0,0,0-20,5.24c-16,2.23-30.51,11.26-39.8,31.78C1427.31,620,1431.3,703.29,1426,785.93c-14,102.24-23.39,313.12-13.64,416.14C1397,1192.18,1382.11,1181.56,1372.14,1172.51Z"/><path class="cls-6" d="M1627.24,966.13c7.49,24.08,7.26,51.37,5.23,76.29-5.48,67.38-28.46,149.6-37.63,210.65-12.41,6.54-27.68,10-44.65,9.56,12-57.18,28-147.42,32.84-196.17-.15-25.52-4.45-51.09-13.93-74.53Z"/><path class="cls-6" d="M1592.55,771.79c20.5-40.68,66.71-109.89,63.49-156.87-1.75-25.52-18.73-37.11-40.17-48.4v9.91c-18.59,20.78-30.81,44.49-37.08,75.73l-55.34-21.29c-25.49,25.81-54.91,54.36-76.6,102.4,12.09,10.41,22.77,24.1,50.56,34.49,11.64,4.35,25.32,8.44,30.3,13.9,21.36,23.43,7.12,45.68,5.94,75.71-3.36,85.41,52.38,137.64,52.78,206.72,22.08-5.86,38.68-19.55,45.79-38.72,10.81-78.77-53.07-138.87-59.81-159.83-6.1-19,2.4-58.57,20.14-93.77ZM1446.47,601.27l-17.42-6.7c-9.29,27.68-21.43,56.78-26.64,86.19l-.67,6.67q-1,9.64-1.89,19.26c0,.48,0,1,0,1.45,9.51,4.37,18.71,8.47,29.14,13.49C1431.4,680.35,1435.48,642.13,1446.47,601.27Z"/><path class="cls-5" d="M1458.2,708.82c40.26-68.61,87.83-91.68,113-144.26,9.35,8.8,22.43,12.66,37.21,20.74-25.91,36.72-32.24,61.25-34.28,106.9-.54,11.92-3.66,23.53-7.75,35.62-22.47,26.77-54.11,21.65-69,13.49-16.53-9-28.42-22.93-39.21-32.49Zm5.95-207.45-32.7,8.63c-10.7,30.81-17.19,46.9-37.53,76.61-11.71,17.1-16.37,37-11.49,57.91,6.09,26.11,27,37.9,48.56,48.44,3.69-45.15,11.18-88.26,30.4-136.53,5.45-13.7,19.58-40.55,36.41-47.11Z"/><path class="cls-15" d="M1588.49,578.14l9,8.93c-10.26,14.54-24.16,36.58-25.12,61.79-1,25.82-5.67,49.78-12.6,64.87-11,24-30.35,28.27-54.55,21.73-15.77-4.26-30.16-14.65-39-34.06C1484.28,668.8,1571.48,594.09,1588.49,578.14Z"/><path class="cls-16" d="M1442.7,573.65a245.08,245.08,0,0,0-11.79,28.3c-2.91,8.61-5.28,17.53-8.37,29.66l-5.74-1.46c3.12-12.21,5.51-21.22,8.52-30.11a250.47,250.47,0,0,1,12.07-28.95Z"/><path class="cls-6" d="M1584.84,627.71c11.38,5.73,38.54,69.8,49.16,54.94,24.05-33.66,36.46-75.5,1.62-106.47a369.28,369.28,0,0,0-56.33-40.81l.64,24.42c9.28,9.06,17.84,18.28,28.51,27.4C1598.29,601.59,1590.78,610.45,1584.84,627.71Z"/><path class="cls-15" d="M1525.4,839.49c-3.64,39-.28,70.22,4.09,86.57,6.21,23.26,23.36,49.28,34.45,78.8,18.37,48.91-3.54,103-21.49,251.06-34.81-9.45-67.81-26.63-95.69-42.42-12.43-69-10.23-154.26-14.93-229.58-3.68-59-6.26-159.77,17.69-238.54,18.4,19.6,38.14,28.15,53.73,36.66C1537.51,800.72,1528.67,804.43,1525.4,839.49Z"/><path class="cls-15" d="M1401.69,717.29c7.86,3.46,14.55,6.42,22.53,9.6-1.55,34-3,65.51-7.31,95.88-4.14,28.92-7.06,50.14-9,70.32-8.84,93.24-8.24,212.37-2.31,300.13-12.2-8.92-19.32-13.67-29-24.16,1.43-83.69-6.8-211.89,10.71-290.36,5.61-25.12,12.61-44.15,17.56-69.46C1409.3,786.66,1401.54,761.75,1401.69,717.29Z"/><path class="cls-4" d="M1281.79,808.85a95.65,95.65,0,0,1-17,3.88c2.43,11.83,14,9.74,23.44,7.89Z"/><polygon class="cls-17" points="1237.27 735.14 1359.14 784.4 1465.55 943.36 1459.18 947.63 1229.5 737.97 1237.27 735.14"/><polygon class="cls-18" points="1236.13 733.49 1359.14 784.4 1342.47 797.13 1228.37 736.32 1236.13 733.49"/><polygon class="cls-19" points="1226.28 734.85 1352.49 787.26 1463.17 951.78 1333.62 894.02 1226.28 734.85"/><path class="cls-4" d="M1290.34,820.15c-9.85-.44-10.94-5.08-9.19,1,2.55,8.87,15.5,32.9,25.22,36.64.06,0,12.49.69,14.87-2.22,2-2.47,1.29-3.46-2.4-8.8L1307,827.41C1304.06,822.46,1302.9,820.71,1290.34,820.15Z"/><path class="cls-5" d="M1660.93,611.44c17.46,50.35,5.5,127.52,4.51,200.22-.52,38.56-52.14,36.89-58.62.3-8.35-44-10.07-97.38-11.76-140.74-1.54-39.58-.49-81.47,27.16-87.43C1642.33,579.46,1654.38,592.54,1660.93,611.44Z"/><path class="cls-6" d="M1660.93,611.44c17.46,50.35,5.5,127.52,4.51,200.22-.4,29.71-31.12,35.53-48.17,19.92l.21-.18c25.21-21.63,16-11.89,16-39.18,0-73.67,1.7-134.61-9.51-208.77C1643,580.24,1654.57,593.1,1660.93,611.44Z"/><path class="cls-20" d="M1486.43,895.25c14.38-6.26,32.92,37.29,19,41.87C1491.26,941.77,1472.6,901.27,1486.43,895.25Z"/><path class="cls-7" d="M1506.09,888.07c-5.19,4.64-15.22,7.59-19.61,8.27-4.81.76-11.86,1.8-16.71,3-8,2-18.21,8.45-32.17,13.84,6.55,13.6,22.49,2.62,29.7,2.06,6.63-.52,13.49.18,19.41-1.27C1496,911.69,1507.94,898.47,1506.09,888.07Z"/><path class="cls-7" d="M1513.38,880.47c-4.77,5.88-14.57,13.64-20.77,17s-8.88,4.63-13.12,6.08c-14.21,4.83-20.79,19.88-29.58,19s-32.44-15.18-31.54-10.69c.65,3.2,6.71,14.5,9.4,17.94,5.53,7.08,11.27,11.44,19.79,16.85a97.89,97.89,0,0,0,22.92,10.58c5.74,1.75,7.63.07,11.17-1.37,3.86-1.58,16.87-14.18,19.59-17.44,12.58-15,15.29-18.08,28-25.66Z"/><path class="cls-8" d="M1513.38,880.47l-.34.41,2,6.31c-3.92,1.57-22,19.59-24.88,22.33-14.41,13.72-21,27.18-33.11,22.53-14.86-5.71-23.85-8.45-36.76-15.24a90.38,90.38,0,0,0,7.45,13c5.53,7.08,11.27,11.44,19.79,16.85a97.89,97.89,0,0,0,22.92,10.58c5.74,1.75,7.63.07,11.17-1.37,3.86-1.58,16.87-14.18,19.59-17.44,12.58-15,15.29-18.08,28-25.66Z"/><path class="cls-5" d="M1646.07,845.5c-32.29,28-69.83,60.16-140.21,91.72,10.62-6.25-3-44.26-19.53-41.93,33.09-24.22,85.87-75.7,128.17-97.89,24.36-9.9,44.5-1.73,49.26,11.34C1667.2,818.12,1665.06,829,1646.07,845.5Z"/><path class="cls-6" d="M1646.07,845.5c-32.29,28-69.83,60.16-140.21,91.72,5.39-3.17,4.53-14.53.22-24.65,38.52-25,77.2-51.83,111.39-81.17,24.95-21.4,16.2-12.09,16-38.35,15.32-.66,26.82,6.22,30.27,15.68S1665.06,829,1646.07,845.5Z"/><path class="cls-21" d="M1435.19,534.73l14.42,11.91-18.18,6c-5.44,43.06-6,78.6-.6,140.56,5.41-54.41,15.36-106,38.31-152.21,3.78-7.62,15.68-32.36,48.19-36.55l-19.21-8.64C1467.95,490.23,1447.59,508.68,1435.19,534.73Z"/><path class="cls-8" d="M1565.61,530.41c2,24.1-46.16,35.6-75.54,31.75a21.62,21.62,0,0,1-8.19-2.65,11,11,0,0,1-3.34-2.86c-3.22-7.16-4.11-17.56-4.27-19.09-2-19-6.09-36.31-18-59.33l77.21-30.47,19.56-8.54C1543.08,480.07,1551.58,495.34,1565.61,530.41Z"/><path class="cls-4" d="M1564.83,528.57a5.63,5.63,0,0,1,.1,1.4c-27.91-24.89-66-7.86-93.31-9.94-.86-2-7.28-32.4-8-33.19-2.42-6.83-3.43-5.71-6.65-14.5l77.21-30.47,19.56-8.54C1543.74,474.19,1550.81,493.5,1564.83,528.57Z"/><path class="cls-16" d="M1576.38,544.34c36.63,29.73,11.09,64.36-32.7,123.75l-3,4.08-4.77-3.49,3-4.08c41.69-56.53,66-89.5,33.74-115.67Z"/><path class="cls-16" d="M1478.74,717.75q5.09-8.13,9.8-14.71c11.28-15.82,21.42-26.17,29.84-31.92,9.24-6.31,16.81-7.31,22-4.06h0l.57.39c5.52,3.94,7.83,12.56,4.29,27.5-2.78,11.76-9.22,27.86-20.67,49.27l-5.21-2.78c11.18-20.9,17.44-36.52,20.12-47.84,2.89-12.19,1.63-18.79-1.95-21.34l-.27-.18h0c-3.17-2-8.48-.9-15.56,3.94-7.9,5.4-17.53,15.26-28.37,30.47q-4.73,6.63-9.61,14.41Z"/><path class="cls-22" d="M1484,713.77h0a6.15,6.15,0,0,1,2.37,8.35l-3.69,6.38a6.16,6.16,0,0,1-8.35,2.37h0a6.16,6.16,0,0,1-2.37-8.35l3.68-6.38A6.16,6.16,0,0,1,1484,713.77Z"/><path class="cls-22" d="M1525.3,736.88h0a6.15,6.15,0,0,1,2.37,8.35l-3.69,6.38a6.15,6.15,0,0,1-8.35,2.37h0a6.15,6.15,0,0,1-2.37-8.35l3.69-6.38A6.16,6.16,0,0,1,1525.3,736.88Z"/><path class="cls-21" d="M1592.7,553.52c5.94,20.44-4.81,40.22-22.15,66.55l-21.54-6,7.23,21.69c-48.13,23.42-68,38.07-98.48,74.53,39.3-79.49,100.56-110.11,113-155.32,2-7.36,2.24-12.73,1.51-16.92-.46-2.64-6.53-8.22-7.53-10.14a44.45,44.45,0,0,1-3.09-7.5C1561.56,520.31,1587,533.92,1592.7,553.52Z"/><path class="cls-23" d="M1507.15,280.28c63.86-46.92,107.14,14.95,73.83,48.2-5.14,5.14-10.74,2-19,6.74,0,0-56.95-3.43-57.69-6.8S1507.15,280.28,1507.15,280.28Z"/><path class="cls-19" d="M1581,316.43c28.91-10.15,3.57-60.43-21.75-28.92C1584.06,277,1597.89,300.34,1581,316.43Z"/><path class="cls-19" d="M1575.09,316c25.58-8.18,5-42.06-16-21.15C1578.1,288.65,1590.12,303.67,1575.09,316Z"/><path class="cls-19" d="M1585.34,324.91c32.81-26.11-5-79.71-31.59-54.16C1581.09,259.38,1610.05,295.05,1585.34,324.91Z"/><path class="cls-19" d="M1555.07,295.21c25.88-34.48-32.58-59.66-40.64-12.77C1533.55,256.57,1563.23,265,1555.07,295.21Z"/><path class="cls-19" d="M1549.11,298.88c18.94-25.24-23.85-43.68-29.75-9.35C1533.36,270.59,1555.09,276.79,1549.11,298.88Z"/><path class="cls-19" d="M1553.77,363.67l-45.58,31.93,46.32,18.76c8.1.07-20.91,22.12-5.81,54.76,25.94-10,45.27-52.19,34.13-75.29C1575,377.54,1567,383.65,1553.77,363.67Z"/><path class="cls-23" d="M1443.14,437.37l33.33-20.55-13-58.76-26.7-42.24C1391.95,343.6,1415.18,433.06,1443.14,437.37Z"/><path class="cls-7" d="M1478.54,506.89c42-17.54,54.52-38.49,64.51-81.42,18.44-12.25,26.37-22.51,28.38-34,4.75-27.26-9.85-57.3-30.22-74.13-17.8-14.72-38.69-19.38-62.51-15-46.27,8.49-63.59,38-67.36,77.62-.73,7.65,3.43,24,5.68,31.69,3.76,12.92-2.3,9.35-1.82,22.55.21,5.78,4.16,26.34,12.09,48.69,4.58,12.92,5.19,26.19,11.81,28.31S1459.35,514.89,1478.54,506.89Z"/><path class="cls-19" d="M1417.18,341.84c19.51-8.42,95.73,27.5,118.66,77.43,3.83,8.33,8.6,5.78,9.12,18.75.58,14.3,21.44-29.62,26.18-43.39,13-37.73,2.36-68.31-32.86-90.14C1494,277.06,1432.75,301.64,1417.18,341.84Z"/><path class="cls-8" d="M1546.53,396.93c17.21-8.15,19.69,12.51,18.35,25.37-.92,8.83-8.11,9-9.91,16.1-2.14,8.45-8,12.94-13.39,13.41-10.93.95-6-16-5.48-22.59C1533.63,418.83,1535.61,402.1,1546.53,396.93Z"/><path class="cls-4" d="M1541.58,422.28c2.86-8.93,3.3-20,15.61-20.11C1546.66,404.24,1545.4,414.12,1541.58,422.28Z"/><path class="cls-8" d="M1478.54,506.89c42.14-17.56,54.52-38.49,64.52-81.42,18.43-12.25,26.37-22.51,28.37-34,4.75-27.26-9.85-57.3-30.22-74.13-17.8-14.72-38.69-19.38-62.51-15-26.9,4.94-55.89,24-61.29,48.45,2.56-2.06,10.47-7.09,34.49-.72,28.54,10.41,20.49,34.67,30.35,43.56,8.09,7.29,13.1,21,14.66,28.36,3.29,15.44-14.68,16.54-15,23.87-.31,7.5,18.52,8.39,14.59,28.67-1.1,5.68-14.18,26.75-20.6,33.4C1476.81,507.65,1477.66,507.26,1478.54,506.89Z"/><path class="cls-19" d="M1449.72,345.42c-9.51-3.51-27.24-2.74-33.68,2.73-3.23-11.56,16.21-46.93,56.62-61.93,34.21-12.7,76.77-13.91,103.41,21.51,20,26.64,27.45,73.78-.58,101-12.75,12.37-28.64,22.6-37.7,23.49-2.84-6.22-17.8-10.45-22.95-14.81-4.25-3.6-3.19-8.5-8.82-14.43-3.18-3.35-12.4-9.2-17-15.85C1482.56,377.74,1487.95,347.21,1449.72,345.42Z"/><path class="cls-19" d="M1594.5,360.42c.28,17.67-5.23,35.22-19,48.29-12.89,12.22-28.64,22.6-37.7,23.49-2.84-6.22-17.8-10.45-22.95-14.81-4.25-3.6-3.19-8.5-8.82-14.43-3.18-3.35-12.4-9.2-17-15.85C1538.88,405.49,1579.7,387.94,1594.5,360.42Z"/><path class="cls-24" d="M1534.12,281.13c16.93,10.23-19.62,10.76-27.95,10.8-23.56.11-50.84,8.85-45.36,43,1.24,7.76,4.14,13.12,3.23,12.84a61.6,61.6,0,0,0-14.9-2.48c-11.36-4.92-28.26,1.63-30.81.26-11.89-16.52-9.72-37.67,4.77-52.55,22.74-23.34,55.84-18.55,84.62-13.41C1517.26,281.35,1538.49,288.23,1534.12,281.13Z"/><path class="cls-25" d="M1486.21,359.37c52.67-4.79,117-29.37,66.78-73.87C1624.28,337.36,1535.74,372.25,1486.21,359.37Z"/><path class="cls-26" d="M1476.49,341.71c3.73-48.25,34.6-31.36,62.62-44.27,7.13-3.28,11.37-11.55-3.49-16.44,11.24,6.55,4.18,10.09.28,11.15-18.28,5-36.63,1.44-51.08,7.14-10.52,4.15-18.86,13.34-18.54,28.34.2,9.42,3,22.32,6.81,23.73C1474.75,352,1475.94,348.79,1476.49,341.71Z"/><path class="cls-27" d="M1473,351.71c46.08-22.11,119.62-30.4,69.58-68.87,23.21,20.94,10.37,26-12.88,35.17C1513.33,324.41,1491.61,333.18,1473,351.71Z"/><path class="cls-19" d="M1535.78,282.45c1.41,2.84-4,3.93-11.55,2.69-22.28-3.7-37.46-6.85-53-7-32.77-.22-54.66,15.61-47.36,51.84-.12-29.8,9-58.16,77.32-46.75-52.57-3-65.91,2.59-64.71,47.17,3.21-43.76,19.56-48.19,70.93-44.29-44.75-.85-60,4-57.62,48.57,4.07-40.34,10.55-49.47,74-46C1531,289.15,1540.84,287.24,1535.78,282.45Z"/><path class="cls-28" d="M1487.62,367.52c29.05,20.32,142.81-10.15,84-62.91C1645.5,362.36,1517.65,397.34,1487.62,367.52Z"/><path class="cls-29" d="M1449.65,419.67a4.82,4.82,0,0,0-6.25,5l1.81,20.4a4.78,4.78,0,0,0,3.26,4.08,149.21,149.21,0,0,0,30.54,6.62,4.84,4.84,0,0,0,5.46-5.15l-1.86-21a4.8,4.8,0,0,0-4.33-4.3,158.75,158.75,0,0,1-28.62-5.59Zm-36.48-24.1,2.72,30.7.25,0c1.11,4.33,5.53,8.53,11,12.27a4.86,4.86,0,0,0,7.57-4.37L1433,415.36a4.76,4.76,0,0,0-2.42-3.7c-8.06-4.59-15.7-10.24-17.2-16.12Z"/><path class="cls-30" d="M1449.28,420.84a3.64,3.64,0,0,0-3.31.63,3.46,3.46,0,0,0-1.32,3.06l1.81,20.4a3.44,3.44,0,0,0,.75,1.86,3.64,3.64,0,0,0,1.68,1.17,126.78,126.78,0,0,0,14.19,3.91c5,1.09,10.43,2,16.09,2.65a3.65,3.65,0,0,0,3-1,3.45,3.45,0,0,0,1.09-2.85l-1.86-21a3.43,3.43,0,0,0-1-2.15,3.69,3.69,0,0,0-2.21-1c-5.29-.57-10.36-1.33-15.16-2.27a138.87,138.87,0,0,1-13.7-3.36Zm14.2,1c4.76.93,9.76,1.68,14.94,2.24a6.21,6.21,0,0,1,3.72,1.75,5.86,5.86,0,0,1,1.73,3.65l1.86,21a5.81,5.81,0,0,1,0,1.26,6,6,0,0,1-1.83,3.58,6.21,6.21,0,0,1-3.71,1.67,6.39,6.39,0,0,1-1.3,0c-5.69-.67-11.16-1.58-16.33-2.7a128.45,128.45,0,0,1-14.47-4,6.21,6.21,0,0,1-2.83-2,5.85,5.85,0,0,1-1.27-3.15l-1.81-20.4a5.88,5.88,0,0,1,.26-2.31,6,6,0,0,1,2-2.87,6.17,6.17,0,0,1,3.28-1.32,6.27,6.27,0,0,1,2.35.25,136.93,136.93,0,0,0,13.45,3.3ZM1414.92,401l2,22.61a9.72,9.72,0,0,0,.43,2.29,14,14,0,0,0,3.58,5.83,42.56,42.56,0,0,0,6.93,5.74,3.45,3.45,0,0,0,2.29.6,3.69,3.69,0,0,0,2.68-1.53,3.44,3.44,0,0,0,.62-2.33l-1.67-18.79a3.43,3.43,0,0,0-.54-1.57,3.63,3.63,0,0,0-1.25-1.17,69.9,69.9,0,0,1-11.26-7.72,29.07,29.07,0,0,1-3.81-4Zm16.33,9.55a6.17,6.17,0,0,1,2.11,2,5.81,5.81,0,0,1,.94,2.68L1436,434a5.8,5.8,0,0,1-1.07,4,6.28,6.28,0,0,1-4.52,2.58,6,6,0,0,1-3.94-1,44.93,44.93,0,0,1-7.35-6.1,18.85,18.85,0,0,1-3.5-5.06,12,12,0,0,1-.72-3.27l-3.06-30.7,2.57-.19.26,1c.68,2.68,2.83,5.36,5.76,7.92A67.67,67.67,0,0,0,1431.25,410.6Z"/><path class="cls-30" d="M1443.54,426.73a18.24,18.24,0,0,1-5.17-.86,12.38,12.38,0,0,1-4-2.15l-1.57,1.91a14.89,14.89,0,0,0,4.75,2.58,20.65,20.65,0,0,0,5.87,1Z"/><rect x="1482.33" y="430.38" width="40.08" height="2.46" transform="translate(-44.69 655.22) rotate(-24.25)"/><ellipse class="cls-31" cx="1414.44" cy="648.78" rx="24.23" ry="17.35" transform="translate(622.52 1988.34) rotate(-84.05)"/><path class="cls-32" d="M1416.78,626.34c8.87.92,15,11.72,13.73,24.11-1.27,12.2-9.28,21.4-18,20.8,8.12-.48,15.29-9.3,16.49-20.8,1.29-12.39-4.86-23.18-13.73-24.11l-.41,0A12,12,0,0,1,1416.78,626.34Z"/><ellipse class="cls-33" cx="1414.44" cy="648.78" rx="16.19" ry="11.59" transform="translate(622.51 1988.33) rotate(-84.05)"/><ellipse class="cls-31" cx="1414.44" cy="648.78" rx="14.52" ry="10.39" transform="translate(622.47 1988.31) rotate(-84.05)"/><ellipse class="cls-34" cx="1414.44" cy="648.78" rx="7.46" ry="5.35" transform="translate(622.44 1988.29) rotate(-84.05)"/><path class="cls-32" d="M1415.84,635.38c5.3.55,9,7,8.19,14.4s-5.57,12.81-10.79,12.42c4.58-.69,8.52-5.8,9.2-12.36.77-7.4-2.9-13.85-8.2-14.4l-.2,0A7.15,7.15,0,0,1,1415.84,635.38Z"/><path class="cls-35" d="M1430.78,425.12c-2.7-2.5-4.75-4.35-7.17-5.55-3.89-1.92-7.82-2.28-13.62-7a30.63,30.63,0,0,0,11.94,9.44A35.5,35.5,0,0,0,1430.78,425.12Z"/><path class="cls-35" d="M1451.42,429.83a28.4,28.4,0,0,1,13.44,1.18c4.23,1.52,8.69,5.14,14.92,6.1-5.66.33-10.75-1.29-16.6-2.7C1459,433.42,1455.86,430.4,1451.42,429.83Z"/><path class="cls-36" d="M1432.47,476.24c4.48.29,6.18,1.6,9.34,2.46,9.89,2.7,15.63,1.89,26.24-2.6-10.34,9-24.65,14.68-33.39,10.69C1433.41,486.22,1428,476,1432.47,476.24Z"/><path class="cls-37" d="M1442.13,431.79c-5.74,21.5-20.71,25.4-1.19,35.44C1415.71,460.89,1434.17,452,1442.13,431.79Z"/><ellipse class="cls-38" cx="1422.66" cy="423.77" rx="2.69" ry="3.79" transform="translate(-58.91 331.56) rotate(-13.03)"/><path class="cls-35" d="M1461.16,431.57c-1.56.36-2.34,2-1.83,4.17s2.18,3.69,3.75,3.33,2.42-2.44,1.91-4.63S1462.72,431.21,1461.16,431.57Z"/></g></g></svg>