<svg width="81" height="81" viewBox="0 0 81 81" fill="none" xmlns="http://www.w3.org/2000/svg">
<g clip-path="url(#clip0)">
<path d="M38.7002 80.5C46.4322 80.5 52.7002 74.232 52.7002 66.5C52.7002 58.768 46.4322 52.5 38.7002 52.5C30.9682 52.5 24.7002 58.768 24.7002 66.5C24.7002 74.232 30.9682 80.5 38.7002 80.5Z" fill="#F2DDF1"/>
<path d="M12 36.5C18.6274 36.5 24 31.1274 24 24.5C24 17.8726 18.6274 12.5 12 12.5C5.37258 12.5 0 17.8726 0 24.5C0 31.1274 5.37258 36.5 12 36.5Z" fill="#F2DDF1"/>
<path d="M60.5 40C71.5457 40 80.5 31.0457 80.5 20C80.5 8.9543 71.5457 0 60.5 0C49.4543 0 40.5 8.9543 40.5 20C40.5 31.0457 49.4543 40 60.5 40Z" fill="#F2DDF1"/>
<path d="M70.7998 73.3003H8.7998C8.1998 73.3003 7.7998 72.9003 7.7998 72.3003V21.3003C12.4998 16.6003 15.0998 14.0003 19.7998 9.30029H70.7998C71.3998 9.30029 71.7998 9.70029 71.7998 10.3003V72.3003C71.7998 72.8003 71.2998 73.3003 70.7998 73.3003Z" fill="#D7B4ED"/>
<path d="M65.7998 68.3003H7.7998V21.3003C12.4998 16.6003 15.0998 14.0003 19.7998 9.30029H66.7998V67.3003C66.7998 67.8003 66.2998 68.3003 65.7998 68.3003Z" fill="white"/>
<path d="M70.7996 74H8.79961C7.79961 74 7.09961 73.2 7.09961 72.2V21.2C7.09961 21 7.19961 20.8 7.29961 20.7L19.2996 8.7C19.3996 8.6 19.5996 8.5 19.7996 8.5H70.7996C71.7996 8.5 72.5996 9.3 72.5996 10.3V72.3C72.4996 73.2 71.6996 74 70.7996 74ZM8.49961 21.6V72.3C8.49961 72.4 8.59961 72.6 8.79961 72.6H70.7996C70.8996 72.6 71.0996 72.5 71.0996 72.3V10.3C71.0996 10.2 70.9996 10 70.7996 10H20.0996L8.49961 21.6Z" fill="#4F358E"/>
<path d="M58.8 61.0003H56.8C56.4 61.0003 56 60.7003 56 60.2003C56 59.8003 56.3 59.4003 56.8 59.4003H58V58.1003C58 57.7003 58.3 57.3003 58.8 57.3003C59.2 57.3003 59.6 57.6003 59.6 58.1003V60.1003C59.5 60.7003 59.2 61.0003 58.8 61.0003Z" fill="#4F358E"/>
<path d="M52.9997 61.0004H49.1997C48.7997 61.0004 48.3997 60.7004 48.3997 60.2004C48.3997 59.8004 48.6997 59.4004 49.1997 59.4004H52.9997C53.3997 59.4004 53.7997 59.7004 53.7997 60.2004C53.6997 60.7004 53.3997 61.0004 52.9997 61.0004ZM45.3997 61.0004H41.5997C41.1997 61.0004 40.7997 60.7004 40.7997 60.2004C40.7997 59.8004 41.0997 59.4004 41.5997 59.4004H45.3997C45.7997 59.4004 46.1997 59.7004 46.1997 60.2004C46.1997 60.7004 45.7997 61.0004 45.3997 61.0004ZM37.8997 61.0004H34.0997C33.6997 61.0004 33.2997 60.7004 33.2997 60.2004C33.2997 59.8004 33.5997 59.4004 34.0997 59.4004H37.8997C38.2997 59.4004 38.6997 59.7004 38.6997 60.2004C38.5997 60.7004 38.2997 61.0004 37.8997 61.0004ZM30.2997 61.0004H26.4997C26.0997 61.0004 25.6997 60.7004 25.6997 60.2004C25.6997 59.8004 25.9997 59.4004 26.4997 59.4004H30.2997C30.6997 59.4004 31.0997 59.7004 31.0997 60.2004C31.0997 60.7004 30.6997 61.0004 30.2997 61.0004Z" fill="#4F358E"/>
<path d="M22.8 61.0004H20.8C20.4 61.0004 20 60.7004 20 60.2004V58.2004C20 57.8004 20.3 57.4004 20.8 57.4004C21.2 57.4004 21.6 57.7004 21.6 58.2004V59.5004H22.9C23.3 59.5004 23.7 59.8004 23.7 60.3004C23.5 60.7004 23.2 61.0004 22.8 61.0004Z" fill="#4F358E"/>
<path d="M20.8 55.2002C20.4 55.2002 20 54.9002 20 54.4002V50.6002C20 50.2002 20.3 49.8002 20.8 49.8002C21.2 49.8002 21.6 50.1002 21.6 50.6002V54.4002C21.5 54.9002 21.2 55.2002 20.8 55.2002ZM20.8 47.7002C20.4 47.7002 20 47.4002 20 46.9002V43.1002C20 42.7002 20.3 42.3002 20.8 42.3002C21.2 42.3002 21.6 42.6002 21.6 43.1002V46.9002C21.5 47.3002 21.2 47.7002 20.8 47.7002ZM20.8 40.1002C20.4 40.1002 20 39.8002 20 39.3002V35.5002C20 35.1002 20.3 34.7002 20.8 34.7002C21.2 34.7002 21.6 35.0002 21.6 35.5002V39.3002C21.5 39.8002 21.2 40.1002 20.8 40.1002ZM20.8 32.6002C20.4 32.6002 20 32.3002 20 31.9002V28.0002C20 27.6002 20.3 27.2002 20.8 27.2002C21.2 27.2002 21.6 27.5002 21.6 28.0002V31.8002C21.5 32.2002 21.2 32.6002 20.8 32.6002Z" fill="#4F358E"/>
<path d="M20.8 25.0004C20.4 25.0004 20 24.7004 20 24.2004V22.2004C20 21.8004 20.3 21.4004 20.8 21.4004H22.8C23.2 21.4004 23.6 21.7004 23.6 22.2004C23.6 22.6004 23.3 23.0004 22.8 23.0004H21.5V24.3004C21.5 24.7004 21.2 25.0004 20.8 25.0004Z" fill="#4F358E"/>
<path d="M52.9997 23.0004H49.1997C48.7997 23.0004 48.3997 22.7004 48.3997 22.2004C48.3997 21.8004 48.6997 21.4004 49.1997 21.4004H52.9997C53.3997 21.4004 53.7997 21.7004 53.7997 22.2004C53.6997 22.7004 53.3997 23.0004 52.9997 23.0004ZM45.3997 23.0004H41.5997C41.1997 23.0004 40.7997 22.7004 40.7997 22.2004C40.7997 21.8004 41.0997 21.4004 41.5997 21.4004H45.3997C45.7997 21.4004 46.1997 21.7004 46.1997 22.2004C46.1997 22.7004 45.7997 23.0004 45.3997 23.0004ZM37.8997 23.0004H34.0997C33.6997 23.0004 33.2997 22.7004 33.2997 22.2004C33.2997 21.8004 33.5997 21.4004 34.0997 21.4004H37.8997C38.2997 21.4004 38.6997 21.7004 38.6997 22.2004C38.5997 22.7004 38.2997 23.0004 37.8997 23.0004ZM30.2997 23.0004H26.4997C26.0997 23.0004 25.6997 22.7004 25.6997 22.2004C25.6997 21.8004 25.9997 21.4004 26.4997 21.4004H30.2997C30.6997 21.4004 31.0997 21.7004 31.0997 22.2004C31.0997 22.7004 30.6997 23.0004 30.2997 23.0004Z" fill="#4F358E"/>
<path d="M58.7999 25.0004C58.3999 25.0004 57.9999 24.7004 57.9999 24.2004V23.0004H56.6999C56.2999 23.0004 55.8999 22.7004 55.8999 22.2004C55.8999 21.8004 56.1999 21.4004 56.6999 21.4004H58.6999C59.0999 21.4004 59.4999 21.7004 59.4999 22.2004V24.2004C59.4999 24.7004 59.1999 25.0004 58.7999 25.0004Z" fill="#4F358E"/>
<path d="M58.8 55.2002C58.4 55.2002 58 54.9002 58 54.4002V50.6002C58 50.2002 58.3 49.8002 58.8 49.8002C59.2 49.8002 59.6 50.1002 59.6 50.6002V54.4002C59.5 54.9002 59.2 55.2002 58.8 55.2002ZM58.8 47.7002C58.4 47.7002 58 47.4002 58 46.9002V43.1002C58 42.7002 58.3 42.3002 58.8 42.3002C59.2 42.3002 59.6 42.6002 59.6 43.1002V46.9002C59.5 47.3002 59.2 47.7002 58.8 47.7002ZM58.8 40.1002C58.4 40.1002 58 39.8002 58 39.3002V35.5002C58 35.1002 58.3 34.7002 58.8 34.7002C59.2 34.7002 59.6 35.0002 59.6 35.5002V39.3002C59.5 39.8002 59.2 40.1002 58.8 40.1002ZM58.8 32.6002C58.4 32.6002 58 32.3002 58 31.9002V28.0002C58 27.6002 58.3 27.2002 58.8 27.2002C59.2 27.2002 59.6 27.5002 59.6 28.0002V31.8002C59.5 32.2002 59.2 32.6002 58.8 32.6002Z" fill="#4F358E"/>
<path d="M22.6997 25.2002H18.6997C18.0997 25.2002 17.6997 24.8002 17.6997 24.2002V20.2002C17.6997 19.6002 18.0997 19.2002 18.6997 19.2002H22.6997C23.2997 19.2002 23.6997 19.6002 23.6997 20.2002V24.2002C23.6997 24.8002 23.2997 25.2002 22.6997 25.2002Z" fill="#D7B4ED"/>
<path d="M20.6997 23.2002H17.6997V20.2002C17.6997 19.6002 18.0997 19.2002 18.6997 19.2002H21.6997V22.2002C21.6997 22.8002 21.2997 23.2002 20.6997 23.2002Z" fill="white"/>
<path d="M22.6999 26.0004H18.6999C17.6999 26.0004 16.8999 25.2004 16.8999 24.2004V20.2004C16.8999 19.2004 17.6999 18.4004 18.6999 18.4004H22.6999C23.6999 18.4004 24.4999 19.2004 24.4999 20.2004V24.2004C24.4999 25.2004 23.6999 26.0004 22.6999 26.0004ZM18.6999 20.0004C18.5999 20.0004 18.3999 20.1004 18.3999 20.3004V24.3004C18.3999 24.4004 18.4999 24.6004 18.6999 24.6004H22.6999C22.7999 24.6004 22.9999 24.5004 22.9999 24.3004V20.3004C22.9999 20.2004 22.8999 20.0004 22.6999 20.0004H18.6999Z" fill="#4F358E"/>
<path d="M60.7998 25.2002H56.7998C56.1998 25.2002 55.7998 24.8002 55.7998 24.2002V20.2002C55.7998 19.6002 56.1998 19.2002 56.7998 19.2002H60.7998C61.3998 19.2002 61.7998 19.6002 61.7998 20.2002V24.2002C61.7998 24.8002 61.2998 25.2002 60.7998 25.2002Z" fill="#D7B4ED"/>
<path d="M58.7998 23.2002H55.7998V20.2002C55.7998 19.6002 56.1998 19.2002 56.7998 19.2002H59.7998V22.2002C59.7998 22.8002 59.2998 23.2002 58.7998 23.2002Z" fill="white"/>
<path d="M60.8 26.0004H56.8C55.8 26.0004 55 25.2004 55 24.2004V20.2004C55 19.2004 55.8 18.4004 56.8 18.4004H60.8C61.8 18.4004 62.6 19.2004 62.6 20.2004V24.2004C62.5 25.2004 61.7 26.0004 60.8 26.0004ZM56.8 20.0004C56.7 20.0004 56.5 20.1004 56.5 20.3004V24.3004C56.5 24.4004 56.6 24.6004 56.8 24.6004H60.8C60.9 24.6004 61.1 24.5004 61.1 24.3004V20.3004C61.1 20.2004 61 20.0004 60.8 20.0004H56.8Z" fill="#4F358E"/>
<path d="M22.6997 63.3003H18.6997C18.0997 63.3003 17.6997 62.9003 17.6997 62.3003V58.3003C17.6997 57.7003 18.0997 57.3003 18.6997 57.3003H22.6997C23.2997 57.3003 23.6997 57.7003 23.6997 58.3003V62.3003C23.6997 62.8003 23.2997 63.3003 22.6997 63.3003Z" fill="#D7B4ED"/>
<path d="M20.6997 61.3003H17.6997V58.3003C17.6997 57.7003 18.0997 57.3003 18.6997 57.3003H21.6997V60.3003C21.6997 60.8003 21.2997 61.3003 20.6997 61.3003Z" fill="white"/>
<path d="M22.6999 64.0004H18.6999C17.6999 64.0004 16.8999 63.2004 16.8999 62.2004V58.2004C16.8999 57.2004 17.6999 56.4004 18.6999 56.4004H22.6999C23.6999 56.4004 24.4999 57.2004 24.4999 58.2004V62.2004C24.4999 63.2004 23.6999 64.0004 22.6999 64.0004ZM18.6999 58.0004C18.5999 58.0004 18.3999 58.1004 18.3999 58.3004V62.3004C18.3999 62.4004 18.4999 62.6004 18.6999 62.6004H22.6999C22.7999 62.6004 22.9999 62.5004 22.9999 62.3004V58.3004C22.9999 58.2004 22.8999 58.0004 22.6999 58.0004H18.6999Z" fill="#4F358E"/>
<path d="M60.7998 63.3003H56.7998C56.1998 63.3003 55.7998 62.9003 55.7998 62.3003V58.3003C55.7998 57.7003 56.1998 57.3003 56.7998 57.3003H60.7998C61.3998 57.3003 61.7998 57.7003 61.7998 58.3003V62.3003C61.7998 62.8003 61.2998 63.3003 60.7998 63.3003Z" fill="#D7B4ED"/>
<path d="M58.7998 61.3003H55.7998V58.3003C55.7998 57.7003 56.1998 57.3003 56.7998 57.3003H59.7998V60.3003C59.7998 60.8003 59.2998 61.3003 58.7998 61.3003Z" fill="white"/>
<path d="M60.8 64.0004H56.8C55.8 64.0004 55 63.2004 55 62.2004V58.2004C55 57.2004 55.8 56.4004 56.8 56.4004H60.8C61.8 56.4004 62.6 57.2004 62.6 58.2004V62.2004C62.5 63.2004 61.7 64.0004 60.8 64.0004ZM56.8 58.0004C56.7 58.0004 56.5 58.1004 56.5 58.3004V62.3004C56.5 62.4004 56.6 62.6004 56.8 62.6004H60.8C60.9 62.6004 61.1 62.5004 61.1 62.3004V58.3004C61.1 58.2004 61 58.0004 60.8 58.0004H56.8Z" fill="#4F358E"/>
<path d="M7.7998 21.3003L19.7998 9.30029V21.3003H7.7998Z" fill="#D7B4ED"/>
<path d="M7.7998 21.3003L19.7998 9.30029L14.7998 21.3003H7.7998Z" fill="white"/>
<path d="M19.7998 22.0002H7.79985C7.49985 22.0002 7.19985 21.8002 7.09985 21.5002C6.99985 21.2002 6.99985 20.9002 7.29985 20.7002L19.2998 8.70017C19.4998 8.50017 19.7998 8.40017 20.0998 8.50017C20.3998 8.60017 20.5998 8.90017 20.5998 9.20017V21.2002C20.4998 21.7002 20.1998 22.0002 19.7998 22.0002ZM9.59985 20.5002H18.9998V11.1002L9.59985 20.5002Z" fill="#4F358E"/>
<path d="M47.2998 55.3003H52.7998L44.6998 27.3003H34.7998L26.7998 55.3003H32.1998L34.0998 48.5003H45.3998L47.2998 55.3003Z" fill="white"/>
<path d="M26.7998 55.3003H32.1998L32.6998 53.3003H27.2998L26.7998 55.3003Z" fill="#D7B4ED"/>
<path d="M44.6998 27.3003H42.2998L49.4998 52.7003C49.5998 53.0003 49.3998 53.3003 48.9998 53.3003H46.6998L47.2998 55.3003H52.6998L44.6998 27.3003Z" fill="#D7B4ED"/>
<path d="M52.8 56H47.4C47.1 56 46.8 55.8 46.7 55.5L44.9 49.3H34.7L32.9 55.5C32.8 55.8 32.5 56 32.2 56H26.8C26.6 56 26.3 55.9 26.2 55.7C26 55.5 26 55.3 26 55L34 27C34.1 26.7 34.4 26.5 34.7 26.5H44.7C45 26.5 45.3 26.7 45.4 27L53.4 55C53.5 55.2 53.4 55.5 53.3 55.7C53.2 55.9 53 56 52.8 56ZM47.9 54.5H51.8L44.2 28H35.3L27.7 54.5H31.6L33.4 48.3C33.5 48 33.8 47.8 34.1 47.8H45.4C45.7 47.8 46 48 46.1 48.3L47.9 54.5Z" fill="#4F358E"/>
<path d="M35.5 43.5003L38.8 32.3003H40.7L44 43.5003H35.5Z" fill="white"/>
<path d="M43.9999 43.5003L40.7999 32.3003H38.7999L38.4999 33.0003L40.6999 40.8003C40.7999 41.1003 40.5999 41.4003 40.1999 41.4003H35.9999L35.3999 43.4003H43.9999V43.5003Z" fill="#D7B4ED"/>
<path d="M43.9998 44.2H35.5998C35.3998 44.2 35.0998 44.1 34.9998 43.9C34.8998 43.7 34.7998 43.5 34.8998 43.2L37.9998 32C38.0998 31.7 38.3998 31.5 38.6998 31.5H40.6998C40.9998 31.5 41.2998 31.7 41.3998 32L44.5998 43.2C44.6998 43.4 44.5998 43.7 44.4998 43.9C44.3998 44.1 44.1998 44.2 43.9998 44.2ZM36.4998 42.7H42.9998L40.1998 33H39.2998L36.4998 42.7Z" fill="#4F358E"/>
<path d="M12.8 62.0003C12.4 62.0003 12 61.7003 12 61.2003V47.6003C12 47.2003 12.3 46.8003 12.8 46.8003C13.2 46.8003 13.6 47.1003 13.6 47.6003V61.3003C13.5 61.7003 13.2 62.0003 12.8 62.0003Z" fill="#4F358E"/>
<path d="M12.8 44.3004C12.4 44.3004 12 44.0004 12 43.5004V41.2004C12 40.8004 12.3 40.4004 12.8 40.4004C13.2 40.4004 13.6 40.7004 13.6 41.2004V43.5004C13.5 44.0004 13.2 44.3004 12.8 44.3004Z" fill="#4F358E"/>
<path d="M66.8 47.0002C66.4 47.0002 66 46.7002 66 46.2002V36.5002C66 36.1002 66.3 35.7002 66.8 35.7002C67.2 35.7002 67.6 36.0002 67.6 36.5002V46.2002C67.5 46.7002 67.2 47.0002 66.8 47.0002Z" fill="#4F358E"/>
<path d="M66.8 33.3004C66.4 33.3004 66 33.0004 66 32.5004V30.2004C66 29.8004 66.3 29.4004 66.8 29.4004C67.2 29.4004 67.6 29.7004 67.6 30.2004V32.5004C67.5 33.0004 67.2 33.3004 66.8 33.3004Z" fill="#4F358E"/>
</g>
<defs>
<clipPath id="clip0">
<rect width="80.5" height="80.5" fill="white"/>
</clipPath>
</defs>
</svg>
