<svg fill="none" height="17" viewBox="0 0 17 17" width="17" xmlns="http://www.w3.org/2000/svg" xmlns:xlink="http://www.w3.org/1999/xlink"><clipPath id="a"><path d="m0 0h16.56v16.625h-16.56z"/></clipPath><g clip-path="url(#a)"><path clip-rule="evenodd" d="m16.4298 14.5798-3.4401-3.437c-.0575-.0432-.0959-.1072-.1071-.1783s.0057-.1438.0472-.2027c.7181-1.1197 1.0934-2.42482 1.08-3.75497 0-1.38447-.4106-2.73784-1.1797-3.88899-.7692-1.15114-1.8624-2.04834-3.14151-2.578153-1.27908-.52981385-2.68657-.668443-4.04443-.398346-1.35787.270096-2.60514.936789-3.58411 1.915759-.97897.97896-1.645675 2.22624-1.915772 3.5841-.270096 1.35787-.1314978 2.76534.398316 4.04442.529816 1.27908 1.427106 2.37238 2.578246 3.14148 1.15115.7692 2.50445 1.1797 3.88892 1.1797 1.32863.0129 2.63206-.3629 3.75004-1.081.0602-.0372.1319-.0513.2017-.0397.0699.0116.1332.0481.1783.1027l3.44 3.436c.0573.0605.1263.1087.2028.1416s.1589.0498.2422.0498.1656-.0169.2422-.0498c.0765-.0329.1454-.0811.2027-.1416l.89-.89c.1196-.1269.1919-.2911.2046-.465.0128-.1739-.0347-.347-.1345-.49zm-9.42004-3.054c-.88133.001-1.74317-.2594-2.47644-.7483-.73328-.489-1.30499-1.18439-1.64295-1.99834-.33795-.81396-.42695-1.70986-.25561-2.57437.17133-.86452.59529-1.65879 1.21814-2.28234.62284-.62354 1.41656-1.04834 2.28088-1.22064s1.76037-.08437 2.57471.25267c.81433.33704 1.51041.90805 2.00011 1.64078.4898.73273.7512 1.59426.7512 2.47559-.0013 1.18026-.4704 2.31188-1.3045 3.14695-.83414.835-1.96528 1.3054-3.14554 1.308z" fill="#7f5c93" fill-rule="evenodd"/></g></svg>