<svg xmlns="http://www.w3.org/2000/svg" xmlns:xlink="http://www.w3.org/1999/xlink" viewBox="0 0 3000 2000"><defs><style>.cls-1{isolation:isolate;}.cls-2{fill:#9871d0;opacity:0.5;}.cls-10,.cls-11,.cls-12,.cls-13,.cls-14,.cls-15,.cls-16,.cls-17,.cls-18,.cls-19,.cls-2,.cls-20,.cls-21,.cls-22,.cls-23,.cls-3,.cls-4,.cls-5,.cls-6,.cls-7,.cls-8,.cls-9{fill-rule:evenodd;}.cls-15,.cls-2{mix-blend-mode:multiply;}.cls-3{fill:#303a7d;}.cls-4{fill:#e9eeff;}.cls-5{fill:url(#Безымянный_градиент_7);}.cls-24,.cls-6{fill:#fff;}.cls-7{fill:url(#Безымянный_градиент_7-2);}.cls-8{fill:#d4cfe5;}.cls-9{fill:url(#Безымянный_градиент_13);}.cls-10{fill:url(#linear-gradient);}.cls-11{fill:#161f69;}.cls-12{fill:#161a40;}.cls-13{fill:url(#linear-gradient-2);}.cls-14{fill:url(#Безымянный_градиент_18);}.cls-15,.cls-19{opacity:0.3;}.cls-15{fill:url(#linear-gradient-3);}.cls-16{fill:#fb705b;}.cls-17{fill:url(#linear-gradient-4);}.cls-18{fill:url(#Безымянный_градиент_18-2);}.cls-19{fill:#0960ac;}.cls-20{fill:url(#linear-gradient-5);}.cls-21{fill:#ffa698;}.cls-22{fill:url(#Безымянный_градиент_23);}.cls-23{fill:url(#linear-gradient-6);}.cls-24{font-size:73.2px;font-family:Montserrat-Bold, Montserrat;font-weight:700;letter-spacing:-0.01em;}.cls-25{letter-spacing:0em;}</style><linearGradient id="Безымянный_градиент_7" x1="1244.04" y1="602.53" x2="1854.74" y2="602.53" gradientUnits="userSpaceOnUse"><stop offset="0" stop-color="#b16afe"/><stop offset="1" stop-color="#abb0f7"/></linearGradient><linearGradient id="Безымянный_градиент_7-2" x1="1313.75" y1="1440.96" x2="1791.21" y2="1440.96" xlink:href="#Безымянный_градиент_7"/><linearGradient id="Безымянный_градиент_13" x1="1357.75" y1="890.5" x2="1761" y2="890.5" gradientUnits="userSpaceOnUse"><stop offset="0" stop-color="#d2a1fe"/><stop offset="1" stop-color="#d8d3f7"/></linearGradient><linearGradient id="linear-gradient" x1="1938.68" y1="1409.42" x2="1998.87" y2="1520.64" gradientUnits="userSpaceOnUse"><stop offset="0" stop-color="#ff8a78"/><stop offset="1" stop-color="#ffa799"/></linearGradient><linearGradient id="linear-gradient-2" x1="1950.16" y1="1633.86" x2="1903.36" y2="1523.51" gradientUnits="userSpaceOnUse"><stop offset="0" stop-color="#ffb89e"/><stop offset="1" stop-color="#ffa799"/></linearGradient><linearGradient id="Безымянный_градиент_18" x1="1973.75" y1="1335.46" x2="1936.56" y2="853.21" gradientUnits="userSpaceOnUse"><stop offset="0" stop-color="#ffa6f8"/><stop offset="1" stop-color="#7f295e"/></linearGradient><linearGradient id="linear-gradient-3" x1="1884.62" y1="1060" x2="1894.83" y2="888.27" gradientUnits="userSpaceOnUse"><stop offset="0" stop-color="#1c8ef4"/><stop offset="1" stop-color="#00cfdd"/></linearGradient><linearGradient id="linear-gradient-4" x1="1721.45" y1="861.04" x2="1731.37" y2="854.86" xlink:href="#linear-gradient"/><linearGradient id="Безымянный_градиент_18-2" x1="1746.78" y1="940.63" x2="1882.38" y2="949.95" xlink:href="#Безымянный_градиент_18"/><linearGradient id="linear-gradient-5" x1="1951.59" y1="773.98" x2="1938.16" y2="813.78" xlink:href="#linear-gradient"/><linearGradient id="Безымянный_градиент_23" x1="1912.97" y1="817.06" x2="2000.63" y2="817.06" gradientUnits="userSpaceOnUse"><stop offset="0" stop-color="#632e5e"/><stop offset="1" stop-color="#822050"/></linearGradient><linearGradient id="linear-gradient-6" x1="1949.19" y1="672.71" x2="2034.01" y2="935.17" gradientUnits="userSpaceOnUse"><stop offset="0" stop-color="#5a2d68"/><stop offset="1" stop-color="#22043d"/></linearGradient></defs><title>пройти тест</title><g class="cls-1"><g id="Layer_1" data-name="Layer 1"><path class="cls-2" d="M1208.69,1784.59l512.81-292.89c19-8.7,47-16.9,65.66-5.53l47.76,29.1c9.61,5.85,41.21,25.28,20.07,36.77-62.17,33.81-459.42,265.91-522.55,300.25-11.94,6.49-29.41,8.84-47.74,7.32s-37.21-6.46-51.71-15.4l-19.08-11.77c-13.49-8.32-21-17.4-21.68-26.12C1191.53,1797.82,1197,1789.92,1208.69,1784.59Z"/><path class="cls-3" d="M1222.28,1751.25c.07,25,9,42.53,23.2,50.8l22.58,13.58c77.46-33.06,48.71-425.59,53.43-537.19l-23.78-585.65c20-34.94,96.93-65.44,79-136.8l227-106.27c10.08-6.85,275-160.28,227.45-189.05-8-4.81-15.83-9.66-23.68-14.22-17.56-10.39-39.94-4-56.37,5.51h0L1299.37,511.06c-44.34,25.55-79.12,87.36-79,136.79Z"/><path class="cls-4" d="M1854.25,311.43c-.07-24.47-8.54-41.85-22.28-50.31-14.46-8.92-34.76-8-57.22,5L1323,525.23c-43.72,25.25-79.12,86.56-79,136.8l1.88,1103.4c.14,50.24,35.78,70.55,79.5,45.3l451.73-259.1c43.77-25.27,79.12-86.56,79-136.8Z"/><path class="cls-5" d="M1854.25,311.43c-.07-24.47-8.54-41.85-22.28-50.31-14.46-8.92-34.76-8-57.22,5L1323,525.23c-43.72,25.25-79.12,86.56-79,136.8l.49,287.78a167.29,167.29,0,0,1,17.09-11.37l593.12-340.19Z"/><path class="cls-6" d="M1789.44,415.1c-.05-19.08-6.66-32.62-17.37-39.22-11.28-7-27.1-6.2-44.6,3.91l-352.15,202c-34.08,19.68-61.67,67.47-61.57,106.64l1.47,645.26c.11,39.17,27.89,55,62,35.32l352.14-202c34.13-19.7,61.68-67.48,61.57-106.64Z"/><path class="cls-7" d="M1790.31,1251.91c0-11.65-4.07-19.92-10.61-23.95-6.88-4.24-16.55-3.79-27.23,2.38l-401.13,229.2c-20.81,12-37.66,41.2-37.59,65.12l.9,105.36c.07,23.91,17,33.58,37.84,21.56l401.12-229.2c20.84-12,37.66-41.2,37.6-65.12Z"/><path class="cls-8" d="M1760.24,530.83c0-9.84-3.44-16.83-9-20.23-5.81-3.58-14-3.2-23,2L1389.5,706.19c-17.57,10.15-31.81,34.8-31.75,55l.76,89c.06,20.2,14.38,28.36,32,18.21l338.78-193.57c17.6-10.16,31.81-34.8,31.75-55Z"/><path class="cls-9" d="M1760.24,730.83c0-9.84-3.44-16.83-9-20.23-5.81-3.58-14-3.2-23,2L1389.5,906.19c-17.57,10.15-31.81,34.8-31.75,55l.76,89c.06,20.2,14.38,28.36,32,18.21l338.78-193.57c17.6-10.16,31.81-34.8,31.75-55Z"/><path class="cls-8" d="M1760.24,932.83c0-9.84-3.44-16.83-9-20.23-5.81-3.58-14-3.2-23,2L1389.5,1108.19c-17.57,10.15-31.81,34.8-31.75,55l.76,89c.06,20.2,14.38,28.36,32,18.21l338.78-193.57c17.6-10.16,31.81-34.8,31.75-55Z"/><path class="cls-2" d="M1758.7,1717.82l223.91-127.52c24.41-11.15,59.35-20,84.22-7.09,22.66,11.79,60,35.93,76.49,45.34,12.54,7.15,56.06,33.22,29,48-79.74,43.36-158.65,92.12-239.62,136.17-15.31,8.33-37.71,11.34-61.23,9.39s-47.43-8.77-66.32-19.75l-39.71-23.11c-17.56-10.23-26.88-22.32-27.8-33.5C1736.7,1734.78,1743.71,1724.66,1758.7,1717.82Z"/><path class="cls-10" d="M2003.43,1636.06c14.63-8.87,34.69-20.68,20.46-46.68-7.63-13.94-5.38-24.14-3.15-40.56,4.37-32.23,16.38-78.87,16.07-108.3-.36-33.79-12.19-49.61-18.19-108.35-10.12-26.37-59-33.24-54.45,32.14,1.13,16.11.35,68,5.1,99.56,4.11,27.28,8,56.12,10.25,75.14,4.9,41.77-4.41,56.41-7.58,83.82C1966.17,1672.59,1924.47,1683.92,2003.43,1636.06Z"/><path class="cls-11" d="M2005.12,1578.1c-6.52.31-15.23,8.5-18.71,13.06-15.81,20.74-17.3,67.8-28.35,68.51-3.18.21-14.72-12.76-23-12.66-2.52,0-5-.24-6.28,1.73-4.33,6.76,22.83,28.1,30.94,33.2,3.59,4.62,34.95-2.3,39.45-5.1l.29-.19c.21,8.39.25,16.65.65,24.31l3.93,2.82,4.93-1.86c1-19.53,8.83-48.41,14.58-67.76,9.65-11.27,11.43-24.7-1.43-47.64C2018.37,1579.79,2010.54,1577.84,2005.12,1578.1Z"/><path class="cls-12" d="M1960.41,1682.52c5.79,3.4,34.47-3,38.77-5.67l.29-.19c-.39-16-1.37-32.45-6.48-46-.69.26-1.38.53-2.06.82C1981.62,1635.38,1969.23,1676,1960.41,1682.52Z"/><path class="cls-13" d="M1909.71,1687.43c-3.16,4.78-19.46,8.59-27.65,10.14-14.89,4.06,27.23,17.43,38.43,19,24,3.39,6.62-30.56,35.73-49.86,13.38-8.87,31.76-20.68,13.86-46.68-9.6-13.94-10.45-23.57-10.55-40-.19-32.23,7.28-90.9,2.8-120.33-5.14-33.79-15-50.19-33.92-96.89-2.83-7-2.74-14.85-4.42-22.38-11-49.25-66.53-36.72-65.08-10.64.63,11.42.66,22.38,3.31,31.72.3,13.09,9.3,28.31,13.42,38.89,3.4,16.11,12.83,62.53,22,94.11C1912,1543.52,1936.64,1646.76,1909.71,1687.43Z"/><path class="cls-11" d="M1968.87,1617.27c12.93,5.21,22.31,28.72,17.23,49.52-6.07,23.24-7.26,40.6-9.19,67.24l-5.52,1.76-4.36-2.66.07-51.45c-6.45,7-15.22,25.79-21.86,35.92-5.58,8.53-11.94,10.1-25.35,10.69a80.34,80.34,0,0,1-46.47-12.63c-11.93-7.93-13.11-15.61,2.41-18.17,6.83-1.13,16.12-3.67,18.81-4.18-3,.75-11,5.83-6.08,9.94,7,5.89,28.32,3,30.55,1.29,13.65-10.77,21.92-31.6,28.88-50.4C1954.2,1637.35,1958.35,1622.18,1968.87,1617.27Z"/><path class="cls-12" d="M1967.1,1681.11c-2.07,4.8-10.84,17.68-17.77,30.19-3.08,5.56-7.94,13.75-14.73,14.78C1946.26,1714.65,1944.8,1687.38,1967.1,1681.11Z"/><path class="cls-14" d="M2032.8,1073.78c14.32,35.21,18.65,75.83-2,116.7-1.35,12.58-3.21,25.29-5.1,38-4.15,40.39-1,76.37-3.47,113.54-22.53,19.51-60,46.83-93.76,49.83a50.82,50.82,0,0,1-10.48-.19c-18.6-2.05-51-15.81-56.63-32.66-3.51-30.76-7.89-66.24-10.67-105.35-3.93-33.51-4.2-65.44-2.41-96.93,2-24.77.19-43.24,8.83-67.25,10.75-29.87,25.57-56.51,25.87-90.05.17-19.42-7.33-37.7-9-56.93-18.81-27.52-24.14-49.69-18.4-62.79,16.47-37.54,119.82-83.57,159.8-88.09,45.09-5.1,43.09,71.57,26.07,105.94-21.82,44.08-29.06,68.66-31,87.89C2007.92,1010.89,2018.39,1032.82,2032.8,1073.78Z"/><path class="cls-15" d="M1866.34,1065.86c8.47-21.08,16.44-41.9,16.65-66.41.54-61-52-88.73,10.33-130.18,11.58,9.79,18.91,36.68,21.48,67.34,3.32,39.6,4.9,81.38-.17,117.23C1910,1086.46,1874.31,1081.78,1866.34,1065.86Z"/><path class="cls-16" d="M1717.39,863.84l-12.19-.34c1.15-6.48,3.79-5.66.75-15.48l2.67-4.66Z"/><path class="cls-17" d="M1761.93,877.68c-7.22-14.64-13.62-41.06-22.82-52.84-5.68-7.22-13.51-23.26-18.7-32-2.1-3.54-5.6-2.57-7.79,0l0,0-.12.19a8.7,8.7,0,0,0-.73,1.07,3.47,3.47,0,0,0-.33.76,6,6,0,0,0-.21,5.89c1.8,3.81,6.14,13.32,9.34,19.36a36.94,36.94,0,0,0,3.43,5.33c-5.8,1.71-11.75,4.53-15.44,7.78-.25.22-.49.44-.72.67a38.32,38.32,0,0,0-5.06,6.46c-4,5.19-4.77,5-2.76,10.91l5.18,12.24c6.12-6.65,4-5,.95-14.86l.77-1.25c1.41,2.91,3.29,6.21,5.07,10.05,2.2,4.75,1.52,13.27,3.35,17.66l.12.28a19.28,19.28,0,0,0,2.84,4.45,24,24,0,0,0,1.89,2l.67.61.34.3.34.29.35.29.7.56.35.27.35.27.36.26.36.26.36.26.36.25.72.5.71.49.36.24.71.48.35.24.35.24.34.24.34.24.67.47.33.24.33.24.32.24.31.24.31.24.3.24.3.25.29.25.29.25.28.26.27.26.26.26.25.27.25.27.24.27.23.28.22.28.21.29.2.29.19.3.18.3.1.35.1.35.1.35.1.35.1.35.2.7.19.71.1.35.09.35.09.36.19.71.09.36.19.71.09.36.09.36.09.36.09.36.09.36.09.36.09.36.09.36.09.36.17.72.08.36.09.36.17.72.08.36.17.73.25,1.09.16.73.08.37.08.37.16.73.08.37.31,1.47.08.37.23,1.11.22,1.11.58,3h0l.88,0h.19l.47,0h0l1.47-.14.21,0,.25,0,.48-.06q.75-.1,1.48-.23l.25,0,.23,0,.21,0,1-.21.27-.06.24-.05.14,0,.45-.11.24-.06.89-.24.27-.08a38,38,0,0,0,3.61-1.25l.1,0,.34-.14.15-.06.35-.15.08,0,.4-.18.12-.06c6.49-3,12.37-7.88,17.82-14.93C1769.52,891.83,1765.92,884.77,1761.93,877.68Z"/><path class="cls-18" d="M1859.79,871.67c-17.58,16.76-38.84,48-58,76.3-9.45-20.05-19.91-41.37-29.25-55.08-1.77-2.6-3.58-3.79-5.24-5.79l-2.9-5.42c-10-10.83-31.61,3.34-30.45,17.45l1.78,5.19c.17,2.6-.36,5.69-.39,8.59-.1,7.75,32.81,87.66,38.22,101.62,8,12.06,17.1,17.95,24.66,17.55,5.67-.3,10.59-3.87,14.54-8.82,1-1,2-2.1,3.07-3.32,17.64-20.83,41.21-49.05,54.65-67,9.12-12.18,23.72-30.72,30.67-48.83C1915,868.07,1883.4,849.17,1859.79,871.67Z"/><path class="cls-19" d="M2011.75,794.15c75.91-8.58,13.22,136,9.25,149.79-6.48,17.47-9.39,30.41-10.51,41.55-2.57,25.41,7.9,47.34,22.32,88.3,14.32,35.21,18.65,75.83-2,116.7-1.35,12.58-3.21,25.29-5.1,38-4.15,40.39-1,76.37-3.47,113.54a301.6,301.6,0,0,1-40.44,29.77c-101.67-137.5,73.33-194.49,1.62-329.15-13.82-26-67.23-58.61-86.73-100.43-15.38-33-3.18-55.12,18.38-77.18,20.62-21.08,58.17-17.08,66.76-32.82,1.21-2.22-4.93-21.68-3.94-24.05C2004.58,796.45,1996.07,795.92,2011.75,794.15Z"/><path class="cls-20" d="M1997.91,813.78c3.34,14.17-48.4,29.48-66.13,21.78l-.37-3.43c-4.57-21.14-9.06-39.11-12.23-54-8.24,3.51-28.48,4.54-30.27,1.71,54.55-43.57,118.34-75.78,126.54-53.78-5.4,15.93-19.37,27.26-26.35,37.64-1.85,2.76-3.31,8.5-3.66,14.26h0C1987.45,789.22,1991.72,800,1997.91,813.78Z"/><path class="cls-21" d="M1889.21,780.12c4.7,3.07,38.1-8,40.79-7.9,26,1.29,53.94-.83,59.09-8.49,7-10.38,20.95-21.7,26.35-37.64,8.64-25.46,7-54.19-16.33-74.18-40.49-34.77-104-9.29-113.09,30.09-3.73,16.15.89,17.49.13,28.31-1.41,19.93-3.67,12.42-1.83,44C1885,766.28,1886.1,778.08,1889.21,780.12Z"/><path class="cls-22" d="M1990.44,794.78c-1.42,12.9-37.72,22-59.74,16.86-2.36-.55-3.82-1-4.67-2.49-3.23,1.78-12.05,14.51-13.05,20.85,19,18.34,79.16,7.59,86.47-13.9C2001.19,811,2002.8,801.26,1990.44,794.78Z"/><path class="cls-23" d="M2090.65,752c34.61,28.95,54.11,81.07,38.36,110.64-14.27,26.8-49.08,42.57-38.37,59.53,8.86,14,29.69,28.08,4.9,50.72-12.76,11.66-43.94,42.93-107.57,26.73-62-15.79-127.11-69.37-74.86-128,55-61.65,22.82-75.28-8.72-123.77-16.68-25.63-31.59-76.29-17.3-95.14,24.51-32.32,40.78-9,64.36-20.45,45-21.78,81.87-6.21,103,27.85C2073.42,690.69,2063.13,729,2090.65,752Z"/><text class="cls-24" transform="matrix(0.82, -0.49, 0.02, 1, 1393.01, 1568.7)">О<tspan class="cls-25" x="60.9" y="0">ТВЕТИТЬ</tspan></text></g></g></svg>