<svg xmlns="http://www.w3.org/2000/svg" viewBox="0 0 1357.1 72.7"><defs><style>.cls-1{fill:#ddd;}</style></defs><title>disclaimer</title><g id="Слой_2" data-name="Слой 2"><g id="Layer_1" data-name="Layer 1"><polygon class="cls-1" points="13.1 0.5 12.7 0.5 12.6 0.9 7.1 28.9 3.1 49.4 3.1 1 3.1 0.5 2.6 0.5 0.5 0.5 0 0.5 0 1 0 63.6 0 64.1 0.5 64.1 3 64.1 3.4 64.1 3.4 63.7 9.1 34.3 13.2 13.4 13.2 63.6 13.2 64.1 13.7 64.1 15.8 64.1 16.3 64.1 16.3 63.6 16.3 1 16.3 0.5 15.8 0.5 13.1 0.5"/><polygon class="cls-1" points="37.3 0.5 36.8 0.5 36.8 1 30.1 52.5 23.4 1 23.3 0.5 22.9 0.5 19.7 0.5 19.2 0.5 19.2 1 19.2 63.6 19.2 64.1 19.7 64.1 21.7 64.1 22.2 64.1 22.2 63.6 22.2 15.8 28.4 63.6 28.5 64 28.9 64 31.2 64 31.6 64 31.7 63.6 37.8 15.8 37.8 63.6 37.8 64.1 38.3 64.1 40.5 64.1 41 64.1 41 63.6 41 1 41 0.5 40.5 0.5 37.3 0.5"/><polygon class="cls-1" points="44.4 0.5 43.9 0.5 43.9 1 43.9 63.6 43.9 64.1 44.4 64.1 58 64.1 58.5 64.1 58.5 63.6 58.5 59.8 58.5 59.3 58 59.3 47.2 59.3 47.2 34.2 56 34.2 56.5 34.2 56.5 33.7 56.5 30 56.5 29.5 56 29.5 47.2 29.5 47.2 5.3 58 5.3 58.5 5.3 58.5 4.8 58.5 1 58.5 0.5 58 0.5 44.4 0.5"/><path class="cls-1" d="M83.6,4.8a9.25,9.25,0,0,0-2.5-3.5A5.58,5.58,0,0,0,77.4,0a5.66,5.66,0,0,0-3.8,1.3,9.55,9.55,0,0,0-2.5,3.5,22.12,22.12,0,0,0-1.4,5.1,43.1,43.1,0,0,0-.4,6.4V29.9H64.4V.5H61.1V64h3.3V34.7h4.9V48.3a62.75,62.75,0,0,0,.4,6.4,20.79,20.79,0,0,0,1.4,5.1,9.25,9.25,0,0,0,2.5,3.5,5.49,5.49,0,0,0,3.8,1.3,5.41,5.41,0,0,0,3.7-1.3,10.48,10.48,0,0,0,2.5-3.5A22.12,22.12,0,0,0,85,54.7a42.23,42.23,0,0,0,.4-6.4v-32A62.75,62.75,0,0,0,85,9.9,22.12,22.12,0,0,0,83.6,4.8ZM77.4,59.9a3.23,3.23,0,0,1-2.1-.8,5.75,5.75,0,0,1-1.5-2.3,15.75,15.75,0,0,1-.9-3.6,33.78,33.78,0,0,1-.3-4.7V16a33.33,33.33,0,0,1,.3-4.6,15.75,15.75,0,0,1,.9-3.6,6.56,6.56,0,0,1,1.5-2.3,3.23,3.23,0,0,1,2.1-.8q2.55,0,3.6,3A24.69,24.69,0,0,1,82.2,16V48.5A24.69,24.69,0,0,1,81,56.8C80.2,58.9,79,59.9,77.4,59.9Z"/><polygon class="cls-1" points="88.1 0.5 87.6 0.5 87.6 1 87.6 4.8 87.6 5.3 88.1 5.3 94.6 5.3 94.6 63.6 94.6 64.1 95.1 64.1 97.4 64.1 97.9 64.1 97.9 63.6 97.9 5.3 104.4 5.3 104.9 5.3 104.9 4.8 104.9 1 104.9 0.5 104.4 0.5 88.1 0.5"/><path class="cls-1" d="M121.1,4.8a10.31,10.31,0,0,0-2.4-3.5,5.92,5.92,0,0,0-7.4,0,8.38,8.38,0,0,0-2.4,3.5,22.12,22.12,0,0,0-1.4,5.1,42.23,42.23,0,0,0-.4,6.4v32a43.1,43.1,0,0,0,.4,6.4,17.15,17.15,0,0,0,1.4,5.1,10.31,10.31,0,0,0,2.4,3.5,5.92,5.92,0,0,0,7.4,0,8.38,8.38,0,0,0,2.4-3.5,22.12,22.12,0,0,0,1.4-5.1,43.1,43.1,0,0,0,.4-6.4V40.7h-3.2v7.9a33.33,33.33,0,0,1-.3,4.6,15.75,15.75,0,0,1-.9,3.6,6.56,6.56,0,0,1-1.5,2.3,3,3,0,0,1-2.1.8,2.78,2.78,0,0,1-2.1-.8,5.75,5.75,0,0,1-1.5-2.3,15.75,15.75,0,0,1-.9-3.6,32.3,32.3,0,0,1-.3-4.6V16a33.33,33.33,0,0,1,.3-4.6,15.75,15.75,0,0,1,.9-3.6,5.75,5.75,0,0,1,1.5-2.3,3,3,0,0,1,2.1-.8,2.78,2.78,0,0,1,2.1.8,5.75,5.75,0,0,1,1.5,2.3,17.21,17.21,0,0,1,.9,3.6,32.3,32.3,0,0,1,.3,4.6v6h3.2V16.3a43.1,43.1,0,0,0-.4-6.4A23.62,23.62,0,0,0,121.1,4.8Z"/><path class="cls-1" d="M133.9.5a6.38,6.38,0,0,0-6.1,4c-1.2,2.6-1.8,6.1-1.8,10.6v5.5c0,6.8,1.5,11.1,4.4,12.9a8.19,8.19,0,0,0-3.2,4.2,25.78,25.78,0,0,0-1.2,8.6V56c0,1.3,0,2.6-.1,3.9a11.37,11.37,0,0,1-.7,3.4l-.2.7h3.5l.1-.4a16.15,16.15,0,0,0,.6-3.3c.1-1.2.1-2.6.1-4.4V46.1a25.1,25.1,0,0,1,.4-5.1,10,10,0,0,1,1.2-3.1,4.28,4.28,0,0,1,1.8-1.5,6.18,6.18,0,0,1,2.5-.5h3.1v28h3.3V.5h-7.7Zm4.4,4.8V31.4h-3.1a6.25,6.25,0,0,1-2.5-.4,4,4,0,0,1-1.8-1.4,8.49,8.49,0,0,1-1.2-3,23.88,23.88,0,0,1-.4-5.1V15.6a22.06,22.06,0,0,1,1.1-7.7,3.59,3.59,0,0,1,3.5-2.5h4.4Z"/><polygon class="cls-1" points="152.6 0.5 152.1 0.5 152.1 1 152.1 63.6 152.1 64.1 152.6 64.1 154.8 64.1 155.3 64.1 155.3 63.6 155.3 5.3 165 5.3 165 63.6 165 64.1 165.5 64.1 167.8 64.1 168.3 64.1 168.3 63.6 168.3 1 168.3 0.5 167.8 0.5 152.6 0.5"/><path class="cls-1" d="M178.8.5h-7.6V64h3.3V38.4h3.8a6.94,6.94,0,0,0,6.5-3.9c1.3-2.5,2-6.3,2-11.4V16.3a31.41,31.41,0,0,0-1.7-11.2C183.8,2,181.7.5,178.8.5Zm-.5,33.1h-3.8V5.3h4.4A3.5,3.5,0,0,1,182.4,8a24.4,24.4,0,0,1,1.1,8v7.3c0,3.7-.4,6.4-1.3,8A4.07,4.07,0,0,1,178.3,33.6Z"/><path class="cls-1" d="M203.2,4.8a9.25,9.25,0,0,0-2.5-3.5A5.58,5.58,0,0,0,197,0a5.41,5.41,0,0,0-3.7,1.3,9.55,9.55,0,0,0-2.5,3.5,22.12,22.12,0,0,0-1.4,5.1,43.1,43.1,0,0,0-.4,6.4v32a62.75,62.75,0,0,0,.4,6.4,20.79,20.79,0,0,0,1.4,5.1,9.25,9.25,0,0,0,2.5,3.5,5.92,5.92,0,0,0,7.4,0,9.25,9.25,0,0,0,2.5-3.5,22.12,22.12,0,0,0,1.4-5.1,43.1,43.1,0,0,0,.4-6.4v-32a62.75,62.75,0,0,0-.4-6.4A22.12,22.12,0,0,0,203.2,4.8Zm-6.3,55.1c-1.7,0-2.8-1-3.6-3a24.69,24.69,0,0,1-1.2-8.3V16a24.69,24.69,0,0,1,1.2-8.3q1-3,3.6-3t3.6,3a24.29,24.29,0,0,1,1.2,8.3V48.5a24.69,24.69,0,0,1-1.2,8.3C199.8,58.9,198.6,59.9,196.9,59.9Z"/><polygon class="cls-1" points="207.7 0.5 207.2 0.5 207.2 1 207.2 4.8 207.2 5.3 207.7 5.3 214.2 5.3 214.2 63.6 214.2 64.1 214.7 64.1 216.9 64.1 217.4 64.1 217.4 63.6 217.4 5.3 223.9 5.3 224.4 5.3 224.4 4.8 224.4 1 224.4 0.5 223.9 0.5 207.7 0.5"/><polygon class="cls-1" points="239.9 0.5 239.5 0.5 239.4 0.9 233.8 28.9 229.8 49.4 229.8 1 229.8 0.5 229.3 0.5 227.3 0.5 226.8 0.5 226.8 1 226.8 63.6 226.8 64.1 227.3 64.1 229.7 64.1 230.1 64.1 230.2 63.7 235.9 34.3 240 13.4 240 63.6 240 64.1 240.5 64.1 242.6 64.1 243.1 64.1 243.1 63.6 243.1 1 243.1 0.5 242.6 0.5 239.9 0.5"/><path class="cls-1" d="M257.3,30.2a6.91,6.91,0,0,0,2.9-4,31.05,31.05,0,0,0,1-8.4V14.2c0-4.4-.5-7.8-1.6-10.1A6.05,6.05,0,0,0,253.7.4H246V64h7.9a6.55,6.55,0,0,0,6.2-4.1c1.2-2.6,1.8-6.3,1.8-10.8V43.6a28.39,28.39,0,0,0-1.2-9A8.6,8.6,0,0,0,257.3,30.2Zm-4.8-2.1h-3.3V5.3h4.4a3.25,3.25,0,0,1,3.3,2.2,19,19,0,0,1,1,7.2v4a32.3,32.3,0,0,1-.3,4.8,8.89,8.89,0,0,1-1,2.9,3.56,3.56,0,0,1-1.6,1.4A9,9,0,0,1,252.5,28.1Zm1.3,31.2h-4.6V32.9H253a4.36,4.36,0,0,1,4.1,2.2c1,1.6,1.4,4.3,1.4,8.3V49a19.56,19.56,0,0,1-1.2,7.8A3.43,3.43,0,0,1,253.8,59.3Z"/><path class="cls-1" d="M278.6,4.8a9.25,9.25,0,0,0-2.5-3.5A5.85,5.85,0,0,0,272.3,0a5.41,5.41,0,0,0-3.7,1.3,9.55,9.55,0,0,0-2.5,3.5,22.12,22.12,0,0,0-1.4,5.1,43.1,43.1,0,0,0-.4,6.4v32a62.76,62.76,0,0,0,.4,6.4,20.78,20.78,0,0,0,1.4,5.1,9.25,9.25,0,0,0,2.5,3.5,5.92,5.92,0,0,0,7.4,0,9.25,9.25,0,0,0,2.5-3.5,22.12,22.12,0,0,0,1.4-5.1,43.1,43.1,0,0,0,.4-6.4v-32a62.76,62.76,0,0,0-.4-6.4A18.11,18.11,0,0,0,278.6,4.8Zm-6.3,55.1c-1.7,0-2.8-1-3.6-3a24.69,24.69,0,0,1-1.2-8.3V16a24.69,24.69,0,0,1,1.2-8.3q1.05-3,3.6-3t3.6,3a24.29,24.29,0,0,1,1.2,8.3V48.5a24.69,24.69,0,0,1-1.2,8.3C275.2,58.9,274,59.9,272.3,59.9Z"/><polygon class="cls-1" points="283.6 0.5 283.1 0.5 283.1 1 283.1 63.6 283.1 64.1 283.6 64.1 285.9 64.1 286.4 64.1 286.4 63.6 286.4 5.3 296.1 5.3 296.1 63.6 296.1 64.1 296.6 64.1 298.9 64.1 299.4 64.1 299.4 63.6 299.4 1 299.4 0.5 298.9 0.5 283.6 0.5"/><path class="cls-1" d="M316.4,4.8a9.25,9.25,0,0,0-2.5-3.5A5.58,5.58,0,0,0,310.2,0a5.41,5.41,0,0,0-3.7,1.3A9.55,9.55,0,0,0,304,4.8a22.12,22.12,0,0,0-1.4,5.1,43.1,43.1,0,0,0-.4,6.4v32a62.76,62.76,0,0,0,.4,6.4,20.78,20.78,0,0,0,1.4,5.1,9.25,9.25,0,0,0,2.5,3.5,5.92,5.92,0,0,0,7.4,0,9.25,9.25,0,0,0,2.5-3.5,22.12,22.12,0,0,0,1.4-5.1,43.1,43.1,0,0,0,.4-6.4v-32a62.76,62.76,0,0,0-.4-6.4A22.12,22.12,0,0,0,316.4,4.8Zm-6.2,55.1c-1.7,0-2.8-1-3.6-3a24.69,24.69,0,0,1-1.2-8.3V16a24.69,24.69,0,0,1,1.2-8.3q1.05-3,3.6-3t3.6,3A24.29,24.29,0,0,1,315,16V48.5a24.69,24.69,0,0,1-1.2,8.3C313,58.9,311.8,59.9,310.2,59.9Z"/><polygon class="cls-1" points="328 30.2 337.8 1.2 338 0.5 337.3 0.5 334.9 0.5 334.6 0.5 334.4 0.9 324.2 31.1 324.2 1 324.2 0.5 323.7 0.5 321.5 0.5 321 0.5 321 1 321 63.6 321 64.1 321.5 64.1 323.7 64.1 324.2 64.1 324.2 63.6 324.2 41.1 326.1 35.8 335.1 63.7 335.2 64.1 335.6 64.1 337.9 64.1 338.6 64.1 338.4 63.4 328 30.2"/><path class="cls-1" d="M352.1.9,352,.4h-4.1l-.1.4-7.5,62.6-.1.6h3.1l.1-.4,1.7-13.4h9.8l1.7,13.4.1.4H360l-.1-.6Zm2.3,44.8h-8.9l4.4-35.9Z"/><path class="cls-1" d="M376.1,4.8a10.31,10.31,0,0,0-2.4-3.5,5.92,5.92,0,0,0-7.4,0,9.08,9.08,0,0,0-2.4,3.5,17.25,17.25,0,0,0-1.3,5.1,41.73,41.73,0,0,0-.4,6.3v3.7h3.1V16a24.69,24.69,0,0,1,1.2-8.3q1.05-3,3.6-3c1.7,0,2.8,1,3.5,3.1a26.05,26.05,0,0,1,1.1,8.6v2.3a17.44,17.44,0,0,1-1.4,7.2c-.9,1.8-1.9,2.7-3.3,2.7h-2.6v4.8h2.4c1.5,0,2.6.8,3.4,2.6a17.12,17.12,0,0,1,1.3,7.5v4.8a29,29,0,0,1-1.1,8.6c-.7,2.1-1.9,3.1-3.5,3.1a2.78,2.78,0,0,1-2.1-.8,5.75,5.75,0,0,1-1.5-2.3,17.21,17.21,0,0,1-.9-3.6,32.3,32.3,0,0,1-.3-4.6v-6h-3.2v5.7a43.1,43.1,0,0,0,.4,6.4,17.15,17.15,0,0,0,1.4,5.1,9.08,9.08,0,0,0,2.4,3.5,5.92,5.92,0,0,0,7.4,0,9.08,9.08,0,0,0,2.4-3.5,22.12,22.12,0,0,0,1.4-5.1,43.1,43.1,0,0,0,.4-6.4V43.6a25.74,25.74,0,0,0-1.2-8.2,8.77,8.77,0,0,0-3.1-4.6,9.26,9.26,0,0,0,3-4.6,25.52,25.52,0,0,0,1.2-8.3V16.3a43.1,43.1,0,0,0-.4-6.4A13.63,13.63,0,0,0,376.1,4.8Z"/><path class="cls-1" d="M392,.9l-.1-.4h-4.1l-.1.4-7.5,62.6-.1.6h3.1l.1-.4L385,50.3h9.8l1.7,13.4.1.4h3.3l-.1-.6Zm2.3,44.8h-8.9l4.4-35.9Z"/><polygon class="cls-1" points="415.5 0.5 415 0.5 415 1 415 29.9 405.3 29.9 405.3 1 405.3 0.5 404.8 0.5 402.6 0.5 402.1 0.5 402.1 1 402.1 63.6 402.1 64.1 402.6 64.1 404.8 64.1 405.3 64.1 405.3 63.6 405.3 34.7 415 34.7 415 63.6 415 64.1 415.5 64.1 417.8 64.1 418.3 64.1 418.3 63.6 418.3 1 418.3 0.5 417.8 0.5 415.5 0.5"/><polygon class="cls-1" points="434.3 0.5 433.9 0.5 433.8 0.9 428.3 28.9 424.3 49.4 424.3 1 424.3 0.5 423.8 0.5 421.7 0.5 421.2 0.5 421.2 1 421.2 63.6 421.2 64.1 421.7 64.1 424.2 64.1 424.6 64.1 424.7 63.7 430.3 34.3 434.5 13.4 434.5 63.6 434.5 64.1 435 64.1 437 64.1 437.5 64.1 437.5 63.6 437.5 1 437.5 0.5 437 0.5 434.3 0.5"/><path class="cls-1" d="M448.8.5a6.38,6.38,0,0,0-6.1,4c-1.2,2.6-1.8,6.1-1.8,10.6v5.5c0,6.8,1.5,11.1,4.4,12.9a8.19,8.19,0,0,0-3.2,4.2,25.78,25.78,0,0,0-1.2,8.6V56c0,1.3,0,2.6-.1,3.9a11.37,11.37,0,0,1-.7,3.4l-.2.7h3.5l.1-.4a16.15,16.15,0,0,0,.6-3.3c.1-1.2.1-2.6.1-4.4V46.1a25.1,25.1,0,0,1,.4-5.1,10,10,0,0,1,1.2-3.1,4.28,4.28,0,0,1,1.8-1.5,6.18,6.18,0,0,1,2.5-.5h3.1v28h3.3V.5h-7.7Zm4.4,4.8V31.4H450a6.25,6.25,0,0,1-2.5-.4,4,4,0,0,1-1.8-1.4,8.49,8.49,0,0,1-1.2-3,23.88,23.88,0,0,1-.4-5.1V15.6a22.06,22.06,0,0,1,1.1-7.7,3.59,3.59,0,0,1,3.5-2.5h4.5Z"/><polygon class="cls-1" points="459.8 55.2 459.3 55.2 459.3 55.7 459.3 63.6 459.3 64.1 459.8 64.1 462 64.1 462.5 64.1 462.5 63.6 462.5 55.7 462.5 55.2 462 55.2 459.8 55.2"/><polygon class="cls-1" points="486.5 0.5 486 0.5 486 1 486 29.9 476.3 29.9 476.3 1 476.3 0.5 475.8 0.5 473.6 0.5 473.1 0.5 473.1 1 473.1 63.6 473.1 64.1 473.6 64.1 475.8 64.1 476.3 64.1 476.3 63.6 476.3 34.7 486 34.7 486 63.6 486 64.1 486.5 64.1 488.8 64.1 489.3 64.1 489.3 63.6 489.3 1 489.3 0.5 488.8 0.5 486.5 0.5"/><polygon class="cls-1" points="492.7 0.5 492.2 0.5 492.2 1 492.2 63.6 492.2 64.1 492.7 64.1 506.3 64.1 506.8 64.1 506.8 63.6 506.8 59.8 506.8 59.3 506.3 59.3 495.5 59.3 495.5 34.2 504.3 34.2 504.8 34.2 504.8 33.7 504.8 30 504.8 29.5 504.3 29.5 495.5 29.5 495.5 5.3 506.3 5.3 506.8 5.3 506.8 4.8 506.8 1 506.8 0.5 506.3 0.5 492.7 0.5"/><path class="cls-1" d="M523.5,4.8A9.25,9.25,0,0,0,521,1.3a5.92,5.92,0,0,0-7.4,0,9.55,9.55,0,0,0-2.5,3.5,22.12,22.12,0,0,0-1.4,5.1,43.1,43.1,0,0,0-.4,6.4v32a62.76,62.76,0,0,0,.4,6.4,20.78,20.78,0,0,0,1.4,5.1,9.25,9.25,0,0,0,2.5,3.5,5.92,5.92,0,0,0,7.4,0,9.25,9.25,0,0,0,2.5-3.5,22.12,22.12,0,0,0,1.4-5.1,43.1,43.1,0,0,0,.4-6.4v-32a62.75,62.75,0,0,0-.4-6.4A18,18,0,0,0,523.5,4.8Zm-6.2,55.1c-1.7,0-2.8-1-3.6-3a24.69,24.69,0,0,1-1.2-8.3V16a24.69,24.69,0,0,1,1.2-8.3q1.05-3,3.6-3t3.6,3a24.29,24.29,0,0,1,1.2,8.3V48.5a24.69,24.69,0,0,1-1.2,8.3C520.1,58.9,519,59.9,517.3,59.9Z"/><path class="cls-1" d="M535.8,27.2h-4.4V5.3H543V.5H528.1V64h8a6.54,6.54,0,0,0,6.3-4.2c1.2-2.6,1.8-6.4,1.8-11.2V41.5c0-5.1-.7-8.7-2.1-11A7,7,0,0,0,535.8,27.2Zm.4,32.1h-4.8V32h4.4a4.58,4.58,0,0,1,3.9,1.8c.9,1.3,1.4,3.8,1.4,7.5v7.6c0,3.5-.4,6.2-1.2,7.9A3.83,3.83,0,0,1,536.2,59.3Z"/><polygon class="cls-1" points="558.5 31.2 565.7 1.2 565.8 0.5 565.2 0.5 563 0.5 562.6 0.5 562.5 0.9 556.5 25.8 550.5 0.9 550.4 0.5 550 0.5 547.7 0.5 547 0.5 547.2 1.2 554.4 31.1 546.7 63.5 546.5 64.1 547.1 64.1 549.3 64.1 549.7 64.1 549.8 63.7 556.3 36.6 562.8 63.7 562.9 64.1 563.3 64.1 565.7 64.1 566.3 64.1 566.2 63.5 558.5 31.2"/><path class="cls-1" d="M582.7,4.8a9.25,9.25,0,0,0-2.5-3.5A5.58,5.58,0,0,0,576.5,0a5.41,5.41,0,0,0-3.7,1.3,9.55,9.55,0,0,0-2.5,3.5,22.12,22.12,0,0,0-1.4,5.1,43.1,43.1,0,0,0-.4,6.4v32a62.75,62.75,0,0,0,.4,6.4,20.78,20.78,0,0,0,1.4,5.1,9.25,9.25,0,0,0,2.5,3.5,5.92,5.92,0,0,0,7.4,0,9.25,9.25,0,0,0,2.5-3.5,22.12,22.12,0,0,0,1.4-5.1,43.1,43.1,0,0,0,.4-6.4v-32a62.75,62.75,0,0,0-.4-6.4A15.25,15.25,0,0,0,582.7,4.8Zm-6.2,55.1c-1.7,0-2.8-1-3.6-3a24.69,24.69,0,0,1-1.2-8.3V16a24.69,24.69,0,0,1,1.2-8.3q1.05-3,3.6-3t3.6,3a24.29,24.29,0,0,1,1.2,8.3V48.5a24.69,24.69,0,0,1-1.2,8.3C579.4,58.9,578.2,59.9,576.5,59.9Z"/><path class="cls-1" d="M605.9,59.3V.5H592.4V1L591,49.8c-.1,2-.2,3.9-.4,5.5a15.6,15.6,0,0,1-1.1,4H587V72.7h3.2V64h15.4v8.7h3.3V59.3h-3Zm-3.3-54v54h-9.7a14.09,14.09,0,0,0,1-3.8c.2-1.6.3-3.6.4-5.7l1.3-44.6h7Z"/><polygon class="cls-1" points="624.4 0.5 624 0.5 623.9 0.9 618.4 28.9 614.4 49.4 614.4 1 614.4 0.5 613.9 0.5 611.8 0.5 611.3 0.5 611.3 1 611.3 63.6 611.3 64.1 611.8 64.1 614.2 64.1 614.7 64.1 614.7 63.7 620.4 34.3 624.5 13.4 624.5 63.6 624.5 64.1 625 64.1 627.1 64.1 627.6 64.1 627.6 63.6 627.6 1 627.6 0.5 627.1 0.5 624.4 0.5"/><polygon class="cls-1" points="648.6 0.5 648.1 0.5 648.1 1 641.4 52.5 634.7 1 634.6 0.5 634.2 0.5 631 0.5 630.5 0.5 630.5 1 630.5 63.6 630.5 64.1 631 64.1 633 64.1 633.5 64.1 633.5 63.6 633.5 15.8 639.7 63.6 639.8 64 640.2 64 642.5 64 642.9 64 643 63.6 649.1 15.8 649.1 63.6 649.1 64.1 649.6 64.1 651.8 64.1 652.3 64.1 652.3 63.6 652.3 1 652.3 0.5 651.8 0.5 648.6 0.5"/><path class="cls-1" d="M669.3,4.8a9.25,9.25,0,0,0-2.5-3.5A5.58,5.58,0,0,0,663.1,0a5.41,5.41,0,0,0-3.7,1.3,9.55,9.55,0,0,0-2.5,3.5,22.12,22.12,0,0,0-1.4,5.1,43.1,43.1,0,0,0-.4,6.4v32a62.75,62.75,0,0,0,.4,6.4,20.78,20.78,0,0,0,1.4,5.1,9.25,9.25,0,0,0,2.5,3.5,5.92,5.92,0,0,0,7.4,0,9.25,9.25,0,0,0,2.5-3.5,22.12,22.12,0,0,0,1.4-5.1,43.1,43.1,0,0,0,.4-6.4v-32a62.75,62.75,0,0,0-.4-6.4A18,18,0,0,0,669.3,4.8Zm-6.2,55.1c-1.7,0-2.8-1-3.6-3a24.69,24.69,0,0,1-1.2-8.3V16a24.69,24.69,0,0,1,1.2-8.3q1.05-3,3.6-3t3.6,3a24.29,24.29,0,0,1,1.2,8.3V48.5a24.69,24.69,0,0,1-1.2,8.3C665.9,58.9,664.8,59.9,663.1,59.9Z"/><polygon class="cls-1" points="682 0.5 681.5 0.5 681.5 1 681.5 63.6 681.5 64.1 682 64.1 684.2 64.1 684.8 64.1 684.8 63.6 684.8 5.3 694.4 5.3 694.4 63.6 694.4 64.1 694.9 64.1 697.2 64.1 697.7 64.1 697.7 63.6 697.7 1 697.7 0.5 697.2 0.5 682 0.5"/><path class="cls-1" d="M708.3.5h-7.6V64H704V38.4h3.8a6.94,6.94,0,0,0,6.5-3.9c1.3-2.5,2-6.3,2-11.4V16.3a31.41,31.41,0,0,0-1.7-11.2C713.2,2,711.1.5,708.3.5Zm-.6,33.1h-3.8V5.3h4.4A3.5,3.5,0,0,1,711.8,8a24.4,24.4,0,0,1,1.1,8v7.3c0,3.7-.4,6.4-1.3,8A4,4,0,0,1,707.7,33.6Z"/><path class="cls-1" d="M732.6,4.8a9.25,9.25,0,0,0-2.5-3.5A5.58,5.58,0,0,0,726.4,0a5.41,5.41,0,0,0-3.7,1.3,9.55,9.55,0,0,0-2.5,3.5,22.12,22.12,0,0,0-1.4,5.1,43.1,43.1,0,0,0-.4,6.4v32a62.75,62.75,0,0,0,.4,6.4,20.78,20.78,0,0,0,1.4,5.1,9.25,9.25,0,0,0,2.5,3.5,5.92,5.92,0,0,0,7.4,0,9.25,9.25,0,0,0,2.5-3.5,22.12,22.12,0,0,0,1.4-5.1,43.1,43.1,0,0,0,.4-6.4v-32a62.75,62.75,0,0,0-.4-6.4A22.12,22.12,0,0,0,732.6,4.8Zm-6.2,55.1c-1.7,0-2.8-1-3.6-3a24.69,24.69,0,0,1-1.2-8.3V16a24.69,24.69,0,0,1,1.2-8.3q1.05-3,3.6-3t3.6,3a24.29,24.29,0,0,1,1.2,8.3V48.5a24.69,24.69,0,0,1-1.2,8.3C729.2,58.9,728,59.9,726.4,59.9Z"/><polygon class="cls-1" points="744.2 30.2 753.9 1.2 754.2 0.5 753.5 0.5 751.1 0.5 750.8 0.5 750.6 0.9 740.4 31.1 740.4 1 740.4 0.5 739.9 0.5 737.7 0.5 737.2 0.5 737.2 1 737.2 63.6 737.2 64.1 737.7 64.1 739.9 64.1 740.4 64.1 740.4 63.6 740.4 41.1 742.3 35.8 751.3 63.7 751.4 64.1 751.8 64.1 754.1 64.1 754.8 64.1 754.6 63.4 744.2 30.2"/><path class="cls-1" d="M771.1,4.8a9.25,9.25,0,0,0-2.5-3.5A5.58,5.58,0,0,0,764.9,0a5.41,5.41,0,0,0-3.7,1.3,9.55,9.55,0,0,0-2.5,3.5,22.12,22.12,0,0,0-1.4,5.1,43.1,43.1,0,0,0-.4,6.4v32a62.75,62.75,0,0,0,.4,6.4,20.78,20.78,0,0,0,1.4,5.1,9.25,9.25,0,0,0,2.5,3.5,5.92,5.92,0,0,0,7.4,0,9.25,9.25,0,0,0,2.5-3.5,22.12,22.12,0,0,0,1.4-5.1,43.1,43.1,0,0,0,.4-6.4v-32a62.75,62.75,0,0,0-.4-6.4A22.12,22.12,0,0,0,771.1,4.8Zm-6.3,55.1c-1.7,0-2.8-1-3.6-3a24.69,24.69,0,0,1-1.2-8.3V16a24.69,24.69,0,0,1,1.2-8.3q1.05-3,3.6-3t3.6,3a24.29,24.29,0,0,1,1.2,8.3V48.5a24.69,24.69,0,0,1-1.2,8.3C767.7,58.9,766.5,59.9,764.8,59.9Z"/><polygon class="cls-1" points="789.1 0.5 788.6 0.5 788.6 1 788.6 29.9 778.9 29.9 778.9 1 778.9 0.5 778.4 0.5 776.2 0.5 775.7 0.5 775.7 1 775.7 63.6 775.7 64.1 776.2 64.1 778.4 64.1 778.9 64.1 778.9 63.6 778.9 34.7 788.6 34.7 788.6 63.6 788.6 64.1 789.1 64.1 791.4 64.1 791.9 64.1 791.9 63.6 791.9 1 791.9 0.5 791.4 0.5 789.1 0.5"/><path class="cls-1" d="M808.7,4.8a10.31,10.31,0,0,0-2.4-3.5,5.92,5.92,0,0,0-7.4,0,8.38,8.38,0,0,0-2.4,3.5,22.12,22.12,0,0,0-1.4,5.1,42.24,42.24,0,0,0-.4,6.4v32a43.09,43.09,0,0,0,.4,6.4,17.15,17.15,0,0,0,1.4,5.1,10.31,10.31,0,0,0,2.4,3.5,5.92,5.92,0,0,0,7.4,0,9.08,9.08,0,0,0,2.4-3.5,22.12,22.12,0,0,0,1.4-5.1,42.24,42.24,0,0,0,.4-6.4V40.7h-3.2v7.9a33.33,33.33,0,0,1-.3,4.6,15.75,15.75,0,0,1-.9,3.6,6.56,6.56,0,0,1-1.5,2.3,3,3,0,0,1-2.1.8,2.78,2.78,0,0,1-2.1-.8,5.75,5.75,0,0,1-1.5-2.3,15.75,15.75,0,0,1-.9-3.6,32.3,32.3,0,0,1-.3-4.6V16a33.33,33.33,0,0,1,.3-4.6,15.75,15.75,0,0,1,.9-3.6,5.75,5.75,0,0,1,1.5-2.3,3,3,0,0,1,2.1-.8,2.78,2.78,0,0,1,2.1.8,5.75,5.75,0,0,1,1.5,2.3,17.21,17.21,0,0,1,.9,3.6,33.33,33.33,0,0,1,.3,4.6v6h3.2V16.3a43.09,43.09,0,0,0-.4-6.4A22.12,22.12,0,0,0,808.7,4.8Z"/><path class="cls-1" d="M828.9.5h-.4l-.1.5-3.7,22-2.3,13.9L819.9,23,815.9.9l-.1-.4h-3.3l.1.6L820.8,45l-1.4,7.5a18.48,18.48,0,0,1-1.6,5.4,3,3,0,0,1-2.8,1.5h-.7V64h1.2a5,5,0,0,0,2.7-.7,6.24,6.24,0,0,0,2.3-2.5,13.07,13.07,0,0,0,1.4-3.8c.3-1.5.7-3.2,1-5.1L831.8,1l.1-.6h-3Z"/><path class="cls-1" d="M839.3.5h-.5V1l-1,47.4c0,1.5-.1,3-.2,4.4a28.42,28.42,0,0,1-.5,3.6,6.16,6.16,0,0,1-1.1,2.3,2.41,2.41,0,0,1-1.9.8h-.5v4.8h.9a5.29,5.29,0,0,0,3.4-1.4,8.38,8.38,0,0,0,1.9-3.5,30.72,30.72,0,0,0,.9-4.9c.1-1.9.3-3.9.3-6l.9-43h7.4V64.3h3.3V.5H839.3Z"/><path class="cls-1" d="M862.5,26.3h-3.7V.5h-3.3V64h7.6a5.86,5.86,0,0,0,3.7-1.2,8.32,8.32,0,0,0,2.4-3.3,16.56,16.56,0,0,0,1.3-5,40.88,40.88,0,0,0,.4-6.3V41.4c0-5.1-.7-8.9-2-11.4A6.67,6.67,0,0,0,862.5,26.3Zm.6,33h-4.3V31h3.7a4,4,0,0,1,3.9,2.3c.9,1.6,1.3,4.3,1.3,8v7.3a24.83,24.83,0,0,1-1.1,8A3.5,3.5,0,0,1,863.1,59.3Z"/><polygon class="cls-1" points="873.6 0.5 873.1 0.5 873.1 1 873.1 4.8 873.1 5.3 873.6 5.3 880.1 5.3 880.1 63.6 880.1 64.1 880.6 64.1 882.8 64.1 883.3 64.1 883.3 63.6 883.3 5.3 889.8 5.3 890.3 5.3 890.3 4.8 890.3 1 890.3 0.5 889.8 0.5 873.6 0.5"/><polygon class="cls-1" points="905.8 0.5 905.4 0.5 905.3 0.9 899.7 28.9 895.7 49.4 895.7 1 895.7 0.5 895.2 0.5 893.2 0.5 892.7 0.5 892.7 1 892.7 63.6 892.7 64.1 893.2 64.1 895.6 64.1 896 64.1 896.1 63.7 901.8 34.3 905.9 13.4 905.9 63.6 905.9 64.1 906.4 64.1 908.5 64.1 909 64.1 909 63.6 909 1 909 0.5 908.5 0.5 905.8 0.5"/><path class="cls-1" d="M919.5.5h-7.6V64h3.3V38.4H919a6.94,6.94,0,0,0,6.5-3.9c1.3-2.5,2-6.3,2-11.4V16.3a31.41,31.41,0,0,0-1.7-11.2C924.4,2,922.3.5,919.5.5Zm-.6,33.1h-3.8V5.3h4.4A3.5,3.5,0,0,1,923,8a24.4,24.4,0,0,1,1.1,8v7.3c0,3.7-.4,6.4-1.3,8A4,4,0,0,1,918.9,33.6Z"/><path class="cls-1" d="M943.8,4.8a9.25,9.25,0,0,0-2.5-3.5A5.66,5.66,0,0,0,937.5,0a5.41,5.41,0,0,0-3.7,1.3,9.55,9.55,0,0,0-2.5,3.5,22.12,22.12,0,0,0-1.4,5.1,43.1,43.1,0,0,0-.4,6.4v32a62.75,62.75,0,0,0,.4,6.4,20.78,20.78,0,0,0,1.4,5.1,9.25,9.25,0,0,0,2.5,3.5,5.92,5.92,0,0,0,7.4,0,9.25,9.25,0,0,0,2.5-3.5,22.12,22.12,0,0,0,1.4-5.1,43.1,43.1,0,0,0,.4-6.4v-32a62.75,62.75,0,0,0-.4-6.4A18.11,18.11,0,0,0,943.8,4.8Zm-6.3,55.1c-1.7,0-2.8-1-3.6-3a24.69,24.69,0,0,1-1.2-8.3V16a24.69,24.69,0,0,1,1.2-8.3q1.05-3,3.6-3t3.6,3a24.29,24.29,0,0,1,1.2,8.3V48.5a24.69,24.69,0,0,1-1.2,8.3C940.4,58.9,939.2,59.9,937.5,59.9Z"/><path class="cls-1" d="M959.7,30.2a6.91,6.91,0,0,0,2.9-4,31.05,31.05,0,0,0,1-8.4V14.2c0-4.4-.5-7.8-1.6-10.1A6.05,6.05,0,0,0,956.1.4h-7.7V64h7.9a6.55,6.55,0,0,0,6.2-4.1c1.2-2.6,1.8-6.3,1.8-10.8V43.6a28.4,28.4,0,0,0-1.2-9A8.61,8.61,0,0,0,959.7,30.2Zm-4.8-2.1h-3.3V5.3H956a3.25,3.25,0,0,1,3.3,2.2,19,19,0,0,1,1,7.2v4a32.3,32.3,0,0,1-.3,4.8,8.89,8.89,0,0,1-1,2.9,3.56,3.56,0,0,1-1.6,1.4A9,9,0,0,1,954.9,28.1Zm1.3,31.2h-4.6V32.9h3.8a4.36,4.36,0,0,1,4.1,2.2c1,1.6,1.4,4.3,1.4,8.3V49a19.56,19.56,0,0,1-1.2,7.8A3.43,3.43,0,0,1,956.2,59.3Z"/><path class="cls-1" d="M978.2.9l-.1-.4H974l-.1.4-7.5,62.6-.1.6h3.1l.1-.4,1.7-13.4H981l1.7,13.4.1.4h3.3l-.1-.6Zm2.3,44.8h-8.9L976,9.8Z"/><polygon class="cls-1" points="988.2 0.5 987.7 0.5 987.7 1 987.7 4.8 987.7 5.3 988.2 5.3 994.7 5.3 994.7 63.6 994.7 64.1 995.2 64.1 997.4 64.1 997.9 64.1 997.9 63.6 997.9 5.3 1004.5 5.3 1005 5.3 1005 4.8 1005 1 1005 0.5 1004.5 0.5 988.2 0.5"/><path class="cls-1" d="M1014.3,26.3h-3.7V.5h-3.3V64h7.6a5.86,5.86,0,0,0,3.7-1.2,8.32,8.32,0,0,0,2.4-3.3,16.56,16.56,0,0,0,1.3-5,40.88,40.88,0,0,0,.4-6.3V41.4c0-5.1-.7-8.9-2-11.4A6.87,6.87,0,0,0,1014.3,26.3Zm.6,33h-4.3V31h3.7a4,4,0,0,1,3.9,2.3c.9,1.6,1.3,4.3,1.3,8v7.3a24.83,24.83,0,0,1-1.1,8C1017.7,58.4,1016.6,59.3,1014.9,59.3Z"/><path class="cls-1" d="M1039.3,4.8a10.31,10.31,0,0,0-2.4-3.5,5.92,5.92,0,0,0-7.4,0,8.38,8.38,0,0,0-2.4,3.5,22.12,22.12,0,0,0-1.4,5.1,42.23,42.23,0,0,0-.4,6.4v32a43.09,43.09,0,0,0,.4,6.4,17.15,17.15,0,0,0,1.4,5.1,10.31,10.31,0,0,0,2.4,3.5,5.92,5.92,0,0,0,7.4,0,9.08,9.08,0,0,0,2.4-3.5,22.12,22.12,0,0,0,1.4-5.1,42.23,42.23,0,0,0,.4-6.4V40.7h-3.2v7.9a33.32,33.32,0,0,1-.3,4.6,15.75,15.75,0,0,1-.9,3.6,6.56,6.56,0,0,1-1.5,2.3,3,3,0,0,1-2.1.8,2.78,2.78,0,0,1-2.1-.8,5.75,5.75,0,0,1-1.5-2.3,15.75,15.75,0,0,1-.9-3.6,32.31,32.31,0,0,1-.3-4.6V16a33.32,33.32,0,0,1,.3-4.6,15.75,15.75,0,0,1,.9-3.6,5.75,5.75,0,0,1,1.5-2.3,3,3,0,0,1,2.1-.8,2.78,2.78,0,0,1,2.1.8,5.75,5.75,0,0,1,1.5,2.3,17.22,17.22,0,0,1,.9,3.6,33.34,33.34,0,0,1,.3,4.6v6h3.2V16.3a43.09,43.09,0,0,0-.4-6.4A22.12,22.12,0,0,0,1039.3,4.8Z"/><path class="cls-1" d="M1052.1.5a6.38,6.38,0,0,0-6.1,4c-1.2,2.6-1.8,6.1-1.8,10.6v5.5c0,6.8,1.5,11.1,4.4,12.9a8.19,8.19,0,0,0-3.2,4.2,25.78,25.78,0,0,0-1.2,8.6V56c0,1.3,0,2.6-.1,3.9a11.38,11.38,0,0,1-.7,3.4l-.2.7h3.5l.1-.4a16.14,16.14,0,0,0,.6-3.3c.1-1.2.1-2.6.1-4.4V46.1a25.1,25.1,0,0,1,.4-5.1,10,10,0,0,1,1.2-3.1,4.28,4.28,0,0,1,1.8-1.5,6.17,6.17,0,0,1,2.5-.5h3.1v28h3.3V.5h-7.7Zm4.4,4.8V31.4h-3.1a6.25,6.25,0,0,1-2.5-.4,4,4,0,0,1-1.8-1.4,8.49,8.49,0,0,1-1.2-3,23.88,23.88,0,0,1-.4-5.1V15.6a22.06,22.06,0,0,1,1.1-7.7,3.59,3.59,0,0,1,3.5-2.5h4.4Z"/><path class="cls-1" d="M1084.2,4.8a10.31,10.31,0,0,0-2.4-3.5,5.92,5.92,0,0,0-7.4,0,8.38,8.38,0,0,0-2.4,3.5,22.12,22.12,0,0,0-1.4,5.1,42.23,42.23,0,0,0-.4,6.4v32a43.09,43.09,0,0,0,.4,6.4,17.15,17.15,0,0,0,1.4,5.1,10.31,10.31,0,0,0,2.4,3.5,5.92,5.92,0,0,0,7.4,0,9.08,9.08,0,0,0,2.4-3.5,22.12,22.12,0,0,0,1.4-5.1,42.23,42.23,0,0,0,.4-6.4V40.7h-3.2v7.9a33.32,33.32,0,0,1-.3,4.6,15.75,15.75,0,0,1-.9,3.6,6.56,6.56,0,0,1-1.5,2.3,3,3,0,0,1-2.1.8,2.78,2.78,0,0,1-2.1-.8,5.75,5.75,0,0,1-1.5-2.3,15.75,15.75,0,0,1-.9-3.6,32.31,32.31,0,0,1-.3-4.6V16a33.32,33.32,0,0,1,.3-4.6,15.75,15.75,0,0,1,.9-3.6,5.75,5.75,0,0,1,1.5-2.3,3,3,0,0,1,2.1-.8,2.78,2.78,0,0,1,2.1.8,5.75,5.75,0,0,1,1.5,2.3,17.22,17.22,0,0,1,.9,3.6,33.34,33.34,0,0,1,.3,4.6v6h3.2V16.3a43.09,43.09,0,0,0-.4-6.4A28.62,28.62,0,0,0,1084.2,4.8Z"/><path class="cls-1" d="M1102.7,4.8a9.25,9.25,0,0,0-2.5-3.5,5.58,5.58,0,0,0-3.7-1.3,5.4,5.4,0,0,0-3.7,1.3,9.55,9.55,0,0,0-2.5,3.5,22.12,22.12,0,0,0-1.4,5.1,43.09,43.09,0,0,0-.4,6.4v32a62.73,62.73,0,0,0,.4,6.4,20.79,20.79,0,0,0,1.4,5.1,9.25,9.25,0,0,0,2.5,3.5,5.92,5.92,0,0,0,7.4,0,9.25,9.25,0,0,0,2.5-3.5,22.12,22.12,0,0,0,1.4-5.1,43.09,43.09,0,0,0,.4-6.4v-32a62.73,62.73,0,0,0-.4-6.4A22.11,22.11,0,0,0,1102.7,4.8Zm-6.2,55.1c-1.7,0-2.8-1-3.6-3a24.69,24.69,0,0,1-1.2-8.3V16a24.69,24.69,0,0,1,1.2-8.3q1-3,3.6-3t3.6,3a24.29,24.29,0,0,1,1.2,8.3V48.5a24.69,24.69,0,0,1-1.2,8.3C1099.3,58.9,1098.2,59.9,1096.5,59.9Z"/><path class="cls-1" d="M1128.8,4.8a10.31,10.31,0,0,0-2.4-3.5,5.92,5.92,0,0,0-7.4,0,8.38,8.38,0,0,0-2.4,3.5,22.12,22.12,0,0,0-1.4,5.1,42.23,42.23,0,0,0-.4,6.4v32a43.09,43.09,0,0,0,.4,6.4,17.15,17.15,0,0,0,1.4,5.1,10.31,10.31,0,0,0,2.4,3.5,5.92,5.92,0,0,0,7.4,0,9.08,9.08,0,0,0,2.4-3.5,22.12,22.12,0,0,0,1.4-5.1,42.23,42.23,0,0,0,.4-6.4V40.7h-3.2v7.9a33.32,33.32,0,0,1-.3,4.6,15.75,15.75,0,0,1-.9,3.6,6.56,6.56,0,0,1-1.5,2.3,3,3,0,0,1-2.1.8,2.78,2.78,0,0,1-2.1-.8,5.75,5.75,0,0,1-1.5-2.3,15.75,15.75,0,0,1-.9-3.6,32.31,32.31,0,0,1-.3-4.6V16a33.32,33.32,0,0,1,.3-4.6,15.75,15.75,0,0,1,.9-3.6,5.75,5.75,0,0,1,1.5-2.3,3,3,0,0,1,2.1-.8,2.78,2.78,0,0,1,2.1.8,5.75,5.75,0,0,1,1.5,2.3,17.22,17.22,0,0,1,.9,3.6,33.34,33.34,0,0,1,.3,4.6v6h3.2V16.3a43.09,43.09,0,0,0-.4-6.4A28.63,28.63,0,0,0,1128.8,4.8Z"/><polygon class="cls-1" points="1133.7 0.5 1133.2 0.5 1133.2 1 1133.2 63.6 1133.2 64.1 1133.7 64.1 1136 64.1 1136.5 64.1 1136.5 63.6 1136.5 5.3 1146.2 5.3 1146.2 63.6 1146.2 64.1 1146.7 64.1 1149 64.1 1149.5 64.1 1149.5 63.6 1149.5 1 1149.5 0.5 1149 0.5 1133.7 0.5"/><polygon class="cls-1" points="1152.9 0.5 1152.4 0.5 1152.4 1 1152.4 63.6 1152.4 64.1 1152.9 64.1 1166.4 64.1 1166.9 64.1 1166.9 63.6 1166.9 59.8 1166.9 59.3 1166.4 59.3 1155.7 59.3 1155.7 34.2 1164.5 34.2 1165 34.2 1165 33.7 1165 30 1165 29.5 1164.5 29.5 1155.7 29.5 1155.7 5.3 1166.4 5.3 1166.9 5.3 1166.9 4.8 1166.9 1 1166.9 0.5 1166.4 0.5 1152.9 0.5"/><polygon class="cls-1" points="1186.4 59.3 1186.4 1 1186.4 0.5 1185.9 0.5 1183.6 0.5 1183.1 0.5 1183.1 1 1183.1 59.3 1173.4 59.3 1173.4 1 1173.4 0.5 1172.9 0.5 1170.7 0.5 1170.2 0.5 1170.2 1 1170.2 63.6 1170.2 64.1 1170.7 64.1 1186.1 64.1 1186.1 72 1186.1 72.5 1186.6 72.5 1188.8 72.5 1189.3 72.5 1189.3 72 1189.3 59.8 1189.3 59.3 1188.8 59.3 1186.4 59.3"/><polygon class="cls-1" points="1205 0.5 1204.6 0.5 1204.5 0.9 1199 28.9 1195 49.4 1195 1 1195 0.5 1194.5 0.5 1192.4 0.5 1191.9 0.5 1191.9 1 1191.9 63.6 1191.9 64.1 1192.4 64.1 1194.9 64.1 1195.3 64.1 1195.3 63.7 1201 34.3 1205.1 13.4 1205.1 63.6 1205.1 64.1 1205.6 64.1 1207.7 64.1 1208.2 64.1 1208.2 63.6 1208.2 1 1208.2 0.5 1207.7 0.5 1205 0.5"/><path class="cls-1" d="M1222.4.9l-.1-.4h-4.1l-.1.4-7.5,62.6-.1.6h3.1l.1-.4,1.7-13.4h9.8l1.7,13.4.1.4h3.3l-.1-.6Zm2.2,44.8h-8.9l4.4-35.9Z"/><path class="cls-1" d="M1237.7.5h-.5V1l-1,47.4c0,1.5-.1,3-.2,4.4a28.43,28.43,0,0,1-.5,3.6,6.17,6.17,0,0,1-1.1,2.3,2.41,2.41,0,0,1-1.9.8h-.5v4.8h.9a5.29,5.29,0,0,0,3.4-1.4,8.38,8.38,0,0,0,1.9-3.5,30.73,30.73,0,0,0,.9-4.9c.1-1.9.3-3.9.3-6l.9-43h7.4V64.3h3.3V.5h-13.3Z"/><polygon class="cls-1" points="1267 0.5 1266.6 0.5 1266.5 0.9 1261 28.9 1257 49.4 1257 1 1257 0.5 1256.5 0.5 1254.4 0.5 1253.9 0.5 1253.9 1 1253.9 63.6 1253.9 64.1 1254.4 64.1 1256.9 64.1 1257.3 64.1 1257.4 63.7 1263 34.3 1267.2 13.4 1267.2 63.6 1267.2 64.1 1267.7 64.1 1269.7 64.1 1270.2 64.1 1270.2 63.6 1270.2 1 1270.2 0.5 1269.7 0.5 1267 0.5"/><path class="cls-1" d="M1287,4.8a10.31,10.31,0,0,0-2.4-3.5,5.92,5.92,0,0,0-7.4,0,8.38,8.38,0,0,0-2.4,3.5,22.12,22.12,0,0,0-1.4,5.1,42.23,42.23,0,0,0-.4,6.4v32a43.09,43.09,0,0,0,.4,6.4,17.15,17.15,0,0,0,1.4,5.1,10.31,10.31,0,0,0,2.4,3.5,5.92,5.92,0,0,0,7.4,0,9.08,9.08,0,0,0,2.4-3.5,22.12,22.12,0,0,0,1.4-5.1,42.23,42.23,0,0,0,.4-6.4V40.7h-3.2v7.9a33.32,33.32,0,0,1-.3,4.6,15.75,15.75,0,0,1-.9,3.6,6.56,6.56,0,0,1-1.5,2.3,3,3,0,0,1-2.1.8,2.78,2.78,0,0,1-2.1-.8,5.75,5.75,0,0,1-1.5-2.3,15.75,15.75,0,0,1-.9-3.6,32.31,32.31,0,0,1-.3-4.6V16a33.32,33.32,0,0,1,.3-4.6,15.75,15.75,0,0,1,.9-3.6,5.75,5.75,0,0,1,1.5-2.3,3,3,0,0,1,2.1-.8,2.78,2.78,0,0,1,2.1.8,5.75,5.75,0,0,1,1.5,2.3,17.22,17.22,0,0,1,.9,3.6,33.34,33.34,0,0,1,.3,4.6v6h3.2V16.3a43.09,43.09,0,0,0-.4-6.4A28.63,28.63,0,0,0,1287,4.8Z"/><polygon class="cls-1" points="1291.3 0.5 1290.8 0.5 1290.8 1 1290.8 4.8 1290.8 5.3 1291.3 5.3 1297.8 5.3 1297.8 63.6 1297.8 64.1 1298.3 64.1 1300.6 64.1 1301.1 64.1 1301.1 63.6 1301.1 5.3 1307.6 5.3 1308.1 5.3 1308.1 4.8 1308.1 1 1308.1 0.5 1307.6 0.5 1291.3 0.5"/><path class="cls-1" d="M1324.5,4.8a9.25,9.25,0,0,0-2.5-3.5,5.58,5.58,0,0,0-3.7-1.3,5.4,5.4,0,0,0-3.7,1.3,9.55,9.55,0,0,0-2.5,3.5,22.12,22.12,0,0,0-1.4,5.1,43.09,43.09,0,0,0-.4,6.4v32a62.73,62.73,0,0,0,.4,6.4,20.79,20.79,0,0,0,1.4,5.1,9.25,9.25,0,0,0,2.5,3.5,5.92,5.92,0,0,0,7.4,0,9.25,9.25,0,0,0,2.5-3.5,22.12,22.12,0,0,0,1.4-5.1,43.09,43.09,0,0,0,.4-6.4v-32a62.73,62.73,0,0,0-.4-6.4A18,18,0,0,0,1324.5,4.8Zm-6.2,55.1c-1.7,0-2.8-1-3.6-3a24.69,24.69,0,0,1-1.2-8.3V16a24.69,24.69,0,0,1,1.2-8.3q1-3,3.6-3t3.6,3a24.29,24.29,0,0,1,1.2,8.3V48.5a24.69,24.69,0,0,1-1.2,8.3C1321.2,58.9,1320,59.9,1318.3,59.9Z"/><polygon class="cls-1" points="1347.2 0.5 1346.8 0.5 1346.7 1 1340.1 52.5 1333.3 1 1333.3 0.5 1332.9 0.5 1329.6 0.5 1329.1 0.5 1329.1 1 1329.1 63.6 1329.1 64.1 1329.6 64.1 1331.6 64.1 1332.1 64.1 1332.1 63.6 1332.1 15.8 1338.4 63.6 1338.4 64 1338.9 64 1341.1 64 1341.6 64 1341.6 63.6 1347.8 15.8 1347.8 63.6 1347.8 64.1 1348.3 64.1 1350.5 64.1 1351 64.1 1351 63.6 1351 1 1351 0.5 1350.5 0.5 1347.2 0.5"/><polygon class="cls-1" points="1356.6 55.2 1354.4 55.2 1353.9 55.2 1353.9 55.7 1353.9 63.6 1353.9 64.1 1354.4 64.1 1356.6 64.1 1357.1 64.1 1357.1 63.6 1357.1 55.7 1357.1 55.2 1356.6 55.2"/></g></g></svg>