<svg width="79" height="74" viewBox="0 0 79 74" fill="none" xmlns="http://www.w3.org/2000/svg">
<g clip-path="url(#clip0)">
<path d="M64.1001 52.5C71.8321 52.5 78.1001 46.232 78.1001 38.5C78.1001 30.768 71.8321 24.5 64.1001 24.5C56.3681 24.5 50.1001 30.768 50.1001 38.5C50.1001 46.232 56.3681 52.5 64.1001 52.5Z" fill="#F2DDF1"/>
<path d="M37.7998 24C44.4272 24 49.7998 18.6274 49.7998 12C49.7998 5.37258 44.4272 0 37.7998 0C31.1724 0 25.7998 5.37258 25.7998 12C25.7998 18.6274 31.1724 24 37.7998 24Z" fill="#F2DDF1"/>
<path d="M20 73.6001C31.0457 73.6001 40 64.6458 40 53.6001C40 42.5544 31.0457 33.6001 20 33.6001C8.9543 33.6001 0 42.5544 0 53.6001C0 64.6458 8.9543 73.6001 20 73.6001Z" fill="#F2DDF1"/>
<path d="M59.5 59.3999H54.5L41.5 71.3999L28.5 59.3999H23.5C19.1 59.3999 15.5 55.7999 15.5 51.3999V15.3999C15.5 10.9999 19.1 7.3999 23.5 7.3999H59.5C63.9 7.3999 67.5 10.9999 67.5 15.3999V51.3999C67.5 55.7999 63.9 59.3999 59.5 59.3999Z" fill="white"/>
<path d="M67.5 17.3999V15.3999C67.5 10.9999 63.9 7.3999 59.5 7.3999H23.5C19.1 7.3999 15.5 10.9999 15.5 15.3999V51.3999C15.5 55.7999 19.1 59.3999 23.5 59.3999H24.6C25.6 36.2999 44.3 17.8999 67.5 17.3999Z" fill="white"/>
<path d="M41.5001 71.3999L54.5001 59.3999H59.5001C63.9001 59.3999 67.5001 55.7999 67.5001 51.3999V17.3999C44.3001 17.8999 25.6001 36.2999 24.6001 59.3999H28.5001L41.5001 71.3999Z" fill="#D7B4ED"/>
<path d="M41.4998 72.1C41.2998 72.1 41.0998 72 40.9998 71.9L28.1998 60.1H23.4998C18.6998 60.1 14.7998 56.2 14.7998 51.3V15.3C14.7998 10.5 18.6998 6.5 23.4998 6.5H59.4998C64.2998 6.5 68.2998 10.4 68.2998 15.3V51.3C68.2998 56.1 64.3998 60.1 59.4998 60.1H54.7998L41.9998 71.9C41.8998 72 41.6998 72.1 41.4998 72.1ZM23.4998 8.1C19.4998 8.1 16.1998 11.4 16.1998 15.4V51.4C16.1998 55.4 19.4998 58.7 23.4998 58.7H28.4998C28.6998 58.7 28.8998 58.8 28.9998 58.9L41.4998 70.4L53.9998 58.8C54.0998 58.7 54.2998 58.6 54.4998 58.6H59.4998C63.4998 58.6 66.7998 55.3 66.7998 51.3V15.3C66.7998 11.3 63.4998 8 59.4998 8H23.4998V8.1Z" fill="#4F358E"/>
<path d="M13.5002 62.3002H9.5002C9.1002 62.3002 8.7002 62.0002 8.7002 61.5002C8.7002 61.1002 9.0002 60.7002 9.5002 60.7002H13.5002C13.9002 60.7002 14.3002 61.0002 14.3002 61.5002C14.3002 61.9002 13.9002 62.3002 13.5002 62.3002Z" fill="#4F358E"/>
<path d="M11.5002 64.3002C11.1002 64.3002 10.7002 64.0002 10.7002 63.5002V59.5002C10.7002 59.1002 11.0002 58.7002 11.5002 58.7002C11.9002 58.7002 12.3002 59.0002 12.3002 59.5002V63.5002C12.3002 63.9002 11.9002 64.3002 11.5002 64.3002Z" fill="#4F358E"/>
<path d="M11.5002 56.3002C11.942 56.3002 12.3002 55.942 12.3002 55.5002C12.3002 55.0584 11.942 54.7002 11.5002 54.7002C11.0584 54.7002 10.7002 55.0584 10.7002 55.5002C10.7002 55.942 11.0584 56.3002 11.5002 56.3002Z" fill="#4F358E"/>
<path d="M11.5002 53.3002C11.942 53.3002 12.3002 52.942 12.3002 52.5002C12.3002 52.0584 11.942 51.7002 11.5002 51.7002C11.0584 51.7002 10.7002 52.0584 10.7002 52.5002C10.7002 52.942 11.0584 53.3002 11.5002 53.3002Z" fill="#4F358E"/>
<path d="M11.5002 49.3002C11.942 49.3002 12.3002 48.942 12.3002 48.5002C12.3002 48.0584 11.942 47.7002 11.5002 47.7002C11.0584 47.7002 10.7002 48.0584 10.7002 48.5002C10.7002 48.942 11.0584 49.3002 11.5002 49.3002Z" fill="#4F358E"/>
<path d="M11.5002 43.3002C11.942 43.3002 12.3002 42.942 12.3002 42.5002C12.3002 42.0584 11.942 41.7002 11.5002 41.7002C11.0584 41.7002 10.7002 42.0584 10.7002 42.5002C10.7002 42.942 11.0584 43.3002 11.5002 43.3002Z" fill="#4F358E"/>
<path d="M73.5002 10.1H69.5002C69.1002 10.1 68.7002 9.8 68.7002 9.3C68.7002 8.9 69.0002 8.5 69.5002 8.5H73.5002C73.9002 8.5 74.3002 8.8 74.3002 9.3C74.3002 9.8 73.9002 10.1 73.5002 10.1Z" fill="#4F358E"/>
<path d="M71.5002 12.1C71.1002 12.1 70.7002 11.8 70.7002 11.3V7.3C70.7002 6.9 71.0002 6.5 71.5002 6.5C71.9002 6.5 72.3002 6.8 72.3002 7.3V11.3C72.3002 11.8 71.9002 12.1 71.5002 12.1Z" fill="#4F358E"/>
<path d="M71.5002 16.2001C71.942 16.2001 72.3002 15.8419 72.3002 15.4001C72.3002 14.9583 71.942 14.6001 71.5002 14.6001C71.0584 14.6001 70.7002 14.9583 70.7002 15.4001C70.7002 15.8419 71.0584 16.2001 71.5002 16.2001Z" fill="#4F358E"/>
<path d="M71.5002 20.2001C71.942 20.2001 72.3002 19.8419 72.3002 19.4001C72.3002 18.9583 71.942 18.6001 71.5002 18.6001C71.0584 18.6001 70.7002 18.9583 70.7002 19.4001C70.7002 19.8419 71.0584 20.2001 71.5002 20.2001Z" fill="#4F358E"/>
<path d="M71.5002 25.2001C71.942 25.2001 72.3002 24.8419 72.3002 24.4001C72.3002 23.9583 71.942 23.6001 71.5002 23.6001C71.0584 23.6001 70.7002 23.9583 70.7002 24.4001C70.7002 24.8419 71.0584 25.2001 71.5002 25.2001Z" fill="#4F358E"/>
<path d="M71.5002 32.2001C71.942 32.2001 72.3002 31.8419 72.3002 31.4001C72.3002 30.9583 71.942 30.6001 71.5002 30.6001C71.0584 30.6001 70.7002 30.9583 70.7002 31.4001C70.7002 31.8419 71.0584 32.2001 71.5002 32.2001Z" fill="#4F358E"/>
<path d="M19.5002 46.0998C19.1002 46.0998 18.7002 45.7998 18.7002 45.2998V34.5998C18.7002 34.1998 19.0002 33.7998 19.5002 33.7998C19.9002 33.7998 20.3002 34.0998 20.3002 34.5998V45.3998C20.3002 45.7998 19.9002 46.0998 19.5002 46.0998Z" fill="#4F358E"/>
<path d="M19.5002 52.3C19.1002 52.3 18.7002 52 18.7002 51.5V49.3C18.7002 48.9 19.0002 48.5 19.5002 48.5C19.9002 48.5 20.3002 48.8 20.3002 49.3V51.5C20.3002 52 19.9002 52.3 19.5002 52.3Z" fill="#4F358E"/>
<path d="M63.5002 39.0998C63.1002 39.0998 62.7002 38.7998 62.7002 38.2998V25.5998C62.7002 25.1998 63.0002 24.7998 63.5002 24.7998C63.9002 24.7998 64.2002 25.0998 64.2002 25.5998V38.3998C64.3002 38.7998 63.9002 39.0998 63.5002 39.0998Z" fill="#4F358E"/>
<path d="M63.5002 47.3C63.1002 47.3 62.7002 47 62.7002 46.5V42.3C62.7002 41.9 63.0002 41.5 63.5002 41.5C63.9002 41.5 64.2002 41.8 64.2002 42.3V46.5C64.3002 47 63.9002 47.3 63.5002 47.3Z" fill="#4F358E"/>
<path d="M34.1001 24.6998C34.1001 26.5998 32.5001 28.1998 30.6001 28.1998C30.4001 28.1998 30.3001 28.1998 30.1001 28.0998C30.7001 28.6998 31.6001 29.1998 32.6001 29.1998C34.5001 29.1998 36.1001 27.5998 36.1001 25.6998C36.1001 22.6998 38.5001 20.2998 41.5001 20.2998C42.0001 20.2998 42.4001 20.3998 42.8001 20.4998C41.9001 19.7998 40.7001 19.2998 39.5001 19.2998C36.5001 19.3998 34.1001 21.7998 34.1001 24.6998Z" fill="#D7B4ED"/>
<path d="M41.5001 13.3999C34.7001 13.3999 29.1001 18.8999 29.1001 25.7999C29.1001 27.6999 30.7001 29.2999 32.6001 29.2999C34.5001 29.2999 36.1001 27.6999 36.1001 25.7999C36.1001 22.7999 38.5001 20.3999 41.5001 20.3999C44.5001 20.3999 46.9001 22.7999 46.9001 25.7999C46.9001 27.6999 46.2001 28.2999 44.1001 29.8999C41.7001 31.5999 38.1001 34.2999 38.1001 40.3999V41.6999C38.1001 43.5999 39.7001 45.1999 41.6001 45.1999C43.5001 45.1999 45.1001 43.5999 45.1001 41.6999V40.3999C45.1001 37.9999 46.0001 37.1999 48.2001 35.5999C50.5001 33.8999 53.9001 31.3999 53.9001 25.8999C53.9001 18.8999 48.3001 13.3999 41.5001 13.3999Z" fill="white"/>
<path d="M41.5 49.8999C39.6 49.8999 38 51.4999 38 53.3999V53.7999C38 55.6999 39.6 57.2999 41.5 57.2999C43.4 57.2999 45 55.6999 45 53.7999V53.3999C45 51.4999 43.4 49.8999 41.5 49.8999Z" fill="white"/>
<path d="M46.0001 14.2002C49.5001 16.4002 51.9001 20.3002 51.9001 24.7002C51.9001 30.3002 48.5001 32.8002 46.2001 34.4002C44.0001 36.0002 43.1001 36.8002 43.1001 39.2002V40.5002C43.1001 42.4002 41.5001 44.0002 39.6001 44.0002C39.4001 44.0002 39.3001 44.0002 39.1001 44.0002C39.7001 44.6002 40.6001 45.0002 41.6001 45.0002C43.5001 45.0002 45.1001 43.4002 45.1001 41.5002V40.2002C45.1001 37.8002 46.0001 37.0002 48.2001 35.4002C50.5001 33.7002 53.9001 31.2002 53.9001 25.7002C53.9001 20.5002 50.6001 16.0002 46.0001 14.2002Z" fill="#D7B4ED"/>
<path d="M42 50C42.6 50.6 43 51.5 43 52.4V52.8C43 54.7 41.4 56.3 39.5 56.3C39.3 56.3 39.2 56.3 39 56.3C39.6 56.9 40.5 57.3 41.5 57.3C43.4 57.3 45 55.7 45 53.8V53.4C45 51.7 43.7 50.2 42 50Z" fill="#D7B4ED"/>
<path d="M41.5002 45.9001C39.2002 45.9001 37.2002 44.0001 37.2002 41.6001V40.3001C37.2002 33.8001 41.2002 30.9001 43.5002 29.2001C45.6002 27.7001 46.0002 27.2001 46.0002 25.7001C46.0002 23.2001 43.9002 21.1001 41.4002 21.1001C38.9002 21.1001 36.8002 23.2001 36.8002 25.7001C36.8002 28.0001 34.9002 30.0001 32.5002 30.0001C30.2002 30.0001 28.2002 28.1001 28.2002 25.7001C28.2002 18.5001 34.1002 12.6001 41.3002 12.6001C48.5002 12.6001 54.4002 18.5001 54.4002 25.7001C54.4002 31.7001 50.6002 34.4001 48.4002 36.0001C46.2002 37.6001 45.6002 38.2001 45.6002 40.2001V41.5001C45.8002 44.0001 43.8002 45.9001 41.5002 45.9001ZM41.5002 19.6001C44.9002 19.6001 47.6002 22.3001 47.6002 25.7001C47.6002 28.0001 46.6002 28.8001 44.4002 30.4001C42.0002 32.2001 38.7002 34.6001 38.7002 40.3001V41.6001C38.7002 43.1001 39.9002 44.4001 41.5002 44.4001C43.0002 44.4001 44.3002 43.2001 44.3002 41.6001V40.3001C44.3002 37.5001 45.4002 36.6001 47.7002 34.9001C50.0002 33.2001 53.1002 31.0001 53.1002 25.8001C53.1002 19.4001 47.9002 14.2001 41.5002 14.2001C35.1002 14.2001 29.9002 19.4001 29.9002 25.8001C29.9002 27.3001 31.1002 28.6001 32.7002 28.6001C34.2002 28.6001 35.5002 27.4001 35.5002 25.8001C35.4002 22.3001 38.1002 19.6001 41.5002 19.6001Z" fill="#4F358E"/>
<path d="M41.5002 58.1001C39.2002 58.1001 37.2002 56.2001 37.2002 53.8001V53.4001C37.2002 51.1001 39.1002 49.1001 41.5002 49.1001C43.8002 49.1001 45.8002 51.0001 45.8002 53.4001V53.8001C45.8002 56.2001 43.8002 58.1001 41.5002 58.1001ZM41.5002 50.7001C40.0002 50.7001 38.7002 51.9001 38.7002 53.5001V53.9001C38.7002 55.4001 39.9002 56.7001 41.5002 56.7001C43.0002 56.7001 44.3002 55.5001 44.3002 53.9001V53.5001C44.3002 51.9001 43.0002 50.7001 41.5002 50.7001Z" fill="#4F358E"/>
</g>
<defs>
<clipPath id="clip0">
<rect width="78.1" height="73.6" fill="white"/>
</clipPath>
</defs>
</svg>
