<svg width="27" height="33" viewBox="0 0 27 33" fill="none" xmlns="http://www.w3.org/2000/svg">
<g clip-path="url(#clip0)">
<path d="M24.3865 33H4.72839C2.81102 33 2.81103 31.0469 2.81103 30.4049L0.00662876 7.52179C-0.00202761 7.45087 0.00454996 7.37894 0.0259293 7.31071C0.0473086 7.24249 0.0830061 7.17951 0.130683 7.12591C0.17836 7.07231 0.236937 7.02929 0.302576 6.99968C0.368215 6.97007 0.439431 6.95454 0.511555 6.9541H23.7109C23.8355 6.95486 23.9555 7.00058 24.0485 7.08269C24.1414 7.16481 24.2009 7.27767 24.2159 7.40014L27.0271 30.3778C27.0298 30.7223 26.9634 31.064 26.8318 31.3829C26.7001 31.7018 26.5058 31.9916 26.2601 32.2356C26.0145 32.4795 25.7224 32.6727 25.4007 32.8039C25.0791 32.9351 24.7343 33.0018 24.3865 33ZM1.09154 7.94079L3.82088 30.317C3.82088 31.8376 4.24393 31.9592 4.71474 31.9592H24.3865C24.8099 31.9592 25.216 31.7926 25.5155 31.496C25.8149 31.1995 25.9831 30.7972 25.9831 30.3778L23.2538 7.93404L1.09154 7.94079Z" fill="#AC5DAC"/>
<path d="M0.539062 7.46094V30.4386C0.539063 30.9925 0.761199 31.5236 1.1566 31.9152C1.55201 32.3069 2.08829 32.5269 2.64748 32.5269H21.5755C22.1346 32.5269 22.6709 32.3069 23.0663 31.9152C23.4617 31.5236 23.6839 30.9925 23.6839 30.4386V7.46094H0.539062Z" fill="white"/>
<path d="M21.5754 33H2.62017C1.92526 33 1.25881 32.7265 0.767429 32.2399C0.276053 31.7532 0 31.0931 0 30.4048V7.42715C0 7.29272 0.0539161 7.1638 0.149888 7.06874C0.24586 6.97369 0.376026 6.92029 0.511751 6.92029H23.7111C23.8469 6.92029 23.977 6.97369 24.073 7.06874C24.169 7.1638 24.2229 7.29272 24.2229 7.42715V30.4048C24.2229 30.7479 24.1542 31.0876 24.0209 31.4042C23.8875 31.7208 23.692 32.0081 23.4458 32.2495C23.1996 32.4908 22.9076 32.6814 22.5865 32.8102C22.2655 32.939 21.9218 33.0035 21.5754 33ZM1.0235 7.94076V30.3846C1.0235 30.804 1.19172 31.2062 1.49116 31.5028C1.79059 31.7993 2.19671 31.966 2.62017 31.966H21.5754C21.7851 31.966 21.9927 31.925 22.1865 31.8456C22.3802 31.7661 22.5562 31.6496 22.7044 31.5028C22.8527 31.3559 22.9703 31.1816 23.0506 30.9897C23.1308 30.7979 23.1721 30.5922 23.1721 30.3846V7.94076H1.0235Z" fill="#AC5DAC"/>
<path d="M2.62013 1.20288H21.5754C21.8523 1.20288 22.1265 1.2569 22.3823 1.36184C22.6381 1.46679 22.8705 1.62061 23.0663 1.81452C23.2621 2.00843 23.4174 2.23864 23.5233 2.492C23.6293 2.74536 23.6838 3.01691 23.6838 3.29115V7.43389H0.511719V3.29115C0.511719 2.7373 0.733855 2.20615 1.12926 1.81452C1.52466 1.42289 2.06095 1.20288 2.62013 1.20288Z" fill="white"/>
<path d="M23.6839 7.94082H0.539095C0.40337 7.94082 0.273204 7.88742 0.177232 7.79237C0.0812599 7.69731 0.0273438 7.56839 0.0273438 7.43396V3.26419C0.0273438 2.57592 0.303396 1.91584 0.794773 1.42916C1.28615 0.942482 1.9526 0.669067 2.64751 0.669067H21.5755C22.2704 0.669067 22.9368 0.942482 23.4282 1.42916C23.9196 1.91584 24.1957 2.57592 24.1957 3.26419V7.43396C24.1957 7.56839 24.1417 7.69731 24.0458 7.79237C23.9498 7.88742 23.8196 7.94082 23.6839 7.94082ZM1.02355 6.9271H23.1721V3.26419C23.1721 3.05652 23.1308 2.85088 23.0506 2.65901C22.9704 2.46715 22.8528 2.29281 22.7045 2.14597C22.5562 1.99912 22.3802 1.88263 22.1865 1.80316C21.9928 1.72369 21.7852 1.68279 21.5755 1.68279H2.62022C2.19676 1.68279 1.79064 1.8494 1.49121 2.14597C1.19177 2.44254 1.02355 2.84478 1.02355 3.26419V6.9271Z" fill="#AC5DAC"/>
<path d="M18.7715 2.4059C18.6358 2.4059 18.5056 2.3525 18.4097 2.25744C18.3137 2.16239 18.2598 2.03346 18.2598 1.89904V0.50686C18.2598 0.372433 18.3137 0.243508 18.4097 0.148453C18.5056 0.0533983 18.6358 0 18.7715 0C18.9072 0 19.0374 0.0533983 19.1334 0.148453C19.2293 0.243508 19.2833 0.372433 19.2833 0.50686V1.89904C19.2833 2.03346 19.2293 2.16239 19.1334 2.25744C19.0374 2.3525 18.9072 2.4059 18.7715 2.4059Z" fill="#AC5DAC"/>
<path d="M15.96 2.4059C15.8243 2.4059 15.6941 2.3525 15.5981 2.25744C15.5022 2.16239 15.4482 2.03346 15.4482 1.89904V0.50686C15.4482 0.372433 15.5022 0.243508 15.5981 0.148453C15.6941 0.0533983 15.8243 0 15.96 0C16.0957 0 16.2259 0.0533983 16.3219 0.148453C16.4178 0.243508 16.4717 0.372433 16.4717 0.50686V1.89904C16.4717 2.03346 16.4178 2.16239 16.3219 2.25744C16.2259 2.3525 16.0957 2.4059 15.96 2.4059Z" fill="#AC5DAC"/>
<path d="M7.53324 2.4059C7.39751 2.4059 7.26734 2.3525 7.17137 2.25744C7.0754 2.16239 7.02148 2.03346 7.02148 1.89904V0.50686C7.02148 0.372433 7.0754 0.243508 7.17137 0.148453C7.26734 0.0533983 7.39751 0 7.53324 0C7.66896 0 7.79913 0.0533983 7.8951 0.148453C7.99107 0.243508 8.04499 0.372433 8.04499 0.50686V1.89904C8.04499 2.03346 7.99107 2.16239 7.8951 2.25744C7.79913 2.3525 7.66896 2.4059 7.53324 2.4059Z" fill="#AC5DAC"/>
<path d="M4.72855 2.4059C4.59282 2.4059 4.46266 2.3525 4.36669 2.25744C4.27071 2.16239 4.2168 2.03346 4.2168 1.89904V0.50686C4.2168 0.372433 4.27071 0.243508 4.36669 0.148453C4.46266 0.0533983 4.59282 0 4.72855 0C4.86427 0 4.99444 0.0533983 5.09041 0.148453C5.18638 0.243508 5.2403 0.372433 5.2403 0.50686V1.89904C5.2403 2.03346 5.18638 2.16239 5.09041 2.25744C4.99444 2.3525 4.86427 2.4059 4.72855 2.4059Z" fill="#AC5DAC"/>
<path d="M20.8723 5.18352H4.02542C3.8897 5.18352 3.75953 5.13012 3.66356 5.03507C3.56759 4.94001 3.51367 4.81109 3.51367 4.67666C3.51367 4.54223 3.56759 4.41331 3.66356 4.31825C3.75953 4.2232 3.8897 4.1698 4.02542 4.1698H20.8723C21.008 4.1698 21.1382 4.2232 21.2341 4.31825C21.3301 4.41331 21.384 4.54223 21.384 4.67666C21.384 4.81109 21.3301 4.94001 21.2341 5.03507C21.1382 5.13012 21.008 5.18352 20.8723 5.18352Z" fill="#AC5DAC"/>
<path d="M20.8725 10.7522H20.1902C20.0544 10.7522 19.9243 10.6988 19.8283 10.6038C19.7323 10.5087 19.6784 10.3798 19.6784 10.2454C19.6784 10.111 19.7323 9.98203 19.8283 9.88698C19.9243 9.79192 20.0544 9.73853 20.1902 9.73853H20.8725C21.0082 9.73853 21.1384 9.79192 21.2344 9.88698C21.3303 9.98203 21.3842 10.111 21.3842 10.2454C21.3842 10.3798 21.3303 10.5087 21.2344 10.6038C21.1384 10.6988 21.0082 10.7522 20.8725 10.7522ZM18.1432 10.7522H17.4608C17.3251 10.7522 17.1949 10.6988 17.099 10.6038C17.003 10.5087 16.9491 10.3798 16.9491 10.2454C16.9491 10.111 17.003 9.98203 17.099 9.88698C17.1949 9.79192 17.3251 9.73853 17.4608 9.73853H18.1432C18.2789 9.73853 18.409 9.79192 18.505 9.88698C18.601 9.98203 18.6549 10.111 18.6549 10.2454C18.6549 10.3798 18.601 10.5087 18.505 10.6038C18.409 10.6988 18.2789 10.7522 18.1432 10.7522ZM15.4138 10.7522H14.7315C14.5958 10.7522 14.4656 10.6988 14.3696 10.6038C14.2736 10.5087 14.2197 10.3798 14.2197 10.2454C14.2197 10.111 14.2736 9.98203 14.3696 9.88698C14.4656 9.79192 14.5958 9.73853 14.7315 9.73853H15.4138C15.5495 9.73853 15.6797 9.79192 15.7757 9.88698C15.8716 9.98203 15.9256 10.111 15.9256 10.2454C15.9256 10.3798 15.8716 10.5087 15.7757 10.6038C15.6797 10.6988 15.5495 10.7522 15.4138 10.7522Z" fill="#AC5DAC"/>
<path d="M20.8729 13.5298H20.1905C20.0548 13.5298 19.9246 13.4764 19.8287 13.3814C19.7327 13.2863 19.6788 13.1574 19.6788 13.023C19.6788 12.8885 19.7327 12.7596 19.8287 12.6646C19.9246 12.5695 20.0548 12.5161 20.1905 12.5161H20.8729C21.0086 12.5161 21.1388 12.5695 21.2347 12.6646C21.3307 12.7596 21.3846 12.8885 21.3846 13.023C21.3846 13.1574 21.3307 13.2863 21.2347 13.3814C21.1388 13.4764 21.0086 13.5298 20.8729 13.5298ZM18.1435 13.5298H17.4612C17.3255 13.5298 17.1953 13.4764 17.0993 13.3814C17.0034 13.2863 16.9494 13.1574 16.9494 13.023C16.9494 12.8885 17.0034 12.7596 17.0993 12.6646C17.1953 12.5695 17.3255 12.5161 17.4612 12.5161H18.1435C18.2793 12.5161 18.4094 12.5695 18.5054 12.6646C18.6014 12.7596 18.6553 12.8885 18.6553 13.023C18.6553 13.1574 18.6014 13.2863 18.5054 13.3814C18.4094 13.4764 18.2793 13.5298 18.1435 13.5298ZM15.4142 13.5298H14.7318C14.5961 13.5298 14.466 13.4764 14.37 13.3814C14.274 13.2863 14.2201 13.1574 14.2201 13.023C14.2201 12.8885 14.274 12.7596 14.37 12.6646C14.466 12.5695 14.5961 12.5161 14.7318 12.5161H15.4142C15.5499 12.5161 15.6801 12.5695 15.776 12.6646C15.872 12.7596 15.9259 12.8885 15.9259 13.023C15.9259 13.1574 15.872 13.2863 15.776 13.3814C15.6801 13.4764 15.5499 13.5298 15.4142 13.5298ZM12.6848 13.5298H12.0025C11.8668 13.5298 11.7366 13.4764 11.6406 13.3814C11.5447 13.2863 11.4908 13.1574 11.4908 13.023C11.4908 12.8885 11.5447 12.7596 11.6406 12.6646C11.7366 12.5695 11.8668 12.5161 12.0025 12.5161H12.6848C12.8206 12.5161 12.9507 12.5695 13.0467 12.6646C13.1427 12.7596 13.1966 12.8885 13.1966 13.023C13.1966 13.1574 13.1427 13.2863 13.0467 13.3814C12.9507 13.4764 12.8206 13.5298 12.6848 13.5298ZM9.9555 13.5298H9.27317C9.13744 13.5298 9.00728 13.4764 8.9113 13.3814C8.81533 13.2863 8.76142 13.1574 8.76142 13.023C8.76142 12.8885 8.81533 12.7596 8.9113 12.6646C9.00728 12.5695 9.13744 12.5161 9.27317 12.5161H9.9555C10.0912 12.5161 10.2214 12.5695 10.3174 12.6646C10.4133 12.7596 10.4673 12.8885 10.4673 13.023C10.4673 13.1574 10.4133 13.2863 10.3174 13.3814C10.2214 13.4764 10.0912 13.5298 9.9555 13.5298ZM7.22616 13.5298H6.54383C6.4081 13.5298 6.27793 13.4764 6.18196 13.3814C6.08599 13.2863 6.03207 13.1574 6.03207 13.023C6.03207 12.8885 6.08599 12.7596 6.18196 12.6646C6.27793 12.5695 6.4081 12.5161 6.54383 12.5161H7.22616C7.36189 12.5161 7.49205 12.5695 7.58802 12.6646C7.684 12.7596 7.73791 12.8885 7.73791 13.023C7.73791 13.1574 7.684 13.2863 7.58802 13.3814C7.49205 13.4764 7.36189 13.5298 7.22616 13.5298ZM4.49682 13.5298H3.81449C3.67876 13.5298 3.54859 13.4764 3.45262 13.3814C3.35665 13.2863 3.30273 13.1574 3.30273 13.023C3.30273 12.8885 3.35665 12.7596 3.45262 12.6646C3.54859 12.5695 3.67876 12.5161 3.81449 12.5161H4.49682C4.63255 12.5161 4.76271 12.5695 4.85868 12.6646C4.95466 12.7596 5.00857 12.8885 5.00857 13.023C5.00857 13.1574 4.95466 13.2863 4.85868 13.3814C4.76271 13.4764 4.63255 13.5298 4.49682 13.5298Z" fill="#AC5DAC"/>
<path d="M20.8729 16.3141H20.1905C20.0548 16.3141 19.9246 16.2607 19.8287 16.1657C19.7327 16.0706 19.6788 15.9417 19.6788 15.8073C19.6788 15.6728 19.7327 15.5439 19.8287 15.4489C19.9246 15.3538 20.0548 15.3004 20.1905 15.3004H20.8729C21.0086 15.3004 21.1388 15.3538 21.2347 15.4489C21.3307 15.5439 21.3846 15.6728 21.3846 15.8073C21.3846 15.9417 21.3307 16.0706 21.2347 16.1657C21.1388 16.2607 21.0086 16.3141 20.8729 16.3141ZM18.1435 16.3141H17.4612C17.3255 16.3141 17.1953 16.2607 17.0993 16.1657C17.0034 16.0706 16.9494 15.9417 16.9494 15.8073C16.9494 15.6728 17.0034 15.5439 17.0993 15.4489C17.1953 15.3538 17.3255 15.3004 17.4612 15.3004H18.1435C18.2793 15.3004 18.4094 15.3538 18.5054 15.4489C18.6014 15.5439 18.6553 15.6728 18.6553 15.8073C18.6553 15.9417 18.6014 16.0706 18.5054 16.1657C18.4094 16.2607 18.2793 16.3141 18.1435 16.3141ZM15.4142 16.3141H14.7318C14.5961 16.3141 14.466 16.2607 14.37 16.1657C14.274 16.0706 14.2201 15.9417 14.2201 15.8073C14.2201 15.6728 14.274 15.5439 14.37 15.4489C14.466 15.3538 14.5961 15.3004 14.7318 15.3004H15.4142C15.5499 15.3004 15.6801 15.3538 15.776 15.4489C15.872 15.5439 15.9259 15.6728 15.9259 15.8073C15.9259 15.9417 15.872 16.0706 15.776 16.1657C15.6801 16.2607 15.5499 16.3141 15.4142 16.3141ZM12.6848 16.3141H12.0025C11.8668 16.3141 11.7366 16.2607 11.6406 16.1657C11.5447 16.0706 11.4908 15.9417 11.4908 15.8073C11.4908 15.6728 11.5447 15.5439 11.6406 15.4489C11.7366 15.3538 11.8668 15.3004 12.0025 15.3004H12.6848C12.8206 15.3004 12.9507 15.3538 13.0467 15.4489C13.1427 15.5439 13.1966 15.6728 13.1966 15.8073C13.1966 15.9417 13.1427 16.0706 13.0467 16.1657C12.9507 16.2607 12.8206 16.3141 12.6848 16.3141ZM9.9555 16.3141H9.27317C9.13744 16.3141 9.00728 16.2607 8.9113 16.1657C8.81533 16.0706 8.76142 15.9417 8.76142 15.8073C8.76142 15.6728 8.81533 15.5439 8.9113 15.4489C9.00728 15.3538 9.13744 15.3004 9.27317 15.3004H9.9555C10.0912 15.3004 10.2214 15.3538 10.3174 15.4489C10.4133 15.5439 10.4673 15.6728 10.4673 15.8073C10.4673 15.9417 10.4133 16.0706 10.3174 16.1657C10.2214 16.2607 10.0912 16.3141 9.9555 16.3141ZM7.22616 16.3141H6.54383C6.4081 16.3141 6.27793 16.2607 6.18196 16.1657C6.08599 16.0706 6.03207 15.9417 6.03207 15.8073C6.03207 15.6728 6.08599 15.5439 6.18196 15.4489C6.27793 15.3538 6.4081 15.3004 6.54383 15.3004H7.22616C7.36189 15.3004 7.49205 15.3538 7.58802 15.4489C7.684 15.5439 7.73791 15.6728 7.73791 15.8073C7.73791 15.9417 7.684 16.0706 7.58802 16.1657C7.49205 16.2607 7.36189 16.3141 7.22616 16.3141ZM4.49682 16.3141H3.81449C3.67876 16.3141 3.54859 16.2607 3.45262 16.1657C3.35665 16.0706 3.30273 15.9417 3.30273 15.8073C3.30273 15.6728 3.35665 15.5439 3.45262 15.4489C3.54859 15.3538 3.67876 15.3004 3.81449 15.3004H4.49682C4.63255 15.3004 4.76271 15.3538 4.85868 15.4489C4.95466 15.5439 5.00857 15.6728 5.00857 15.8073C5.00857 15.9417 4.95466 16.0706 4.85868 16.1657C4.76271 16.2607 4.63255 16.3141 4.49682 16.3141Z" fill="#AC5DAC"/>
<path d="M20.8729 19.0917H20.1905C20.0548 19.0917 19.9246 19.0383 19.8287 18.9433C19.7327 18.8482 19.6788 18.7193 19.6788 18.5849C19.6788 18.4504 19.7327 18.3215 19.8287 18.2265C19.9246 18.1314 20.0548 18.078 20.1905 18.078H20.8729C21.0086 18.078 21.1388 18.1314 21.2347 18.2265C21.3307 18.3215 21.3846 18.4504 21.3846 18.5849C21.3846 18.7193 21.3307 18.8482 21.2347 18.9433C21.1388 19.0383 21.0086 19.0917 20.8729 19.0917ZM18.1435 19.0917H17.4612C17.3255 19.0917 17.1953 19.0383 17.0993 18.9433C17.0034 18.8482 16.9494 18.7193 16.9494 18.5849C16.9494 18.4504 17.0034 18.3215 17.0993 18.2265C17.1953 18.1314 17.3255 18.078 17.4612 18.078H18.1435C18.2793 18.078 18.4094 18.1314 18.5054 18.2265C18.6014 18.3215 18.6553 18.4504 18.6553 18.5849C18.6553 18.7193 18.6014 18.8482 18.5054 18.9433C18.4094 19.0383 18.2793 19.0917 18.1435 19.0917ZM15.4142 19.0917H14.7318C14.5961 19.0917 14.466 19.0383 14.37 18.9433C14.274 18.8482 14.2201 18.7193 14.2201 18.5849C14.2201 18.4504 14.274 18.3215 14.37 18.2265C14.466 18.1314 14.5961 18.078 14.7318 18.078H15.4142C15.5499 18.078 15.6801 18.1314 15.776 18.2265C15.872 18.3215 15.9259 18.4504 15.9259 18.5849C15.9259 18.7193 15.872 18.8482 15.776 18.9433C15.6801 19.0383 15.5499 19.0917 15.4142 19.0917ZM12.6848 19.0917H12.0025C11.8668 19.0917 11.7366 19.0383 11.6406 18.9433C11.5447 18.8482 11.4908 18.7193 11.4908 18.5849C11.4908 18.4504 11.5447 18.3215 11.6406 18.2265C11.7366 18.1314 11.8668 18.078 12.0025 18.078H12.6848C12.8206 18.078 12.9507 18.1314 13.0467 18.2265C13.1427 18.3215 13.1966 18.4504 13.1966 18.5849C13.1966 18.7193 13.1427 18.8482 13.0467 18.9433C12.9507 19.0383 12.8206 19.0917 12.6848 19.0917ZM9.9555 19.0917H9.27317C9.13744 19.0917 9.00728 19.0383 8.9113 18.9433C8.81533 18.8482 8.76142 18.7193 8.76142 18.5849C8.76142 18.4504 8.81533 18.3215 8.9113 18.2265C9.00728 18.1314 9.13744 18.078 9.27317 18.078H9.9555C10.0912 18.078 10.2214 18.1314 10.3174 18.2265C10.4133 18.3215 10.4673 18.4504 10.4673 18.5849C10.4673 18.7193 10.4133 18.8482 10.3174 18.9433C10.2214 19.0383 10.0912 19.0917 9.9555 19.0917ZM7.22616 19.0917H6.54383C6.4081 19.0917 6.27793 19.0383 6.18196 18.9433C6.08599 18.8482 6.03207 18.7193 6.03207 18.5849C6.03207 18.4504 6.08599 18.3215 6.18196 18.2265C6.27793 18.1314 6.4081 18.078 6.54383 18.078H7.22616C7.36189 18.078 7.49205 18.1314 7.58802 18.2265C7.684 18.3215 7.73791 18.4504 7.73791 18.5849C7.73791 18.7193 7.684 18.8482 7.58802 18.9433C7.49205 19.0383 7.36189 19.0917 7.22616 19.0917ZM4.49682 19.0917H3.81449C3.67876 19.0917 3.54859 19.0383 3.45262 18.9433C3.35665 18.8482 3.30273 18.7193 3.30273 18.5849C3.30273 18.4504 3.35665 18.3215 3.45262 18.2265C3.54859 18.1314 3.67876 18.078 3.81449 18.078H4.49682C4.63255 18.078 4.76271 18.1314 4.85868 18.2265C4.95466 18.3215 5.00857 18.4504 5.00857 18.5849C5.00857 18.7193 4.95466 18.8482 4.85868 18.9433C4.76271 19.0383 4.63255 19.0917 4.49682 19.0917Z" fill="#AC5DAC"/>
<path d="M12.4524 21.8761H11.7701C11.6344 21.8761 11.5042 21.8227 11.4082 21.7277C11.3123 21.6326 11.2583 21.5037 11.2583 21.3693C11.2583 21.2349 11.3123 21.1059 11.4082 21.0109C11.5042 20.9158 11.6344 20.8624 11.7701 20.8624H12.4524C12.5881 20.8624 12.7183 20.9158 12.8143 21.0109C12.9103 21.1059 12.9642 21.2349 12.9642 21.3693C12.9642 21.5037 12.9103 21.6326 12.8143 21.7277C12.7183 21.8227 12.5881 21.8761 12.4524 21.8761ZM9.72308 21.8761H9.04074C8.90502 21.8761 8.77485 21.8227 8.67888 21.7277C8.58291 21.6326 8.52899 21.5037 8.52899 21.3693C8.52899 21.2349 8.58291 21.1059 8.67888 21.0109C8.77485 20.9158 8.90502 20.8624 9.04074 20.8624H9.72308C9.85881 20.8624 9.98897 20.9158 10.0849 21.0109C10.1809 21.1059 10.2348 21.2349 10.2348 21.3693C10.2348 21.5037 10.1809 21.6326 10.0849 21.7277C9.98897 21.8227 9.85881 21.8761 9.72308 21.8761ZM6.99374 21.8761H6.3114C6.17568 21.8761 6.04551 21.8227 5.94954 21.7277C5.85357 21.6326 5.79965 21.5037 5.79965 21.3693C5.79965 21.2349 5.85357 21.1059 5.94954 21.0109C6.04551 20.9158 6.17568 20.8624 6.3114 20.8624H6.99374C7.12946 20.8624 7.25963 20.9158 7.3556 21.0109C7.45157 21.1059 7.50549 21.2349 7.50549 21.3693C7.50549 21.5037 7.45157 21.6326 7.3556 21.7277C7.25963 21.8227 7.12946 21.8761 6.99374 21.8761ZM4.2644 21.8761H3.58206C3.44634 21.8761 3.31617 21.8227 3.2202 21.7277C3.12423 21.6326 3.07031 21.5037 3.07031 21.3693C3.07031 21.2349 3.12423 21.1059 3.2202 21.0109C3.31617 20.9158 3.44634 20.8624 3.58206 20.8624H4.2644C4.40012 20.8624 4.53029 20.9158 4.62626 21.0109C4.72223 21.1059 4.77615 21.2349 4.77615 21.3693C4.77615 21.5037 4.72223 21.6326 4.62626 21.7277C4.53029 21.8227 4.40012 21.8761 4.2644 21.8761Z" fill="#AC5DAC"/>
<path d="M10.3438 2.4059C10.2081 2.4059 10.0779 2.3525 9.98192 2.25744C9.88595 2.16239 9.83203 2.03346 9.83203 1.89904V0.50686C9.83203 0.372433 9.88595 0.243508 9.98192 0.148453C10.0779 0.0533983 10.2081 0 10.3438 0C10.4795 0 10.6097 0.0533983 10.7056 0.148453C10.8016 0.243508 10.8555 0.372433 10.8555 0.50686V1.89904C10.8555 2.03346 10.8016 2.16239 10.7056 2.25744C10.6097 2.3525 10.4795 2.4059 10.3438 2.4059Z" fill="#AC5DAC"/>
<path d="M13.1553 2.4059C13.0196 2.4059 12.8894 2.3525 12.7934 2.25744C12.6975 2.16239 12.6436 2.03346 12.6436 1.89904V0.50686C12.6436 0.372433 12.6975 0.243508 12.7934 0.148453C12.8894 0.0533983 13.0196 0 13.1553 0C13.291 0 13.4212 0.0533983 13.5172 0.148453C13.6131 0.243508 13.6671 0.372433 13.6671 0.50686V1.89904C13.6671 2.03346 13.6131 2.16239 13.5172 2.25744C13.4212 2.3525 13.291 2.4059 13.1553 2.4059Z" fill="#AC5DAC"/>
<path d="M20.8729 24.1469H3.32324V29.7088H20.8729V24.1469Z" fill="white"/>
<path d="M20.8729 30.2426H3.32327C3.18755 30.2426 3.05738 30.1892 2.96141 30.0942C2.86544 29.9991 2.81152 29.8702 2.81152 29.7358V24.1603C2.81152 24.0259 2.86544 23.897 2.96141 23.8019C3.05738 23.7068 3.18755 23.6534 3.32327 23.6534H20.8729C21.0087 23.6534 21.1388 23.7068 21.2348 23.8019C21.3308 23.897 21.3847 24.0259 21.3847 24.1603V29.7222C21.3865 29.7899 21.3746 29.8573 21.3497 29.9204C21.3248 29.9834 21.2874 30.0409 21.2397 30.0894C21.192 30.1379 21.135 30.1765 21.072 30.2028C21.009 30.2291 20.9413 30.2427 20.8729 30.2426ZM3.81455 29.2289H20.3612V24.6807H3.83503L3.81455 29.2289Z" fill="#AC5DAC"/>
<path d="M18.0679 27.438H13.9739C13.8381 27.438 13.708 27.3846 13.612 27.2896C13.516 27.1945 13.4621 27.0656 13.4621 26.9312C13.4621 26.7967 13.516 26.6678 13.612 26.5728C13.708 26.4777 13.8381 26.4243 13.9739 26.4243H18.0679C18.2036 26.4243 18.3338 26.4777 18.4297 26.5728C18.5257 26.6678 18.5796 26.7967 18.5796 26.9312C18.5796 27.0656 18.5257 27.1945 18.4297 27.2896C18.3338 27.3846 18.2036 27.438 18.0679 27.438ZM11.9268 27.438H11.2445C11.1088 27.438 10.9786 27.3846 10.8827 27.2896C10.7867 27.1945 10.7328 27.0656 10.7328 26.9312C10.7328 26.7967 10.7867 26.6678 10.8827 26.5728C10.9786 26.4777 11.1088 26.4243 11.2445 26.4243H11.9268C12.0626 26.4243 12.1927 26.4777 12.2887 26.5728C12.3847 26.6678 12.4386 26.7967 12.4386 26.9312C12.4386 27.0656 12.3847 27.1945 12.2887 27.2896C12.1927 27.3846 12.0626 27.438 11.9268 27.438ZM9.19751 27.438H6.13382C5.9981 27.438 5.86793 27.3846 5.77196 27.2896C5.67599 27.1945 5.62207 27.0656 5.62207 26.9312C5.62207 26.7967 5.67599 26.6678 5.77196 26.5728C5.86793 26.4777 5.9981 26.4243 6.13382 26.4243H9.19751C9.33323 26.4243 9.4634 26.4777 9.55937 26.5728C9.65534 26.6678 9.70926 26.7967 9.70926 26.9312C9.70926 27.0656 9.65534 27.1945 9.55937 27.2896C9.4634 27.3846 9.33323 27.438 9.19751 27.438Z" fill="#AC5DAC"/>
</g>
<defs>
<clipPath id="clip0">
<rect width="27" height="33" fill="white"/>
</clipPath>
</defs>
</svg>
