<svg width="23" height="35" viewBox="0 0 23 35" fill="none" xmlns="http://www.w3.org/2000/svg">
<g clip-path="url(#clip0)">
<path d="M21.2705 4.64701H1.72919C0.922171 4.64701 0.288086 3.99995 0.288086 3.17642V0.647009C0.288086 0.470538 0.461018 0.294067 0.633951 0.294067H22.3658C22.5387 0.294067 22.7116 0.470538 22.7116 0.647009V3.17642C22.7116 3.99995 22.0776 4.64701 21.2705 4.64701ZM0.979815 0.99995V3.17642C0.979815 3.58819 1.32568 3.94113 1.72919 3.94113H21.2705C21.6741 3.94113 22.0199 3.58819 22.0199 3.17642V0.99995H0.979815Z" fill="#AC5DAC" stroke="#AC5DAC" stroke-miterlimit="10"/>
<path d="M22.3658 34.7058H0.633951C0.461018 34.7058 0.288086 34.5294 0.288086 34.3529V31.8235C0.288086 31 0.922171 30.3529 1.72919 30.3529H21.2705C22.0776 30.3529 22.7116 31 22.7116 31.8235V34.3529C22.7116 34.5294 22.5964 34.7058 22.3658 34.7058ZM0.979815 34H22.0199V31.8235C22.0199 31.4117 21.6741 31.0588 21.2705 31.0588H1.72919C1.32568 31.0588 0.979815 31.4117 0.979815 31.8235V34Z" fill="#AC5DAC" stroke="#AC5DAC" stroke-miterlimit="10"/>
<path d="M20.6943 31.0588H2.36344C2.19051 31.0588 2.01758 30.8824 2.01758 30.7059V28.9412C2.01758 24.1176 4.61156 19.7059 8.70429 17.5294C4.61156 15.2941 2.01758 10.8824 2.01758 6.11765V4.35294C2.01758 4.17647 2.19051 4 2.36344 4H20.6943C20.8672 4 21.0401 4.17647 21.0401 4.35294V6.11765C21.0401 10.8824 18.4461 15.2941 14.3534 17.5294C18.4461 19.7647 21.0401 24.1765 21.0401 28.9412V30.7059C21.0401 30.8824 20.8672 31.0588 20.6943 31.0588ZM2.70931 30.3529H20.3484V28.9412C20.3484 24.1765 17.6391 19.8235 13.4311 17.8824C13.3158 17.8235 13.2582 17.7059 13.2582 17.5882C13.2582 17.4706 13.3158 17.3529 13.4311 17.2941C17.6391 15.2941 20.3484 10.9412 20.3484 6.23529V4.64706H2.70931V6.05882C2.70931 10.8235 5.41858 15.1765 9.6266 17.1176C9.74189 17.1765 9.79953 17.2941 9.79953 17.4118C9.79953 17.5294 9.74189 17.6471 9.6266 17.7059C5.41858 19.7059 2.70931 24.0588 2.70931 28.7647V30.3529Z" fill="#AC5DAC" stroke="#AC5DAC" stroke-miterlimit="10"/>
<path d="M17.9271 29.7647C17.7541 29.7647 17.5812 29.5882 17.5812 29.4118V28.2941C17.5812 27 17.2353 25.7647 16.5436 24.6471C15.506 23 13.719 21.7059 11.5286 21.1176C9.33809 21.7059 7.49348 22.9412 6.51353 24.6471C5.8218 25.7647 5.47594 27 5.47594 28.2941V29.4118C5.47594 29.5882 5.303 29.7647 5.13007 29.7647C4.95714 29.7647 4.72656 29.647 4.72656 29.4118V28.2941C4.72656 26.8823 5.13007 25.5294 5.87944 24.2941C6.97468 22.4706 8.99223 21.0588 11.298 20.4706H11.4133C11.4709 20.4706 11.5286 20.4706 11.5862 20.4706H11.7015C14.0649 21.0588 16.0248 22.4706 17.12 24.2941C17.8694 25.5294 18.2729 26.8823 18.2729 28.2941V29.4118C18.2729 29.647 18.1 29.7647 17.9271 29.7647Z" fill="#AC5DAC" stroke="#AC5DAC" stroke-miterlimit="10"/>
<path d="M11.5284 15.5293H11.4708H11.3555C8.99207 14.941 7.03217 13.5293 5.93693 11.7057C5.82164 11.5293 5.87929 11.294 6.05222 11.2352C6.22515 11.1175 6.45573 11.1763 6.51337 11.3528C7.55097 12.9999 9.33793 14.294 11.5284 14.8822C13.7189 14.294 15.5635 13.0587 16.5434 11.3528C16.6587 11.1763 16.8317 11.1175 17.0046 11.2352C17.1775 11.3528 17.2352 11.5293 17.1199 11.7057C16.0247 13.5293 14.0071 14.941 11.7013 15.5293H11.5861C11.5861 15.4705 11.5284 15.5293 11.5284 15.5293Z" fill="#AC5DAC" stroke="#AC5DAC" stroke-miterlimit="10"/>
</g>
<defs>
<clipPath id="clip0">
<rect width="23" height="35" fill="white"/>
</clipPath>
</defs>
</svg>
