<svg width="79" height="78" viewBox="0 0 79 78" fill="none" xmlns="http://www.w3.org/2000/svg">
<g clip-path="url(#clip0)">
<path d="M34.7002 77.2002C42.4322 77.2002 48.7002 70.9322 48.7002 63.2002C48.7002 55.4682 42.4322 49.2002 34.7002 49.2002C26.9682 49.2002 20.7002 55.4682 20.7002 63.2002C20.7002 70.9322 26.9682 77.2002 34.7002 77.2002Z" fill="#F2DDF1"/>
<path d="M66.2002 41.7998C72.8276 41.7998 78.2002 36.4272 78.2002 29.7998C78.2002 23.1724 72.8276 17.7998 66.2002 17.7998C59.5728 17.7998 54.2002 23.1724 54.2002 29.7998C54.2002 36.4272 59.5728 41.7998 66.2002 41.7998Z" fill="#F2DDF1"/>
<path d="M20 40C31.0457 40 40 31.0457 40 20C40 8.9543 31.0457 0 20 0C8.9543 0 0 8.9543 0 20C0 31.0457 8.9543 40 20 40Z" fill="#F2DDF1"/>
<path d="M52.8999 70.3999H24.8999C14.9999 70.3999 6.8999 62.2999 6.8999 52.3999V24.3999C6.8999 14.4999 14.9999 6.3999 24.8999 6.3999H52.8999C62.7999 6.3999 70.8999 14.4999 70.8999 24.3999V52.3999C70.8999 62.3999 62.8999 70.3999 52.8999 70.3999Z" fill="white"/>
<path d="M60.3999 8.1001C63.1999 12.9001 64.8999 18.5001 64.8999 24.4001C64.8999 42.1001 50.5999 56.4001 32.8999 56.4001H29.8999C20.4999 56.4001 12.1999 52.0001 6.8999 45.1001V52.4001C6.8999 62.3001 14.9999 70.4001 24.8999 70.4001H52.8999C62.7999 70.4001 70.8999 62.3001 70.8999 52.4001V24.4001C70.8999 17.2001 66.5999 11.0001 60.3999 8.1001Z" fill="#D7B4ED"/>
<path d="M52.9001 71.2001H24.9001C14.6001 71.2001 6.1001 62.8001 6.1001 52.4001V24.4001C6.1001 14.1001 14.5001 5.6001 24.9001 5.6001H52.9001C63.2001 5.6001 71.7001 14.0001 71.7001 24.4001V52.4001C71.7001 62.8001 63.3001 71.2001 52.9001 71.2001ZM24.9001 7.2001C15.4001 7.2001 7.6001 14.9001 7.6001 24.5001V52.5001C7.6001 62.0001 15.3001 69.8001 24.9001 69.8001H52.9001C62.4001 69.8001 70.2001 62.1001 70.2001 52.5001V24.5001C70.2001 15.0001 62.5001 7.2001 52.9001 7.2001H24.9001Z" fill="#4F358E"/>
<path d="M22 39.6003C22 50.2003 27.9 42.8003 39 42.8003C50.1 42.8003 56 50.2003 56 39.6003C56 29.0003 51.4 19.3003 39 19.3003C26.6 19.4003 22 29.0003 22 39.6003Z" fill="white"/>
<path d="M49 22.3999C52 25.8999 53.3 30.9999 53.3 36.3999C53.3 46.2999 47.8 39.3999 37.4 39.3999C28.9 39.3999 23.6 43.9999 22 40.1999C22.2 49.8999 28.1 42.7999 39 42.7999C50.1 42.7999 56 50.1999 56 39.5999C56 32.5999 54 25.9999 49 22.3999Z" fill="#D7B4ED"/>
<path d="M52.9999 46.1001C51.7999 46.1001 50.2999 45.7001 48.5999 45.2001C45.9999 44.5001 42.8999 43.6001 39.0999 43.6001C35.2999 43.6001 32.0999 44.5001 29.5999 45.2001C26.6999 46.0001 24.5999 46.6001 23.0999 45.5001C21.8999 44.6001 21.3999 42.8001 21.3999 39.6001C21.3999 26.5001 27.9999 18.6001 39.1999 18.6001C50.3999 18.6001 56.9999 26.5001 56.9999 39.6001C56.9999 42.8001 56.4999 44.6001 55.2999 45.5001C54.4999 46.0001 53.7999 46.1001 52.9999 46.1001ZM38.9999 42.1001C42.9999 42.1001 46.2999 43.0001 48.8999 43.8001C51.2999 44.5001 53.1999 45.0001 54.0999 44.3001C54.7999 43.7001 55.1999 42.2001 55.1999 39.6001C55.1999 33.7001 53.5999 20.1001 38.8999 20.1001C24.1999 20.1001 22.7999 33.8001 22.7999 39.6001C22.7999 42.2001 23.1999 43.7001 23.8999 44.3001C24.7999 45.0001 26.6999 44.5001 29.0999 43.8001C31.6999 43.0001 34.9999 42.1001 38.9999 42.1001Z" fill="#4F358E"/>
<path d="M33.7003 44L33.1003 46.4C32.7003 47.9 31.7003 49.1 30.3003 49.7L39.0003 63L47.6003 49.7C46.2003 49.1 45.2003 47.9 44.8003 46.4L44.3003 44H33.7003Z" fill="white"/>
<path d="M45.0999 53.6L47.5999 49.7C46.1999 49.1 45.1999 47.9 44.7999 46.4L44.2999 44H40.3999L41.4999 48.3C41.9999 50.5 43.2999 52.3 45.0999 53.6Z" fill="#D7B4ED"/>
<path d="M39 63.8003C38.7 63.8003 38.5 63.7003 38.4 63.5003L29.7 50.2003C29.6 50.0003 29.5 49.8003 29.6 49.6003C29.7 49.4003 29.8 49.2003 30 49.1003C31.2 48.6003 32 47.6003 32.3 46.3003L32.9 43.9003C33 43.6003 33.3 43.3003 33.6 43.3003H44.2C44.5 43.3003 44.8 43.5003 44.9 43.9003L45.5 46.3003C45.8 47.5003 46.7 48.6003 47.8 49.1003C48 49.2003 48.2 49.4003 48.2 49.6003C48.3 49.8003 48.2 50.0003 48.1 50.2003L39.5 63.5003C39.5 63.6003 39.3 63.8003 39 63.8003ZM31.4 50.0003L39 61.6003L46.6 50.0003C45.4 49.2003 44.5 48.0003 44.2 46.6003L43.7 44.7003H34.3L33.8 46.6003C33.5 48.0003 32.6 49.2003 31.4 50.0003Z" fill="#4F358E"/>
<path d="M49.4001 33.9001C49.4001 40.9001 44.7001 46.6001 39.0001 46.6001C33.3001 46.6001 28.6001 41.0001 28.6001 33.9001C28.6001 26.9001 33.3001 27.7001 39.0001 27.7001C44.7001 27.7001 49.4001 26.9001 49.4001 33.9001Z" fill="white"/>
<path d="M47.2 28.6001C47.3 29.3001 47.4 30.0001 47.4 30.9001C47.4 37.9001 42.7 43.6001 37 43.6001C34.3 43.6001 31.8 42.3001 30 40.3001C31.8 44.1001 35.2 46.6001 39 46.6001C44.8 46.6001 49.4 40.9001 49.4 33.9001C49.4 31.0001 48.6 29.4001 47.2 28.6001Z" fill="#D7B4ED"/>
<path d="M39.0003 47.4001C32.8003 47.4001 27.8003 41.4001 27.8003 33.9001C27.8003 31.5001 28.3003 29.7001 29.5003 28.6001C31.3003 26.9001 34.1003 26.9001 37.3003 27.0001C38.4003 27.0001 39.6003 27.0001 40.7003 27.0001C43.9003 26.9001 46.7003 26.9001 48.5003 28.6001C49.6003 29.7001 50.2003 31.4001 50.2003 33.9001C50.2003 41.4001 45.2003 47.4001 39.0003 47.4001ZM35.7003 28.5001C33.5003 28.5001 31.6003 28.7001 30.5003 29.7001C29.7003 30.5001 29.3003 31.9001 29.3003 33.9001C29.3003 40.5001 33.6003 45.9001 39.0003 45.9001C44.4003 45.9001 48.7003 40.5001 48.7003 33.9001C48.7003 31.9001 48.3003 30.5001 47.5003 29.7001C46.2003 28.4001 43.7003 28.4001 40.8003 28.5001C39.7003 28.5001 38.4003 28.5001 37.3003 28.5001C36.7003 28.5001 36.2003 28.5001 35.7003 28.5001Z" fill="#4F358E"/>
<path d="M38.8999 13.3003C33.2999 13.3003 28.6999 14.6003 24.8999 16.9003L26.7999 24.4003C29.9999 23.2003 34.0999 22.4003 38.8999 22.4003C43.6999 22.4003 47.7999 23.1003 50.9999 24.3003L52.8999 17.0003C49.0999 14.7003 44.4999 13.3003 38.8999 13.3003Z" fill="white"/>
<path d="M52.9001 16.9003C49.1001 14.6003 44.5001 13.3003 38.9001 13.3003C34.2001 13.3003 30.1001 14.3003 26.6001 16.0003C29.2001 15.2003 32.1001 14.8003 35.3001 14.8003C40.2001 14.8003 44.4001 15.8003 47.9001 17.6003C48.7001 18.0003 49.2001 19.0003 48.9001 19.9003L48.0001 23.3003C49.1001 23.6003 50.1001 23.9003 51.0001 24.2003L52.9001 16.9003Z" fill="#D7B4ED"/>
<path d="M26.9 25.2001C26.8 25.2001 26.7 25.2001 26.6 25.1001C26.4 25.0001 26.3 24.8001 26.2 24.6001L24.3 17.1001C24.2 16.8001 24.4 16.4001 24.6 16.3001C28.6 13.8001 33.5 12.6001 39 12.6001C44.5 12.6001 49.3 13.8001 53.4 16.3001C53.7 16.5001 53.8 16.8001 53.7 17.1001L51.8 24.4001C51.7 24.6001 51.6 24.8001 51.4 24.9001C51.2 25.0001 51 25.0001 50.8 24.9001C47.6 23.7001 43.5 23.1001 39 23.1001C34.7 23.1001 30.7 23.8001 27.2 25.1001C27 25.1001 26.9 25.2001 26.9 25.2001ZM25.8 17.3001L27.4 23.4001C30.8 22.2001 34.8 21.6001 38.9 21.6001C43.3 21.6001 47.2 22.2001 50.5 23.3001L52.1 17.3001C48.4 15.2001 44 14.1001 39 14.1001C33.9 14.1001 29.5 15.2001 25.8 17.3001Z" fill="#4F358E"/>
<path d="M41.0002 18.8002H37.0002C36.6002 18.8002 36.2002 18.5002 36.2002 18.0002C36.2002 17.6002 36.5002 17.2002 37.0002 17.2002H41.0002C41.4002 17.2002 41.8002 17.5002 41.8002 18.0002C41.8002 18.5002 41.4002 18.8002 41.0002 18.8002Z" fill="#4F358E"/>
<path d="M39.0002 20.8003C38.6002 20.8003 38.2002 20.5003 38.2002 20.0003V16.0003C38.2002 15.6003 38.5002 15.3003 39.0002 15.3003C39.5002 15.3003 39.8002 15.6003 39.8002 16.0003V20.0003C39.8002 20.5003 39.4002 20.8003 39.0002 20.8003Z" fill="#4F358E"/>
<path d="M65 49.7002C66.1046 49.7002 67 48.8048 67 47.7002C67 46.5956 66.1046 45.7002 65 45.7002C63.8954 45.7002 63 46.5956 63 47.7002C63 48.8048 63.8954 49.7002 65 49.7002Z" fill="white"/>
<path d="M65.0002 50.5C63.5002 50.5 62.2002 49.3 62.2002 47.7C62.2002 46.1 63.5002 45 65.0002 45C66.5002 45 67.8002 46.2 67.8002 47.8C67.8002 49.4 66.5002 50.5 65.0002 50.5ZM65.0002 46.5C64.3002 46.5 63.7002 47.1 63.7002 47.8C63.7002 48.5 64.3002 49 65.0002 49C65.7002 49 66.3002 48.4 66.3002 47.7C66.3002 47 65.7002 46.5 65.0002 46.5Z" fill="#4F358E"/>
<path d="M18.5 20.3003C19.6046 20.3003 20.5 19.4049 20.5 18.3003C20.5 17.1957 19.6046 16.3003 18.5 16.3003C17.3954 16.3003 16.5 17.1957 16.5 18.3003C16.5 19.4049 17.3954 20.3003 18.5 20.3003Z" fill="white"/>
<path d="M18.5002 20.9999C17.0002 20.9999 15.7002 19.7999 15.7002 18.1999C15.7002 16.5999 16.9002 15.3999 18.5002 15.3999C20.1002 15.3999 21.3002 16.5999 21.3002 18.1999C21.3002 19.7999 20.0002 20.9999 18.5002 20.9999ZM18.5002 16.9999C17.8002 16.9999 17.2002 17.5999 17.2002 18.2999C17.2002 18.9999 17.8002 19.5999 18.5002 19.5999C19.2002 19.5999 19.8002 18.9999 19.8002 18.2999C19.7002 17.5999 19.2002 16.9999 18.5002 16.9999Z" fill="#4F358E"/>
<path d="M12.8999 38.5C14.0045 38.5 14.8999 37.6046 14.8999 36.5C14.8999 35.3954 14.0045 34.5 12.8999 34.5C11.7953 34.5 10.8999 35.3954 10.8999 36.5C10.8999 37.6046 11.7953 38.5 12.8999 38.5Z" fill="white"/>
<path d="M12.9001 39.3002C11.4001 39.3002 10.1001 38.1002 10.1001 36.5002C10.1001 35.0002 11.3001 33.7002 12.9001 33.7002C14.5001 33.7002 15.7001 34.9002 15.7001 36.5002C15.7001 38.1002 14.4001 39.3002 12.9001 39.3002ZM12.9001 35.3002C12.2001 35.3002 11.6001 35.9002 11.6001 36.6002C11.6001 37.3002 12.2001 37.9002 12.9001 37.9002C13.6001 37.9002 14.2001 37.3002 14.2001 36.6002C14.2001 35.8002 13.6001 35.3002 12.9001 35.3002Z" fill="#4F358E"/>
<path d="M60 26.8003C61.1046 26.8003 62 25.9049 62 24.8003C62 23.6957 61.1046 22.8003 60 22.8003C58.8954 22.8003 58 23.6957 58 24.8003C58 25.9049 58.8954 26.8003 60 26.8003Z" fill="white"/>
<path d="M60.0002 27.5C58.5002 27.5 57.2002 26.3 57.2002 24.7C57.2002 23.1 58.5002 22 60.0002 22C61.5002 22 62.8002 23.2 62.8002 24.8C62.8002 26.4 61.5002 27.5 60.0002 27.5ZM60.0002 23.5C59.3002 23.5 58.7002 24.1 58.7002 24.8C58.7002 25.5 59.3002 26.1 60.0002 26.1C60.7002 26.1 61.3002 25.5 61.3002 24.8C61.3002 24.1 60.7002 23.5 60.0002 23.5Z" fill="#4F358E"/>
<path d="M53.3999 50.9002L48.7999 50.1002C48.3999 50.0002 47.9999 49.9002 47.5999 49.7002L38.9999 63.0002L30.2999 49.7002C29.8999 49.9002 29.4999 50.0002 29.0999 50.1002L24.4999 50.9002C20.0999 51.7002 16.8999 55.5002 16.8999 59.9002V68.6002C19.2999 69.8002 21.9999 70.4002 24.7999 70.4002H52.7999C55.6999 70.4002 58.4999 69.7002 60.8999 68.5002V59.9002C60.9999 55.4002 57.7999 51.6002 53.3999 50.9002Z" fill="white"/>
<path d="M56.6 52.1001C57.5 53.5001 58 55.2001 58 56.9001V62.8001C58 64.5001 56.9 66.1001 55.3 66.6001C53.6 67.1001 51.8 67.4001 49.9 67.4001H21.9C20.2 67.4001 18.6 67.2001 17 66.7001V68.5001C19.4 69.7001 22.1 70.3001 24.9 70.3001H52.9C55.8 70.3001 58.6 69.6001 61 68.4001V59.8001C61 56.6001 59.3 53.7001 56.6 52.1001Z" fill="#D7B4ED"/>
<path d="M52.9003 71.1999H24.9003C22.0003 71.1999 19.3003 70.5999 16.7003 69.2999C16.4003 69.1999 16.3003 68.8999 16.3003 68.5999V59.8999C16.3003 55.0999 19.8003 50.9999 24.5003 50.0999L29.1003 49.2999C29.4003 49.1999 29.8003 49.0999 30.1003 48.9999C30.4003 48.8999 30.8003 48.9999 31.0003 49.2999L39.0003 61.5999L47.0003 49.2999C47.2003 48.9999 47.6003 48.8999 47.9003 48.9999C48.2003 49.0999 48.5003 49.1999 48.9003 49.2999L53.5003 50.0999C58.3003 50.8999 61.7003 54.9999 61.7003 59.8999V68.4999C61.7003 68.7999 61.5003 68.9999 61.3003 69.1999C58.7003 70.4999 55.9003 71.1999 52.9003 71.1999ZM17.8003 68.0999C20.1003 69.0999 22.5003 69.6999 25.0003 69.6999H53.0003C55.6003 69.6999 58.0003 69.0999 60.3003 67.9999V59.8999C60.3003 55.7999 57.4003 52.2999 53.3003 51.5999L48.7003 50.7999C48.5003 50.7999 48.2003 50.6999 48.0003 50.5999L39.7003 63.3999C39.4003 63.7999 38.7003 63.7999 38.4003 63.3999L30.1003 50.5999C29.9003 50.6999 29.6003 50.6999 29.4003 50.7999L24.8003 51.5999C20.8003 52.2999 17.8003 55.7999 17.8003 59.8999V68.0999Z" fill="#4F358E"/>
<path d="M49.4 57.4002L39 63.0002L47.6 49.7002L49.4 57.4002Z" fill="#D7B4ED"/>
<path d="M46.7 56.5002L39 63.0002L47.6 49.7002L47 55.8002C47 56.1002 46.9 56.3002 46.7 56.5002Z" fill="white"/>
<path d="M38.9999 63.7999C38.7999 63.7999 38.5999 63.6999 38.3999 63.5999C38.1999 63.2999 38.0999 62.9999 38.2999 62.6999L46.9999 49.2999C47.1999 48.9999 47.4999 48.8999 47.7999 48.9999C48.0999 49.0999 48.2999 49.2999 48.3999 49.5999L50.1999 57.1999C50.2999 57.4999 50.0999 57.8999 49.7999 57.9999L39.3999 63.5999C39.1999 63.6999 39.0999 63.7999 38.9999 63.7999ZM47.2999 51.5999L41.1999 60.8999L48.4999 56.8999L47.2999 51.5999Z" fill="#4F358E"/>
<path d="M28.6001 57.4002L39.0001 63.0002L30.4001 49.7002L28.6001 57.4002Z" fill="#D7B4ED"/>
<path d="M28.6001 57.4L39.0001 63L29.3001 54L28.6001 57.4Z" fill="white"/>
<path d="M38.9999 63.8C38.8999 63.8 38.7999 63.8 38.5999 63.7L28.1999 58C27.8999 57.8 27.6999 57.5 27.7999 57.2L29.5999 49.6C29.6999 49.3 29.8999 49.1 30.1999 49C30.4999 49 30.7999 49.1 30.9999 49.3L39.5999 62.6C39.7999 62.9 39.7999 63.3 39.4999 63.5C39.3999 63.7 39.1999 63.8 38.9999 63.8ZM29.3999 57L36.6999 61L30.5999 51.7L29.3999 57Z" fill="#4F358E"/>
<path d="M52.8 71.2002C52.4 71.2002 52 70.9002 52 70.4002V61.5002C52 61.1002 52.3 60.7002 52.8 60.7002C53.2 60.7002 53.6 61.0002 53.6 61.5002V70.4002C53.6 70.9002 53.2 71.2002 52.8 71.2002Z" fill="#4F358E"/>
<path d="M25.1999 71.2002C24.7999 71.2002 24.3999 70.9002 24.3999 70.4002V61.5002C24.3999 61.1002 24.6999 60.7002 25.1999 60.7002C25.5999 60.7002 25.9999 61.0002 25.9999 61.5002V70.4002C25.8999 70.9002 25.5999 71.2002 25.1999 71.2002Z" fill="#4F358E"/>
<path d="M39.0002 71.2002C38.6002 71.2002 38.2002 70.9002 38.2002 70.4002V63.0002C38.2002 62.6002 38.5002 62.2002 39.0002 62.2002C39.4002 62.2002 39.8002 62.5002 39.8002 63.0002V70.4002C39.8002 70.9002 39.4002 71.2002 39.0002 71.2002Z" fill="#4F358E"/>
</g>
<defs>
<clipPath id="clip0">
<rect width="78.2" height="77.2" fill="white"/>
</clipPath>
</defs>
</svg>
